%TF.GenerationSoftware,KiCad,Pcbnew,(6.0.7)*%
%TF.CreationDate,2023-08-25T11:33:12-04:00*%
%TF.ProjectId,Timer V4,54696d65-7220-4563-942e-6b696361645f,rev?*%
%TF.SameCoordinates,Original*%
%TF.FileFunction,Drillmap*%
%TF.FilePolarity,Positive*%
%FSLAX45Y45*%
G04 Gerber Fmt 4.5, Leading zero omitted, Abs format (unit mm)*
G04 Created by KiCad (PCBNEW (6.0.7)) date 2023-08-25 11:33:12*
%MOMM*%
%LPD*%
G01*
G04 APERTURE LIST*
%ADD10C,0.150000*%
%ADD11C,0.100000*%
%ADD12C,0.200000*%
%ADD13C,0.070000*%
%ADD14C,0.090000*%
%ADD15C,0.130000*%
%ADD16C,0.160000*%
%ADD17C,0.250000*%
%ADD18C,0.300000*%
G04 APERTURE END LIST*
D10*
X10758000Y-5588000D02*
G75*
G03*
X10758000Y-5588000I-150000J0D01*
G01*
X19858000Y-5588000D02*
G75*
G03*
X19858000Y-5588000I-150000J0D01*
G01*
X19858000Y-10588000D02*
G75*
G03*
X19858000Y-10588000I-150000J0D01*
G01*
D11*
X10308000Y-5088000D02*
X20308000Y-5088000D01*
X20308000Y-5088000D02*
X20308000Y-11088000D01*
X20308000Y-11088000D02*
X10308000Y-11088000D01*
X10308000Y-11088000D02*
X10308000Y-5088000D01*
D10*
X10758000Y-10588000D02*
G75*
G03*
X10758000Y-10588000I-150000J0D01*
G01*
D12*
D13*
X11217200Y-9204250D02*
X11287200Y-9274250D01*
X11287200Y-9204250D02*
X11217200Y-9274250D01*
X11217200Y-9966250D02*
X11287200Y-10036250D01*
X11287200Y-9966250D02*
X11217200Y-10036250D01*
X13289059Y-9280450D02*
X13359059Y-9350450D01*
X13359059Y-9280450D02*
X13289059Y-9350450D01*
X13289059Y-10042450D02*
X13359059Y-10112450D01*
X13359059Y-10042450D02*
X13289059Y-10112450D01*
X15360919Y-9299500D02*
X15430919Y-9369500D01*
X15430919Y-9299500D02*
X15360919Y-9369500D01*
X15360919Y-10061500D02*
X15430919Y-10131500D01*
X15430919Y-10061500D02*
X15360919Y-10131500D01*
X17389400Y-7775500D02*
X17459400Y-7845500D01*
X17459400Y-7775500D02*
X17389400Y-7845500D01*
X17432778Y-9318550D02*
X17502778Y-9388550D01*
X17502778Y-9318550D02*
X17432778Y-9388550D01*
X17432778Y-10080550D02*
X17502778Y-10150550D01*
X17502778Y-10080550D02*
X17432778Y-10150550D01*
X18151400Y-7775500D02*
X18221400Y-7845500D01*
X18221400Y-7775500D02*
X18151400Y-7845500D01*
X19650000Y-9318550D02*
X19720000Y-9388550D01*
X19720000Y-9318550D02*
X19650000Y-9388550D01*
X19650000Y-10080550D02*
X19720000Y-10150550D01*
X19720000Y-10080550D02*
X19650000Y-10150550D01*
D14*
X18079500Y-8280400D02*
G75*
G03*
X18079500Y-8280400I-45000J0D01*
G01*
X18333500Y-8280400D02*
G75*
G03*
X18333500Y-8280400I-45000J0D01*
G01*
X18942100Y-8280400D02*
G75*
G03*
X18942100Y-8280400I-45000J0D01*
G01*
X19196100Y-8280400D02*
G75*
G03*
X19196100Y-8280400I-45000J0D01*
G01*
D11*
X14935200Y-5854500D02*
X14935200Y-5954500D01*
X14885200Y-5904500D02*
X14985200Y-5904500D01*
X14935200Y-7378500D02*
X14935200Y-7478500D01*
X14885200Y-7428500D02*
X14985200Y-7428500D01*
X15189200Y-5854500D02*
X15189200Y-5954500D01*
X15139200Y-5904500D02*
X15239200Y-5904500D01*
X15189200Y-7378500D02*
X15189200Y-7478500D01*
X15139200Y-7428500D02*
X15239200Y-7428500D01*
X15443200Y-5854500D02*
X15443200Y-5954500D01*
X15393200Y-5904500D02*
X15493200Y-5904500D01*
X15443200Y-7378500D02*
X15443200Y-7478500D01*
X15393200Y-7428500D02*
X15493200Y-7428500D01*
X15697200Y-5854500D02*
X15697200Y-5954500D01*
X15647200Y-5904500D02*
X15747200Y-5904500D01*
X15697200Y-7378500D02*
X15697200Y-7478500D01*
X15647200Y-7428500D02*
X15747200Y-7428500D01*
X15938500Y-5347500D02*
X15938500Y-5447500D01*
X15888500Y-5397500D02*
X15988500Y-5397500D01*
X15951200Y-5854500D02*
X15951200Y-5954500D01*
X15901200Y-5904500D02*
X16001200Y-5904500D01*
X15951200Y-7378500D02*
X15951200Y-7478500D01*
X15901200Y-7428500D02*
X16001200Y-7428500D01*
X16192500Y-5347500D02*
X16192500Y-5447500D01*
X16142500Y-5397500D02*
X16242500Y-5397500D01*
X16205200Y-5854500D02*
X16205200Y-5954500D01*
X16155200Y-5904500D02*
X16255200Y-5904500D01*
X16205200Y-7378500D02*
X16205200Y-7478500D01*
X16155200Y-7428500D02*
X16255200Y-7428500D01*
X16446500Y-5347500D02*
X16446500Y-5447500D01*
X16396500Y-5397500D02*
X16496500Y-5397500D01*
X16459200Y-5854500D02*
X16459200Y-5954500D01*
X16409200Y-5904500D02*
X16509200Y-5904500D01*
X16459200Y-7378500D02*
X16459200Y-7478500D01*
X16409200Y-7428500D02*
X16509200Y-7428500D01*
X16700500Y-5347500D02*
X16700500Y-5447500D01*
X16650500Y-5397500D02*
X16750500Y-5397500D01*
X16713200Y-5854500D02*
X16713200Y-5954500D01*
X16663200Y-5904500D02*
X16763200Y-5904500D01*
X16713200Y-7378500D02*
X16713200Y-7478500D01*
X16663200Y-7428500D02*
X16763200Y-7428500D01*
X16954500Y-5347500D02*
X16954500Y-5447500D01*
X16904500Y-5397500D02*
X17004500Y-5397500D01*
X16967200Y-5854500D02*
X16967200Y-5954500D01*
X16917200Y-5904500D02*
X17017200Y-5904500D01*
X16967200Y-7378500D02*
X16967200Y-7478500D01*
X16917200Y-7428500D02*
X17017200Y-7428500D01*
X17208500Y-5347500D02*
X17208500Y-5447500D01*
X17158500Y-5397500D02*
X17258500Y-5397500D01*
X17221200Y-5854500D02*
X17221200Y-5954500D01*
X17171200Y-5904500D02*
X17271200Y-5904500D01*
X17221200Y-7378500D02*
X17221200Y-7478500D01*
X17171200Y-7428500D02*
X17271200Y-7428500D01*
X17462500Y-5347500D02*
X17462500Y-5447500D01*
X17412500Y-5397500D02*
X17512500Y-5397500D01*
X17475200Y-5854500D02*
X17475200Y-5954500D01*
X17425200Y-5904500D02*
X17525200Y-5904500D01*
X17475200Y-7378500D02*
X17475200Y-7478500D01*
X17425200Y-7428500D02*
X17525200Y-7428500D01*
X17716500Y-5347500D02*
X17716500Y-5447500D01*
X17666500Y-5397500D02*
X17766500Y-5397500D01*
X17729200Y-5854500D02*
X17729200Y-5954500D01*
X17679200Y-5904500D02*
X17779200Y-5904500D01*
X17729200Y-7378500D02*
X17729200Y-7478500D01*
X17679200Y-7428500D02*
X17779200Y-7428500D01*
X17983200Y-5854500D02*
X17983200Y-5954500D01*
X17933200Y-5904500D02*
X18033200Y-5904500D01*
X17983200Y-7378500D02*
X17983200Y-7478500D01*
X17933200Y-7428500D02*
X18033200Y-7428500D01*
X18224500Y-5347500D02*
X18224500Y-5447500D01*
X18174500Y-5397500D02*
X18274500Y-5397500D01*
X18237200Y-5854500D02*
X18237200Y-5954500D01*
X18187200Y-5904500D02*
X18287200Y-5904500D01*
X18237200Y-7378500D02*
X18237200Y-7478500D01*
X18187200Y-7428500D02*
X18287200Y-7428500D01*
X18478500Y-5347500D02*
X18478500Y-5447500D01*
X18428500Y-5397500D02*
X18528500Y-5397500D01*
X18491200Y-5854500D02*
X18491200Y-5954500D01*
X18441200Y-5904500D02*
X18541200Y-5904500D01*
X18491200Y-7378500D02*
X18491200Y-7478500D01*
X18441200Y-7428500D02*
X18541200Y-7428500D01*
X19748500Y-6046000D02*
X19748500Y-6146000D01*
X19698500Y-6096000D02*
X19798500Y-6096000D01*
X19748500Y-6300000D02*
X19748500Y-6400000D01*
X19698500Y-6350000D02*
X19798500Y-6350000D01*
X19748500Y-6554000D02*
X19748500Y-6654000D01*
X19698500Y-6604000D02*
X19798500Y-6604000D01*
X19748500Y-6808000D02*
X19748500Y-6908000D01*
X19698500Y-6858000D02*
X19798500Y-6858000D01*
X19748500Y-7062000D02*
X19748500Y-7162000D01*
X19698500Y-7112000D02*
X19798500Y-7112000D01*
D15*
X11664762Y-9447962D02*
X11664762Y-9356038D01*
X11572838Y-9356038D01*
X11572838Y-9447962D01*
X11664762Y-9447962D01*
X11664762Y-9947962D02*
X11664762Y-9856038D01*
X11572838Y-9856038D01*
X11572838Y-9947962D01*
X11664762Y-9947962D01*
X11688762Y-5986362D02*
X11688762Y-5894438D01*
X11596838Y-5894438D01*
X11596838Y-5986362D01*
X11688762Y-5986362D01*
X11688762Y-7206362D02*
X11688762Y-7114438D01*
X11596838Y-7114438D01*
X11596838Y-7206362D01*
X11688762Y-7206362D01*
X12288762Y-5786362D02*
X12288762Y-5694438D01*
X12196838Y-5694438D01*
X12196838Y-5786362D01*
X12288762Y-5786362D01*
X12888762Y-5986362D02*
X12888762Y-5894438D01*
X12796838Y-5894438D01*
X12796838Y-5986362D01*
X12888762Y-5986362D01*
X12888762Y-7206362D02*
X12888762Y-7114438D01*
X12796838Y-7114438D01*
X12796838Y-7206362D01*
X12888762Y-7206362D01*
X12914762Y-9447962D02*
X12914762Y-9356038D01*
X12822838Y-9356038D01*
X12822838Y-9447962D01*
X12914762Y-9447962D01*
X12914762Y-9947962D02*
X12914762Y-9856038D01*
X12822838Y-9856038D01*
X12822838Y-9947962D01*
X12914762Y-9947962D01*
X13781951Y-9454312D02*
X13781951Y-9362388D01*
X13690027Y-9362388D01*
X13690027Y-9454312D01*
X13781951Y-9454312D01*
X13781951Y-9954312D02*
X13781951Y-9862388D01*
X13690027Y-9862388D01*
X13690027Y-9954312D01*
X13781951Y-9954312D01*
X15031951Y-9454312D02*
X15031951Y-9362388D01*
X14940027Y-9362388D01*
X14940027Y-9454312D01*
X15031951Y-9454312D01*
X15031951Y-9954312D02*
X15031951Y-9862388D01*
X14940027Y-9862388D01*
X14940027Y-9954312D01*
X15031951Y-9954312D01*
X15851811Y-9435262D02*
X15851811Y-9343338D01*
X15759886Y-9343338D01*
X15759886Y-9435262D01*
X15851811Y-9435262D01*
X15851811Y-9935262D02*
X15851811Y-9843338D01*
X15759886Y-9843338D01*
X15759886Y-9935262D01*
X15851811Y-9935262D01*
X17101811Y-9435262D02*
X17101811Y-9343338D01*
X17009886Y-9343338D01*
X17009886Y-9435262D01*
X17101811Y-9435262D01*
X17101811Y-9935262D02*
X17101811Y-9843338D01*
X17009886Y-9843338D01*
X17009886Y-9935262D01*
X17101811Y-9935262D01*
X17987362Y-9447962D02*
X17987362Y-9356038D01*
X17895438Y-9356038D01*
X17895438Y-9447962D01*
X17987362Y-9447962D01*
X17987362Y-9947962D02*
X17987362Y-9856038D01*
X17895438Y-9856038D01*
X17895438Y-9947962D01*
X17987362Y-9947962D01*
X19237362Y-9447962D02*
X19237362Y-9356038D01*
X19145438Y-9356038D01*
X19145438Y-9447962D01*
X19237362Y-9447962D01*
X19237362Y-9947962D02*
X19237362Y-9856038D01*
X19145438Y-9856038D01*
X19145438Y-9947962D01*
X19237362Y-9947962D01*
D16*
X11033600Y-8284200D02*
X11113600Y-8204200D01*
X11033600Y-8124200D01*
X10953600Y-8204200D01*
X11033600Y-8284200D01*
X11383600Y-8284200D02*
X11463600Y-8204200D01*
X11383600Y-8124200D01*
X11303600Y-8204200D01*
X11383600Y-8284200D01*
D17*
X13400500Y-7050500D02*
X13650500Y-7300500D01*
X13650500Y-7050500D02*
X13400500Y-7300500D01*
X13650500Y-7175500D02*
G75*
G03*
X13650500Y-7175500I-125000J0D01*
G01*
D18*
X12143600Y-8054200D02*
X12443600Y-8354200D01*
X12443600Y-8054200D02*
X12143600Y-8354200D01*
X12293600Y-8054200D02*
X12293600Y-8354200D01*
X12143600Y-8204200D02*
X12443600Y-8204200D01*
X12863600Y-8054200D02*
X13163600Y-8354200D01*
X13163600Y-8054200D02*
X12863600Y-8354200D01*
X13013600Y-8054200D02*
X13013600Y-8354200D01*
X12863600Y-8204200D02*
X13163600Y-8204200D01*
D12*
X10560619Y-11403476D02*
X10560619Y-11203476D01*
X10608238Y-11203476D01*
X10636810Y-11213000D01*
X10655857Y-11232048D01*
X10665381Y-11251095D01*
X10674905Y-11289190D01*
X10674905Y-11317762D01*
X10665381Y-11355857D01*
X10655857Y-11374905D01*
X10636810Y-11393952D01*
X10608238Y-11403476D01*
X10560619Y-11403476D01*
X10760619Y-11403476D02*
X10760619Y-11270143D01*
X10760619Y-11308238D02*
X10770143Y-11289190D01*
X10779667Y-11279667D01*
X10798714Y-11270143D01*
X10817762Y-11270143D01*
X10884429Y-11403476D02*
X10884429Y-11270143D01*
X10884429Y-11203476D02*
X10874905Y-11213000D01*
X10884429Y-11222524D01*
X10893952Y-11213000D01*
X10884429Y-11203476D01*
X10884429Y-11222524D01*
X11008238Y-11403476D02*
X10989190Y-11393952D01*
X10979667Y-11374905D01*
X10979667Y-11203476D01*
X11113000Y-11403476D02*
X11093952Y-11393952D01*
X11084429Y-11374905D01*
X11084429Y-11203476D01*
X11341571Y-11403476D02*
X11341571Y-11203476D01*
X11408238Y-11346333D01*
X11474905Y-11203476D01*
X11474905Y-11403476D01*
X11655857Y-11403476D02*
X11655857Y-11298714D01*
X11646333Y-11279667D01*
X11627286Y-11270143D01*
X11589190Y-11270143D01*
X11570143Y-11279667D01*
X11655857Y-11393952D02*
X11636809Y-11403476D01*
X11589190Y-11403476D01*
X11570143Y-11393952D01*
X11560619Y-11374905D01*
X11560619Y-11355857D01*
X11570143Y-11336809D01*
X11589190Y-11327286D01*
X11636809Y-11327286D01*
X11655857Y-11317762D01*
X11751095Y-11270143D02*
X11751095Y-11470143D01*
X11751095Y-11279667D02*
X11770143Y-11270143D01*
X11808238Y-11270143D01*
X11827286Y-11279667D01*
X11836809Y-11289190D01*
X11846333Y-11308238D01*
X11846333Y-11365381D01*
X11836809Y-11384428D01*
X11827286Y-11393952D01*
X11808238Y-11403476D01*
X11770143Y-11403476D01*
X11751095Y-11393952D01*
X11932048Y-11384428D02*
X11941571Y-11393952D01*
X11932048Y-11403476D01*
X11922524Y-11393952D01*
X11932048Y-11384428D01*
X11932048Y-11403476D01*
X11932048Y-11279667D02*
X11941571Y-11289190D01*
X11932048Y-11298714D01*
X11922524Y-11289190D01*
X11932048Y-11279667D01*
X11932048Y-11298714D01*
D13*
X10233000Y-11698000D02*
X10303000Y-11768000D01*
X10303000Y-11698000D02*
X10233000Y-11768000D01*
D12*
X10598714Y-11623476D02*
X10617762Y-11623476D01*
X10636810Y-11633000D01*
X10646333Y-11642524D01*
X10655857Y-11661571D01*
X10665381Y-11699667D01*
X10665381Y-11747286D01*
X10655857Y-11785381D01*
X10646333Y-11804428D01*
X10636810Y-11813952D01*
X10617762Y-11823476D01*
X10598714Y-11823476D01*
X10579667Y-11813952D01*
X10570143Y-11804428D01*
X10560619Y-11785381D01*
X10551095Y-11747286D01*
X10551095Y-11699667D01*
X10560619Y-11661571D01*
X10570143Y-11642524D01*
X10579667Y-11633000D01*
X10598714Y-11623476D01*
X10751095Y-11804428D02*
X10760619Y-11813952D01*
X10751095Y-11823476D01*
X10741571Y-11813952D01*
X10751095Y-11804428D01*
X10751095Y-11823476D01*
X10827286Y-11623476D02*
X10960619Y-11623476D01*
X10874905Y-11823476D01*
X11074905Y-11623476D02*
X11093952Y-11623476D01*
X11113000Y-11633000D01*
X11122524Y-11642524D01*
X11132048Y-11661571D01*
X11141571Y-11699667D01*
X11141571Y-11747286D01*
X11132048Y-11785381D01*
X11122524Y-11804428D01*
X11113000Y-11813952D01*
X11093952Y-11823476D01*
X11074905Y-11823476D01*
X11055857Y-11813952D01*
X11046333Y-11804428D01*
X11036810Y-11785381D01*
X11027286Y-11747286D01*
X11027286Y-11699667D01*
X11036810Y-11661571D01*
X11046333Y-11642524D01*
X11055857Y-11633000D01*
X11074905Y-11623476D01*
X11265381Y-11623476D02*
X11284428Y-11623476D01*
X11303476Y-11633000D01*
X11313000Y-11642524D01*
X11322524Y-11661571D01*
X11332048Y-11699667D01*
X11332048Y-11747286D01*
X11322524Y-11785381D01*
X11313000Y-11804428D01*
X11303476Y-11813952D01*
X11284428Y-11823476D01*
X11265381Y-11823476D01*
X11246333Y-11813952D01*
X11236809Y-11804428D01*
X11227286Y-11785381D01*
X11217762Y-11747286D01*
X11217762Y-11699667D01*
X11227286Y-11661571D01*
X11236809Y-11642524D01*
X11246333Y-11633000D01*
X11265381Y-11623476D01*
X11417762Y-11823476D02*
X11417762Y-11690143D01*
X11417762Y-11709190D02*
X11427286Y-11699667D01*
X11446333Y-11690143D01*
X11474905Y-11690143D01*
X11493952Y-11699667D01*
X11503476Y-11718714D01*
X11503476Y-11823476D01*
X11503476Y-11718714D02*
X11513000Y-11699667D01*
X11532048Y-11690143D01*
X11560619Y-11690143D01*
X11579667Y-11699667D01*
X11589190Y-11718714D01*
X11589190Y-11823476D01*
X11684428Y-11823476D02*
X11684428Y-11690143D01*
X11684428Y-11709190D02*
X11693952Y-11699667D01*
X11713000Y-11690143D01*
X11741571Y-11690143D01*
X11760619Y-11699667D01*
X11770143Y-11718714D01*
X11770143Y-11823476D01*
X11770143Y-11718714D02*
X11779667Y-11699667D01*
X11798714Y-11690143D01*
X11827286Y-11690143D01*
X11846333Y-11699667D01*
X11855857Y-11718714D01*
X11855857Y-11823476D01*
X12246333Y-11613952D02*
X12074905Y-11871095D01*
X12503476Y-11623476D02*
X12522524Y-11623476D01*
X12541571Y-11633000D01*
X12551095Y-11642524D01*
X12560619Y-11661571D01*
X12570143Y-11699667D01*
X12570143Y-11747286D01*
X12560619Y-11785381D01*
X12551095Y-11804428D01*
X12541571Y-11813952D01*
X12522524Y-11823476D01*
X12503476Y-11823476D01*
X12484428Y-11813952D01*
X12474905Y-11804428D01*
X12465381Y-11785381D01*
X12455857Y-11747286D01*
X12455857Y-11699667D01*
X12465381Y-11661571D01*
X12474905Y-11642524D01*
X12484428Y-11633000D01*
X12503476Y-11623476D01*
X12655857Y-11804428D02*
X12665381Y-11813952D01*
X12655857Y-11823476D01*
X12646333Y-11813952D01*
X12655857Y-11804428D01*
X12655857Y-11823476D01*
X12789190Y-11623476D02*
X12808238Y-11623476D01*
X12827286Y-11633000D01*
X12836809Y-11642524D01*
X12846333Y-11661571D01*
X12855857Y-11699667D01*
X12855857Y-11747286D01*
X12846333Y-11785381D01*
X12836809Y-11804428D01*
X12827286Y-11813952D01*
X12808238Y-11823476D01*
X12789190Y-11823476D01*
X12770143Y-11813952D01*
X12760619Y-11804428D01*
X12751095Y-11785381D01*
X12741571Y-11747286D01*
X12741571Y-11699667D01*
X12751095Y-11661571D01*
X12760619Y-11642524D01*
X12770143Y-11633000D01*
X12789190Y-11623476D01*
X12932048Y-11642524D02*
X12941571Y-11633000D01*
X12960619Y-11623476D01*
X13008238Y-11623476D01*
X13027286Y-11633000D01*
X13036809Y-11642524D01*
X13046333Y-11661571D01*
X13046333Y-11680619D01*
X13036809Y-11709190D01*
X12922524Y-11823476D01*
X13046333Y-11823476D01*
X13113000Y-11623476D02*
X13246333Y-11623476D01*
X13160619Y-11823476D01*
X13408238Y-11623476D02*
X13370143Y-11623476D01*
X13351095Y-11633000D01*
X13341571Y-11642524D01*
X13322524Y-11671095D01*
X13313000Y-11709190D01*
X13313000Y-11785381D01*
X13322524Y-11804428D01*
X13332048Y-11813952D01*
X13351095Y-11823476D01*
X13389190Y-11823476D01*
X13408238Y-11813952D01*
X13417762Y-11804428D01*
X13427286Y-11785381D01*
X13427286Y-11737762D01*
X13417762Y-11718714D01*
X13408238Y-11709190D01*
X13389190Y-11699667D01*
X13351095Y-11699667D01*
X13332048Y-11709190D01*
X13322524Y-11718714D01*
X13313000Y-11737762D01*
X13503476Y-11623476D02*
X13503476Y-11661571D01*
X13579667Y-11623476D02*
X13579667Y-11661571D01*
X13874905Y-11899667D02*
X13865381Y-11890143D01*
X13846333Y-11861571D01*
X13836809Y-11842524D01*
X13827286Y-11813952D01*
X13817762Y-11766333D01*
X13817762Y-11728238D01*
X13827286Y-11680619D01*
X13836809Y-11652048D01*
X13846333Y-11633000D01*
X13865381Y-11604428D01*
X13874905Y-11594905D01*
X14055857Y-11823476D02*
X13941571Y-11823476D01*
X13998714Y-11823476D02*
X13998714Y-11623476D01*
X13979667Y-11652048D01*
X13960619Y-11671095D01*
X13941571Y-11680619D01*
X14132048Y-11642524D02*
X14141571Y-11633000D01*
X14160619Y-11623476D01*
X14208238Y-11623476D01*
X14227286Y-11633000D01*
X14236809Y-11642524D01*
X14246333Y-11661571D01*
X14246333Y-11680619D01*
X14236809Y-11709190D01*
X14122524Y-11823476D01*
X14246333Y-11823476D01*
X14484428Y-11823476D02*
X14484428Y-11623476D01*
X14570143Y-11823476D02*
X14570143Y-11718714D01*
X14560619Y-11699667D01*
X14541571Y-11690143D01*
X14513000Y-11690143D01*
X14493952Y-11699667D01*
X14484428Y-11709190D01*
X14693952Y-11823476D02*
X14674905Y-11813952D01*
X14665381Y-11804428D01*
X14655857Y-11785381D01*
X14655857Y-11728238D01*
X14665381Y-11709190D01*
X14674905Y-11699667D01*
X14693952Y-11690143D01*
X14722524Y-11690143D01*
X14741571Y-11699667D01*
X14751095Y-11709190D01*
X14760619Y-11728238D01*
X14760619Y-11785381D01*
X14751095Y-11804428D01*
X14741571Y-11813952D01*
X14722524Y-11823476D01*
X14693952Y-11823476D01*
X14874905Y-11823476D02*
X14855857Y-11813952D01*
X14846333Y-11794905D01*
X14846333Y-11623476D01*
X15027286Y-11813952D02*
X15008238Y-11823476D01*
X14970143Y-11823476D01*
X14951095Y-11813952D01*
X14941571Y-11794905D01*
X14941571Y-11718714D01*
X14951095Y-11699667D01*
X14970143Y-11690143D01*
X15008238Y-11690143D01*
X15027286Y-11699667D01*
X15036809Y-11718714D01*
X15036809Y-11737762D01*
X14941571Y-11756809D01*
X15113000Y-11813952D02*
X15132048Y-11823476D01*
X15170143Y-11823476D01*
X15189190Y-11813952D01*
X15198714Y-11794905D01*
X15198714Y-11785381D01*
X15189190Y-11766333D01*
X15170143Y-11756809D01*
X15141571Y-11756809D01*
X15122524Y-11747286D01*
X15113000Y-11728238D01*
X15113000Y-11718714D01*
X15122524Y-11699667D01*
X15141571Y-11690143D01*
X15170143Y-11690143D01*
X15189190Y-11699667D01*
X15265381Y-11899667D02*
X15274905Y-11890143D01*
X15293952Y-11861571D01*
X15303476Y-11842524D01*
X15313000Y-11813952D01*
X15322524Y-11766333D01*
X15322524Y-11728238D01*
X15313000Y-11680619D01*
X15303476Y-11652048D01*
X15293952Y-11633000D01*
X15274905Y-11604428D01*
X15265381Y-11594905D01*
D14*
X10303000Y-11997000D02*
G75*
G03*
X10303000Y-11997000I-45000J0D01*
G01*
D12*
X10598714Y-11887476D02*
X10617762Y-11887476D01*
X10636810Y-11897000D01*
X10646333Y-11906524D01*
X10655857Y-11925571D01*
X10665381Y-11963667D01*
X10665381Y-12011286D01*
X10655857Y-12049381D01*
X10646333Y-12068428D01*
X10636810Y-12077952D01*
X10617762Y-12087476D01*
X10598714Y-12087476D01*
X10579667Y-12077952D01*
X10570143Y-12068428D01*
X10560619Y-12049381D01*
X10551095Y-12011286D01*
X10551095Y-11963667D01*
X10560619Y-11925571D01*
X10570143Y-11906524D01*
X10579667Y-11897000D01*
X10598714Y-11887476D01*
X10751095Y-12068428D02*
X10760619Y-12077952D01*
X10751095Y-12087476D01*
X10741571Y-12077952D01*
X10751095Y-12068428D01*
X10751095Y-12087476D01*
X10855857Y-12087476D02*
X10893952Y-12087476D01*
X10913000Y-12077952D01*
X10922524Y-12068428D01*
X10941571Y-12039857D01*
X10951095Y-12001762D01*
X10951095Y-11925571D01*
X10941571Y-11906524D01*
X10932048Y-11897000D01*
X10913000Y-11887476D01*
X10874905Y-11887476D01*
X10855857Y-11897000D01*
X10846333Y-11906524D01*
X10836810Y-11925571D01*
X10836810Y-11973190D01*
X10846333Y-11992238D01*
X10855857Y-12001762D01*
X10874905Y-12011286D01*
X10913000Y-12011286D01*
X10932048Y-12001762D01*
X10941571Y-11992238D01*
X10951095Y-11973190D01*
X11074905Y-11887476D02*
X11093952Y-11887476D01*
X11113000Y-11897000D01*
X11122524Y-11906524D01*
X11132048Y-11925571D01*
X11141571Y-11963667D01*
X11141571Y-12011286D01*
X11132048Y-12049381D01*
X11122524Y-12068428D01*
X11113000Y-12077952D01*
X11093952Y-12087476D01*
X11074905Y-12087476D01*
X11055857Y-12077952D01*
X11046333Y-12068428D01*
X11036810Y-12049381D01*
X11027286Y-12011286D01*
X11027286Y-11963667D01*
X11036810Y-11925571D01*
X11046333Y-11906524D01*
X11055857Y-11897000D01*
X11074905Y-11887476D01*
X11265381Y-11887476D02*
X11284428Y-11887476D01*
X11303476Y-11897000D01*
X11313000Y-11906524D01*
X11322524Y-11925571D01*
X11332048Y-11963667D01*
X11332048Y-12011286D01*
X11322524Y-12049381D01*
X11313000Y-12068428D01*
X11303476Y-12077952D01*
X11284428Y-12087476D01*
X11265381Y-12087476D01*
X11246333Y-12077952D01*
X11236809Y-12068428D01*
X11227286Y-12049381D01*
X11217762Y-12011286D01*
X11217762Y-11963667D01*
X11227286Y-11925571D01*
X11236809Y-11906524D01*
X11246333Y-11897000D01*
X11265381Y-11887476D01*
X11417762Y-12087476D02*
X11417762Y-11954143D01*
X11417762Y-11973190D02*
X11427286Y-11963667D01*
X11446333Y-11954143D01*
X11474905Y-11954143D01*
X11493952Y-11963667D01*
X11503476Y-11982714D01*
X11503476Y-12087476D01*
X11503476Y-11982714D02*
X11513000Y-11963667D01*
X11532048Y-11954143D01*
X11560619Y-11954143D01*
X11579667Y-11963667D01*
X11589190Y-11982714D01*
X11589190Y-12087476D01*
X11684428Y-12087476D02*
X11684428Y-11954143D01*
X11684428Y-11973190D02*
X11693952Y-11963667D01*
X11713000Y-11954143D01*
X11741571Y-11954143D01*
X11760619Y-11963667D01*
X11770143Y-11982714D01*
X11770143Y-12087476D01*
X11770143Y-11982714D02*
X11779667Y-11963667D01*
X11798714Y-11954143D01*
X11827286Y-11954143D01*
X11846333Y-11963667D01*
X11855857Y-11982714D01*
X11855857Y-12087476D01*
X12246333Y-11877952D02*
X12074905Y-12135095D01*
X12503476Y-11887476D02*
X12522524Y-11887476D01*
X12541571Y-11897000D01*
X12551095Y-11906524D01*
X12560619Y-11925571D01*
X12570143Y-11963667D01*
X12570143Y-12011286D01*
X12560619Y-12049381D01*
X12551095Y-12068428D01*
X12541571Y-12077952D01*
X12522524Y-12087476D01*
X12503476Y-12087476D01*
X12484428Y-12077952D01*
X12474905Y-12068428D01*
X12465381Y-12049381D01*
X12455857Y-12011286D01*
X12455857Y-11963667D01*
X12465381Y-11925571D01*
X12474905Y-11906524D01*
X12484428Y-11897000D01*
X12503476Y-11887476D01*
X12655857Y-12068428D02*
X12665381Y-12077952D01*
X12655857Y-12087476D01*
X12646333Y-12077952D01*
X12655857Y-12068428D01*
X12655857Y-12087476D01*
X12789190Y-11887476D02*
X12808238Y-11887476D01*
X12827286Y-11897000D01*
X12836809Y-11906524D01*
X12846333Y-11925571D01*
X12855857Y-11963667D01*
X12855857Y-12011286D01*
X12846333Y-12049381D01*
X12836809Y-12068428D01*
X12827286Y-12077952D01*
X12808238Y-12087476D01*
X12789190Y-12087476D01*
X12770143Y-12077952D01*
X12760619Y-12068428D01*
X12751095Y-12049381D01*
X12741571Y-12011286D01*
X12741571Y-11963667D01*
X12751095Y-11925571D01*
X12760619Y-11906524D01*
X12770143Y-11897000D01*
X12789190Y-11887476D01*
X12922524Y-11887476D02*
X13046333Y-11887476D01*
X12979667Y-11963667D01*
X13008238Y-11963667D01*
X13027286Y-11973190D01*
X13036809Y-11982714D01*
X13046333Y-12001762D01*
X13046333Y-12049381D01*
X13036809Y-12068428D01*
X13027286Y-12077952D01*
X13008238Y-12087476D01*
X12951095Y-12087476D01*
X12932048Y-12077952D01*
X12922524Y-12068428D01*
X13227286Y-11887476D02*
X13132048Y-11887476D01*
X13122524Y-11982714D01*
X13132048Y-11973190D01*
X13151095Y-11963667D01*
X13198714Y-11963667D01*
X13217762Y-11973190D01*
X13227286Y-11982714D01*
X13236809Y-12001762D01*
X13236809Y-12049381D01*
X13227286Y-12068428D01*
X13217762Y-12077952D01*
X13198714Y-12087476D01*
X13151095Y-12087476D01*
X13132048Y-12077952D01*
X13122524Y-12068428D01*
X13408238Y-11954143D02*
X13408238Y-12087476D01*
X13360619Y-11877952D02*
X13313000Y-12020809D01*
X13436809Y-12020809D01*
X13503476Y-11887476D02*
X13503476Y-11925571D01*
X13579667Y-11887476D02*
X13579667Y-11925571D01*
X13874905Y-12163667D02*
X13865381Y-12154143D01*
X13846333Y-12125571D01*
X13836809Y-12106524D01*
X13827286Y-12077952D01*
X13817762Y-12030333D01*
X13817762Y-11992238D01*
X13827286Y-11944619D01*
X13836809Y-11916048D01*
X13846333Y-11897000D01*
X13865381Y-11868428D01*
X13874905Y-11858905D01*
X14036809Y-11954143D02*
X14036809Y-12087476D01*
X13989190Y-11877952D02*
X13941571Y-12020809D01*
X14065381Y-12020809D01*
X14293952Y-12087476D02*
X14293952Y-11887476D01*
X14379667Y-12087476D02*
X14379667Y-11982714D01*
X14370143Y-11963667D01*
X14351095Y-11954143D01*
X14322524Y-11954143D01*
X14303476Y-11963667D01*
X14293952Y-11973190D01*
X14503476Y-12087476D02*
X14484428Y-12077952D01*
X14474905Y-12068428D01*
X14465381Y-12049381D01*
X14465381Y-11992238D01*
X14474905Y-11973190D01*
X14484428Y-11963667D01*
X14503476Y-11954143D01*
X14532048Y-11954143D01*
X14551095Y-11963667D01*
X14560619Y-11973190D01*
X14570143Y-11992238D01*
X14570143Y-12049381D01*
X14560619Y-12068428D01*
X14551095Y-12077952D01*
X14532048Y-12087476D01*
X14503476Y-12087476D01*
X14684428Y-12087476D02*
X14665381Y-12077952D01*
X14655857Y-12058905D01*
X14655857Y-11887476D01*
X14836809Y-12077952D02*
X14817762Y-12087476D01*
X14779667Y-12087476D01*
X14760619Y-12077952D01*
X14751095Y-12058905D01*
X14751095Y-11982714D01*
X14760619Y-11963667D01*
X14779667Y-11954143D01*
X14817762Y-11954143D01*
X14836809Y-11963667D01*
X14846333Y-11982714D01*
X14846333Y-12001762D01*
X14751095Y-12020809D01*
X14922524Y-12077952D02*
X14941571Y-12087476D01*
X14979667Y-12087476D01*
X14998714Y-12077952D01*
X15008238Y-12058905D01*
X15008238Y-12049381D01*
X14998714Y-12030333D01*
X14979667Y-12020809D01*
X14951095Y-12020809D01*
X14932048Y-12011286D01*
X14922524Y-11992238D01*
X14922524Y-11982714D01*
X14932048Y-11963667D01*
X14951095Y-11954143D01*
X14979667Y-11954143D01*
X14998714Y-11963667D01*
X15074905Y-12163667D02*
X15084428Y-12154143D01*
X15103476Y-12125571D01*
X15113000Y-12106524D01*
X15122524Y-12077952D01*
X15132048Y-12030333D01*
X15132048Y-11992238D01*
X15122524Y-11944619D01*
X15113000Y-11916048D01*
X15103476Y-11897000D01*
X15084428Y-11868428D01*
X15074905Y-11858905D01*
D11*
X10253000Y-12211000D02*
X10253000Y-12311000D01*
X10203000Y-12261000D02*
X10303000Y-12261000D01*
D12*
X10665381Y-12351476D02*
X10551095Y-12351476D01*
X10608238Y-12351476D02*
X10608238Y-12151476D01*
X10589190Y-12180048D01*
X10570143Y-12199095D01*
X10551095Y-12208619D01*
X10751095Y-12332428D02*
X10760619Y-12341952D01*
X10751095Y-12351476D01*
X10741571Y-12341952D01*
X10751095Y-12332428D01*
X10751095Y-12351476D01*
X10884429Y-12151476D02*
X10903476Y-12151476D01*
X10922524Y-12161000D01*
X10932048Y-12170524D01*
X10941571Y-12189571D01*
X10951095Y-12227667D01*
X10951095Y-12275286D01*
X10941571Y-12313381D01*
X10932048Y-12332428D01*
X10922524Y-12341952D01*
X10903476Y-12351476D01*
X10884429Y-12351476D01*
X10865381Y-12341952D01*
X10855857Y-12332428D01*
X10846333Y-12313381D01*
X10836810Y-12275286D01*
X10836810Y-12227667D01*
X10846333Y-12189571D01*
X10855857Y-12170524D01*
X10865381Y-12161000D01*
X10884429Y-12151476D01*
X11074905Y-12151476D02*
X11093952Y-12151476D01*
X11113000Y-12161000D01*
X11122524Y-12170524D01*
X11132048Y-12189571D01*
X11141571Y-12227667D01*
X11141571Y-12275286D01*
X11132048Y-12313381D01*
X11122524Y-12332428D01*
X11113000Y-12341952D01*
X11093952Y-12351476D01*
X11074905Y-12351476D01*
X11055857Y-12341952D01*
X11046333Y-12332428D01*
X11036810Y-12313381D01*
X11027286Y-12275286D01*
X11027286Y-12227667D01*
X11036810Y-12189571D01*
X11046333Y-12170524D01*
X11055857Y-12161000D01*
X11074905Y-12151476D01*
X11265381Y-12151476D02*
X11284428Y-12151476D01*
X11303476Y-12161000D01*
X11313000Y-12170524D01*
X11322524Y-12189571D01*
X11332048Y-12227667D01*
X11332048Y-12275286D01*
X11322524Y-12313381D01*
X11313000Y-12332428D01*
X11303476Y-12341952D01*
X11284428Y-12351476D01*
X11265381Y-12351476D01*
X11246333Y-12341952D01*
X11236809Y-12332428D01*
X11227286Y-12313381D01*
X11217762Y-12275286D01*
X11217762Y-12227667D01*
X11227286Y-12189571D01*
X11236809Y-12170524D01*
X11246333Y-12161000D01*
X11265381Y-12151476D01*
X11417762Y-12351476D02*
X11417762Y-12218143D01*
X11417762Y-12237190D02*
X11427286Y-12227667D01*
X11446333Y-12218143D01*
X11474905Y-12218143D01*
X11493952Y-12227667D01*
X11503476Y-12246714D01*
X11503476Y-12351476D01*
X11503476Y-12246714D02*
X11513000Y-12227667D01*
X11532048Y-12218143D01*
X11560619Y-12218143D01*
X11579667Y-12227667D01*
X11589190Y-12246714D01*
X11589190Y-12351476D01*
X11684428Y-12351476D02*
X11684428Y-12218143D01*
X11684428Y-12237190D02*
X11693952Y-12227667D01*
X11713000Y-12218143D01*
X11741571Y-12218143D01*
X11760619Y-12227667D01*
X11770143Y-12246714D01*
X11770143Y-12351476D01*
X11770143Y-12246714D02*
X11779667Y-12227667D01*
X11798714Y-12218143D01*
X11827286Y-12218143D01*
X11846333Y-12227667D01*
X11855857Y-12246714D01*
X11855857Y-12351476D01*
X12246333Y-12141952D02*
X12074905Y-12399095D01*
X12503476Y-12151476D02*
X12522524Y-12151476D01*
X12541571Y-12161000D01*
X12551095Y-12170524D01*
X12560619Y-12189571D01*
X12570143Y-12227667D01*
X12570143Y-12275286D01*
X12560619Y-12313381D01*
X12551095Y-12332428D01*
X12541571Y-12341952D01*
X12522524Y-12351476D01*
X12503476Y-12351476D01*
X12484428Y-12341952D01*
X12474905Y-12332428D01*
X12465381Y-12313381D01*
X12455857Y-12275286D01*
X12455857Y-12227667D01*
X12465381Y-12189571D01*
X12474905Y-12170524D01*
X12484428Y-12161000D01*
X12503476Y-12151476D01*
X12655857Y-12332428D02*
X12665381Y-12341952D01*
X12655857Y-12351476D01*
X12646333Y-12341952D01*
X12655857Y-12332428D01*
X12655857Y-12351476D01*
X12789190Y-12151476D02*
X12808238Y-12151476D01*
X12827286Y-12161000D01*
X12836809Y-12170524D01*
X12846333Y-12189571D01*
X12855857Y-12227667D01*
X12855857Y-12275286D01*
X12846333Y-12313381D01*
X12836809Y-12332428D01*
X12827286Y-12341952D01*
X12808238Y-12351476D01*
X12789190Y-12351476D01*
X12770143Y-12341952D01*
X12760619Y-12332428D01*
X12751095Y-12313381D01*
X12741571Y-12275286D01*
X12741571Y-12227667D01*
X12751095Y-12189571D01*
X12760619Y-12170524D01*
X12770143Y-12161000D01*
X12789190Y-12151476D01*
X12922524Y-12151476D02*
X13046333Y-12151476D01*
X12979667Y-12227667D01*
X13008238Y-12227667D01*
X13027286Y-12237190D01*
X13036809Y-12246714D01*
X13046333Y-12265762D01*
X13046333Y-12313381D01*
X13036809Y-12332428D01*
X13027286Y-12341952D01*
X13008238Y-12351476D01*
X12951095Y-12351476D01*
X12932048Y-12341952D01*
X12922524Y-12332428D01*
X13141571Y-12351476D02*
X13179667Y-12351476D01*
X13198714Y-12341952D01*
X13208238Y-12332428D01*
X13227286Y-12303857D01*
X13236809Y-12265762D01*
X13236809Y-12189571D01*
X13227286Y-12170524D01*
X13217762Y-12161000D01*
X13198714Y-12151476D01*
X13160619Y-12151476D01*
X13141571Y-12161000D01*
X13132048Y-12170524D01*
X13122524Y-12189571D01*
X13122524Y-12237190D01*
X13132048Y-12256238D01*
X13141571Y-12265762D01*
X13160619Y-12275286D01*
X13198714Y-12275286D01*
X13217762Y-12265762D01*
X13227286Y-12256238D01*
X13236809Y-12237190D01*
X13408238Y-12218143D02*
X13408238Y-12351476D01*
X13360619Y-12141952D02*
X13313000Y-12284809D01*
X13436809Y-12284809D01*
X13503476Y-12151476D02*
X13503476Y-12189571D01*
X13579667Y-12151476D02*
X13579667Y-12189571D01*
X13874905Y-12427667D02*
X13865381Y-12418143D01*
X13846333Y-12389571D01*
X13836809Y-12370524D01*
X13827286Y-12341952D01*
X13817762Y-12294333D01*
X13817762Y-12256238D01*
X13827286Y-12208619D01*
X13836809Y-12180048D01*
X13846333Y-12161000D01*
X13865381Y-12132428D01*
X13874905Y-12122905D01*
X14036809Y-12218143D02*
X14036809Y-12351476D01*
X13989190Y-12141952D02*
X13941571Y-12284809D01*
X14065381Y-12284809D01*
X14236809Y-12151476D02*
X14141571Y-12151476D01*
X14132048Y-12246714D01*
X14141571Y-12237190D01*
X14160619Y-12227667D01*
X14208238Y-12227667D01*
X14227286Y-12237190D01*
X14236809Y-12246714D01*
X14246333Y-12265762D01*
X14246333Y-12313381D01*
X14236809Y-12332428D01*
X14227286Y-12341952D01*
X14208238Y-12351476D01*
X14160619Y-12351476D01*
X14141571Y-12341952D01*
X14132048Y-12332428D01*
X14484428Y-12351476D02*
X14484428Y-12151476D01*
X14570143Y-12351476D02*
X14570143Y-12246714D01*
X14560619Y-12227667D01*
X14541571Y-12218143D01*
X14513000Y-12218143D01*
X14493952Y-12227667D01*
X14484428Y-12237190D01*
X14693952Y-12351476D02*
X14674905Y-12341952D01*
X14665381Y-12332428D01*
X14655857Y-12313381D01*
X14655857Y-12256238D01*
X14665381Y-12237190D01*
X14674905Y-12227667D01*
X14693952Y-12218143D01*
X14722524Y-12218143D01*
X14741571Y-12227667D01*
X14751095Y-12237190D01*
X14760619Y-12256238D01*
X14760619Y-12313381D01*
X14751095Y-12332428D01*
X14741571Y-12341952D01*
X14722524Y-12351476D01*
X14693952Y-12351476D01*
X14874905Y-12351476D02*
X14855857Y-12341952D01*
X14846333Y-12322905D01*
X14846333Y-12151476D01*
X15027286Y-12341952D02*
X15008238Y-12351476D01*
X14970143Y-12351476D01*
X14951095Y-12341952D01*
X14941571Y-12322905D01*
X14941571Y-12246714D01*
X14951095Y-12227667D01*
X14970143Y-12218143D01*
X15008238Y-12218143D01*
X15027286Y-12227667D01*
X15036809Y-12246714D01*
X15036809Y-12265762D01*
X14941571Y-12284809D01*
X15113000Y-12341952D02*
X15132048Y-12351476D01*
X15170143Y-12351476D01*
X15189190Y-12341952D01*
X15198714Y-12322905D01*
X15198714Y-12313381D01*
X15189190Y-12294333D01*
X15170143Y-12284809D01*
X15141571Y-12284809D01*
X15122524Y-12275286D01*
X15113000Y-12256238D01*
X15113000Y-12246714D01*
X15122524Y-12227667D01*
X15141571Y-12218143D01*
X15170143Y-12218143D01*
X15189190Y-12227667D01*
X15265381Y-12427667D02*
X15274905Y-12418143D01*
X15293952Y-12389571D01*
X15303476Y-12370524D01*
X15313000Y-12341952D01*
X15322524Y-12294333D01*
X15322524Y-12256238D01*
X15313000Y-12208619D01*
X15303476Y-12180048D01*
X15293952Y-12161000D01*
X15274905Y-12132428D01*
X15265381Y-12122905D01*
D15*
X10283962Y-12570962D02*
X10283962Y-12479038D01*
X10192038Y-12479038D01*
X10192038Y-12570962D01*
X10283962Y-12570962D01*
D12*
X10665381Y-12615476D02*
X10551095Y-12615476D01*
X10608238Y-12615476D02*
X10608238Y-12415476D01*
X10589190Y-12444048D01*
X10570143Y-12463095D01*
X10551095Y-12472619D01*
X10751095Y-12596428D02*
X10760619Y-12605952D01*
X10751095Y-12615476D01*
X10741571Y-12605952D01*
X10751095Y-12596428D01*
X10751095Y-12615476D01*
X10827286Y-12415476D02*
X10951095Y-12415476D01*
X10884429Y-12491667D01*
X10913000Y-12491667D01*
X10932048Y-12501190D01*
X10941571Y-12510714D01*
X10951095Y-12529762D01*
X10951095Y-12577381D01*
X10941571Y-12596428D01*
X10932048Y-12605952D01*
X10913000Y-12615476D01*
X10855857Y-12615476D01*
X10836810Y-12605952D01*
X10827286Y-12596428D01*
X11074905Y-12415476D02*
X11093952Y-12415476D01*
X11113000Y-12425000D01*
X11122524Y-12434524D01*
X11132048Y-12453571D01*
X11141571Y-12491667D01*
X11141571Y-12539286D01*
X11132048Y-12577381D01*
X11122524Y-12596428D01*
X11113000Y-12605952D01*
X11093952Y-12615476D01*
X11074905Y-12615476D01*
X11055857Y-12605952D01*
X11046333Y-12596428D01*
X11036810Y-12577381D01*
X11027286Y-12539286D01*
X11027286Y-12491667D01*
X11036810Y-12453571D01*
X11046333Y-12434524D01*
X11055857Y-12425000D01*
X11074905Y-12415476D01*
X11265381Y-12415476D02*
X11284428Y-12415476D01*
X11303476Y-12425000D01*
X11313000Y-12434524D01*
X11322524Y-12453571D01*
X11332048Y-12491667D01*
X11332048Y-12539286D01*
X11322524Y-12577381D01*
X11313000Y-12596428D01*
X11303476Y-12605952D01*
X11284428Y-12615476D01*
X11265381Y-12615476D01*
X11246333Y-12605952D01*
X11236809Y-12596428D01*
X11227286Y-12577381D01*
X11217762Y-12539286D01*
X11217762Y-12491667D01*
X11227286Y-12453571D01*
X11236809Y-12434524D01*
X11246333Y-12425000D01*
X11265381Y-12415476D01*
X11417762Y-12615476D02*
X11417762Y-12482143D01*
X11417762Y-12501190D02*
X11427286Y-12491667D01*
X11446333Y-12482143D01*
X11474905Y-12482143D01*
X11493952Y-12491667D01*
X11503476Y-12510714D01*
X11503476Y-12615476D01*
X11503476Y-12510714D02*
X11513000Y-12491667D01*
X11532048Y-12482143D01*
X11560619Y-12482143D01*
X11579667Y-12491667D01*
X11589190Y-12510714D01*
X11589190Y-12615476D01*
X11684428Y-12615476D02*
X11684428Y-12482143D01*
X11684428Y-12501190D02*
X11693952Y-12491667D01*
X11713000Y-12482143D01*
X11741571Y-12482143D01*
X11760619Y-12491667D01*
X11770143Y-12510714D01*
X11770143Y-12615476D01*
X11770143Y-12510714D02*
X11779667Y-12491667D01*
X11798714Y-12482143D01*
X11827286Y-12482143D01*
X11846333Y-12491667D01*
X11855857Y-12510714D01*
X11855857Y-12615476D01*
X12246333Y-12405952D02*
X12074905Y-12663095D01*
X12503476Y-12415476D02*
X12522524Y-12415476D01*
X12541571Y-12425000D01*
X12551095Y-12434524D01*
X12560619Y-12453571D01*
X12570143Y-12491667D01*
X12570143Y-12539286D01*
X12560619Y-12577381D01*
X12551095Y-12596428D01*
X12541571Y-12605952D01*
X12522524Y-12615476D01*
X12503476Y-12615476D01*
X12484428Y-12605952D01*
X12474905Y-12596428D01*
X12465381Y-12577381D01*
X12455857Y-12539286D01*
X12455857Y-12491667D01*
X12465381Y-12453571D01*
X12474905Y-12434524D01*
X12484428Y-12425000D01*
X12503476Y-12415476D01*
X12655857Y-12596428D02*
X12665381Y-12605952D01*
X12655857Y-12615476D01*
X12646333Y-12605952D01*
X12655857Y-12596428D01*
X12655857Y-12615476D01*
X12789190Y-12415476D02*
X12808238Y-12415476D01*
X12827286Y-12425000D01*
X12836809Y-12434524D01*
X12846333Y-12453571D01*
X12855857Y-12491667D01*
X12855857Y-12539286D01*
X12846333Y-12577381D01*
X12836809Y-12596428D01*
X12827286Y-12605952D01*
X12808238Y-12615476D01*
X12789190Y-12615476D01*
X12770143Y-12605952D01*
X12760619Y-12596428D01*
X12751095Y-12577381D01*
X12741571Y-12539286D01*
X12741571Y-12491667D01*
X12751095Y-12453571D01*
X12760619Y-12434524D01*
X12770143Y-12425000D01*
X12789190Y-12415476D01*
X13036809Y-12415476D02*
X12941571Y-12415476D01*
X12932048Y-12510714D01*
X12941571Y-12501190D01*
X12960619Y-12491667D01*
X13008238Y-12491667D01*
X13027286Y-12501190D01*
X13036809Y-12510714D01*
X13046333Y-12529762D01*
X13046333Y-12577381D01*
X13036809Y-12596428D01*
X13027286Y-12605952D01*
X13008238Y-12615476D01*
X12960619Y-12615476D01*
X12941571Y-12605952D01*
X12932048Y-12596428D01*
X13236809Y-12615476D02*
X13122524Y-12615476D01*
X13179667Y-12615476D02*
X13179667Y-12415476D01*
X13160619Y-12444048D01*
X13141571Y-12463095D01*
X13122524Y-12472619D01*
X13313000Y-12434524D02*
X13322524Y-12425000D01*
X13341571Y-12415476D01*
X13389190Y-12415476D01*
X13408238Y-12425000D01*
X13417762Y-12434524D01*
X13427286Y-12453571D01*
X13427286Y-12472619D01*
X13417762Y-12501190D01*
X13303476Y-12615476D01*
X13427286Y-12615476D01*
X13503476Y-12415476D02*
X13503476Y-12453571D01*
X13579667Y-12415476D02*
X13579667Y-12453571D01*
X13874905Y-12691667D02*
X13865381Y-12682143D01*
X13846333Y-12653571D01*
X13836809Y-12634524D01*
X13827286Y-12605952D01*
X13817762Y-12558333D01*
X13817762Y-12520238D01*
X13827286Y-12472619D01*
X13836809Y-12444048D01*
X13846333Y-12425000D01*
X13865381Y-12396428D01*
X13874905Y-12386905D01*
X13941571Y-12434524D02*
X13951095Y-12425000D01*
X13970143Y-12415476D01*
X14017762Y-12415476D01*
X14036809Y-12425000D01*
X14046333Y-12434524D01*
X14055857Y-12453571D01*
X14055857Y-12472619D01*
X14046333Y-12501190D01*
X13932048Y-12615476D01*
X14055857Y-12615476D01*
X14246333Y-12615476D02*
X14132048Y-12615476D01*
X14189190Y-12615476D02*
X14189190Y-12415476D01*
X14170143Y-12444048D01*
X14151095Y-12463095D01*
X14132048Y-12472619D01*
X14484428Y-12615476D02*
X14484428Y-12415476D01*
X14570143Y-12615476D02*
X14570143Y-12510714D01*
X14560619Y-12491667D01*
X14541571Y-12482143D01*
X14513000Y-12482143D01*
X14493952Y-12491667D01*
X14484428Y-12501190D01*
X14693952Y-12615476D02*
X14674905Y-12605952D01*
X14665381Y-12596428D01*
X14655857Y-12577381D01*
X14655857Y-12520238D01*
X14665381Y-12501190D01*
X14674905Y-12491667D01*
X14693952Y-12482143D01*
X14722524Y-12482143D01*
X14741571Y-12491667D01*
X14751095Y-12501190D01*
X14760619Y-12520238D01*
X14760619Y-12577381D01*
X14751095Y-12596428D01*
X14741571Y-12605952D01*
X14722524Y-12615476D01*
X14693952Y-12615476D01*
X14874905Y-12615476D02*
X14855857Y-12605952D01*
X14846333Y-12586905D01*
X14846333Y-12415476D01*
X15027286Y-12605952D02*
X15008238Y-12615476D01*
X14970143Y-12615476D01*
X14951095Y-12605952D01*
X14941571Y-12586905D01*
X14941571Y-12510714D01*
X14951095Y-12491667D01*
X14970143Y-12482143D01*
X15008238Y-12482143D01*
X15027286Y-12491667D01*
X15036809Y-12510714D01*
X15036809Y-12529762D01*
X14941571Y-12548809D01*
X15113000Y-12605952D02*
X15132048Y-12615476D01*
X15170143Y-12615476D01*
X15189190Y-12605952D01*
X15198714Y-12586905D01*
X15198714Y-12577381D01*
X15189190Y-12558333D01*
X15170143Y-12548809D01*
X15141571Y-12548809D01*
X15122524Y-12539286D01*
X15113000Y-12520238D01*
X15113000Y-12510714D01*
X15122524Y-12491667D01*
X15141571Y-12482143D01*
X15170143Y-12482143D01*
X15189190Y-12491667D01*
X15265381Y-12691667D02*
X15274905Y-12682143D01*
X15293952Y-12653571D01*
X15303476Y-12634524D01*
X15313000Y-12605952D01*
X15322524Y-12558333D01*
X15322524Y-12520238D01*
X15313000Y-12472619D01*
X15303476Y-12444048D01*
X15293952Y-12425000D01*
X15274905Y-12396428D01*
X15265381Y-12386905D01*
D16*
X10223000Y-12869000D02*
X10303000Y-12789000D01*
X10223000Y-12709000D01*
X10143000Y-12789000D01*
X10223000Y-12869000D01*
D12*
X10665381Y-12879476D02*
X10551095Y-12879476D01*
X10608238Y-12879476D02*
X10608238Y-12679476D01*
X10589190Y-12708048D01*
X10570143Y-12727095D01*
X10551095Y-12736619D01*
X10751095Y-12860428D02*
X10760619Y-12869952D01*
X10751095Y-12879476D01*
X10741571Y-12869952D01*
X10751095Y-12860428D01*
X10751095Y-12879476D01*
X10932048Y-12679476D02*
X10893952Y-12679476D01*
X10874905Y-12689000D01*
X10865381Y-12698524D01*
X10846333Y-12727095D01*
X10836810Y-12765190D01*
X10836810Y-12841381D01*
X10846333Y-12860428D01*
X10855857Y-12869952D01*
X10874905Y-12879476D01*
X10913000Y-12879476D01*
X10932048Y-12869952D01*
X10941571Y-12860428D01*
X10951095Y-12841381D01*
X10951095Y-12793762D01*
X10941571Y-12774714D01*
X10932048Y-12765190D01*
X10913000Y-12755667D01*
X10874905Y-12755667D01*
X10855857Y-12765190D01*
X10846333Y-12774714D01*
X10836810Y-12793762D01*
X11074905Y-12679476D02*
X11093952Y-12679476D01*
X11113000Y-12689000D01*
X11122524Y-12698524D01*
X11132048Y-12717571D01*
X11141571Y-12755667D01*
X11141571Y-12803286D01*
X11132048Y-12841381D01*
X11122524Y-12860428D01*
X11113000Y-12869952D01*
X11093952Y-12879476D01*
X11074905Y-12879476D01*
X11055857Y-12869952D01*
X11046333Y-12860428D01*
X11036810Y-12841381D01*
X11027286Y-12803286D01*
X11027286Y-12755667D01*
X11036810Y-12717571D01*
X11046333Y-12698524D01*
X11055857Y-12689000D01*
X11074905Y-12679476D01*
X11265381Y-12679476D02*
X11284428Y-12679476D01*
X11303476Y-12689000D01*
X11313000Y-12698524D01*
X11322524Y-12717571D01*
X11332048Y-12755667D01*
X11332048Y-12803286D01*
X11322524Y-12841381D01*
X11313000Y-12860428D01*
X11303476Y-12869952D01*
X11284428Y-12879476D01*
X11265381Y-12879476D01*
X11246333Y-12869952D01*
X11236809Y-12860428D01*
X11227286Y-12841381D01*
X11217762Y-12803286D01*
X11217762Y-12755667D01*
X11227286Y-12717571D01*
X11236809Y-12698524D01*
X11246333Y-12689000D01*
X11265381Y-12679476D01*
X11417762Y-12879476D02*
X11417762Y-12746143D01*
X11417762Y-12765190D02*
X11427286Y-12755667D01*
X11446333Y-12746143D01*
X11474905Y-12746143D01*
X11493952Y-12755667D01*
X11503476Y-12774714D01*
X11503476Y-12879476D01*
X11503476Y-12774714D02*
X11513000Y-12755667D01*
X11532048Y-12746143D01*
X11560619Y-12746143D01*
X11579667Y-12755667D01*
X11589190Y-12774714D01*
X11589190Y-12879476D01*
X11684428Y-12879476D02*
X11684428Y-12746143D01*
X11684428Y-12765190D02*
X11693952Y-12755667D01*
X11713000Y-12746143D01*
X11741571Y-12746143D01*
X11760619Y-12755667D01*
X11770143Y-12774714D01*
X11770143Y-12879476D01*
X11770143Y-12774714D02*
X11779667Y-12755667D01*
X11798714Y-12746143D01*
X11827286Y-12746143D01*
X11846333Y-12755667D01*
X11855857Y-12774714D01*
X11855857Y-12879476D01*
X12246333Y-12669952D02*
X12074905Y-12927095D01*
X12503476Y-12679476D02*
X12522524Y-12679476D01*
X12541571Y-12689000D01*
X12551095Y-12698524D01*
X12560619Y-12717571D01*
X12570143Y-12755667D01*
X12570143Y-12803286D01*
X12560619Y-12841381D01*
X12551095Y-12860428D01*
X12541571Y-12869952D01*
X12522524Y-12879476D01*
X12503476Y-12879476D01*
X12484428Y-12869952D01*
X12474905Y-12860428D01*
X12465381Y-12841381D01*
X12455857Y-12803286D01*
X12455857Y-12755667D01*
X12465381Y-12717571D01*
X12474905Y-12698524D01*
X12484428Y-12689000D01*
X12503476Y-12679476D01*
X12655857Y-12860428D02*
X12665381Y-12869952D01*
X12655857Y-12879476D01*
X12646333Y-12869952D01*
X12655857Y-12860428D01*
X12655857Y-12879476D01*
X12789190Y-12679476D02*
X12808238Y-12679476D01*
X12827286Y-12689000D01*
X12836809Y-12698524D01*
X12846333Y-12717571D01*
X12855857Y-12755667D01*
X12855857Y-12803286D01*
X12846333Y-12841381D01*
X12836809Y-12860428D01*
X12827286Y-12869952D01*
X12808238Y-12879476D01*
X12789190Y-12879476D01*
X12770143Y-12869952D01*
X12760619Y-12860428D01*
X12751095Y-12841381D01*
X12741571Y-12803286D01*
X12741571Y-12755667D01*
X12751095Y-12717571D01*
X12760619Y-12698524D01*
X12770143Y-12689000D01*
X12789190Y-12679476D01*
X13027286Y-12679476D02*
X12989190Y-12679476D01*
X12970143Y-12689000D01*
X12960619Y-12698524D01*
X12941571Y-12727095D01*
X12932048Y-12765190D01*
X12932048Y-12841381D01*
X12941571Y-12860428D01*
X12951095Y-12869952D01*
X12970143Y-12879476D01*
X13008238Y-12879476D01*
X13027286Y-12869952D01*
X13036809Y-12860428D01*
X13046333Y-12841381D01*
X13046333Y-12793762D01*
X13036809Y-12774714D01*
X13027286Y-12765190D01*
X13008238Y-12755667D01*
X12970143Y-12755667D01*
X12951095Y-12765190D01*
X12941571Y-12774714D01*
X12932048Y-12793762D01*
X13113000Y-12679476D02*
X13236809Y-12679476D01*
X13170143Y-12755667D01*
X13198714Y-12755667D01*
X13217762Y-12765190D01*
X13227286Y-12774714D01*
X13236809Y-12793762D01*
X13236809Y-12841381D01*
X13227286Y-12860428D01*
X13217762Y-12869952D01*
X13198714Y-12879476D01*
X13141571Y-12879476D01*
X13122524Y-12869952D01*
X13113000Y-12860428D01*
X13360619Y-12679476D02*
X13379667Y-12679476D01*
X13398714Y-12689000D01*
X13408238Y-12698524D01*
X13417762Y-12717571D01*
X13427286Y-12755667D01*
X13427286Y-12803286D01*
X13417762Y-12841381D01*
X13408238Y-12860428D01*
X13398714Y-12869952D01*
X13379667Y-12879476D01*
X13360619Y-12879476D01*
X13341571Y-12869952D01*
X13332048Y-12860428D01*
X13322524Y-12841381D01*
X13313000Y-12803286D01*
X13313000Y-12755667D01*
X13322524Y-12717571D01*
X13332048Y-12698524D01*
X13341571Y-12689000D01*
X13360619Y-12679476D01*
X13503476Y-12679476D02*
X13503476Y-12717571D01*
X13579667Y-12679476D02*
X13579667Y-12717571D01*
X13874905Y-12955667D02*
X13865381Y-12946143D01*
X13846333Y-12917571D01*
X13836809Y-12898524D01*
X13827286Y-12869952D01*
X13817762Y-12822333D01*
X13817762Y-12784238D01*
X13827286Y-12736619D01*
X13836809Y-12708048D01*
X13846333Y-12689000D01*
X13865381Y-12660428D01*
X13874905Y-12650905D01*
X13941571Y-12698524D02*
X13951095Y-12689000D01*
X13970143Y-12679476D01*
X14017762Y-12679476D01*
X14036809Y-12689000D01*
X14046333Y-12698524D01*
X14055857Y-12717571D01*
X14055857Y-12736619D01*
X14046333Y-12765190D01*
X13932048Y-12879476D01*
X14055857Y-12879476D01*
X14293952Y-12879476D02*
X14293952Y-12679476D01*
X14379667Y-12879476D02*
X14379667Y-12774714D01*
X14370143Y-12755667D01*
X14351095Y-12746143D01*
X14322524Y-12746143D01*
X14303476Y-12755667D01*
X14293952Y-12765190D01*
X14503476Y-12879476D02*
X14484428Y-12869952D01*
X14474905Y-12860428D01*
X14465381Y-12841381D01*
X14465381Y-12784238D01*
X14474905Y-12765190D01*
X14484428Y-12755667D01*
X14503476Y-12746143D01*
X14532048Y-12746143D01*
X14551095Y-12755667D01*
X14560619Y-12765190D01*
X14570143Y-12784238D01*
X14570143Y-12841381D01*
X14560619Y-12860428D01*
X14551095Y-12869952D01*
X14532048Y-12879476D01*
X14503476Y-12879476D01*
X14684428Y-12879476D02*
X14665381Y-12869952D01*
X14655857Y-12850905D01*
X14655857Y-12679476D01*
X14836809Y-12869952D02*
X14817762Y-12879476D01*
X14779667Y-12879476D01*
X14760619Y-12869952D01*
X14751095Y-12850905D01*
X14751095Y-12774714D01*
X14760619Y-12755667D01*
X14779667Y-12746143D01*
X14817762Y-12746143D01*
X14836809Y-12755667D01*
X14846333Y-12774714D01*
X14846333Y-12793762D01*
X14751095Y-12812809D01*
X14922524Y-12869952D02*
X14941571Y-12879476D01*
X14979667Y-12879476D01*
X14998714Y-12869952D01*
X15008238Y-12850905D01*
X15008238Y-12841381D01*
X14998714Y-12822333D01*
X14979667Y-12812809D01*
X14951095Y-12812809D01*
X14932048Y-12803286D01*
X14922524Y-12784238D01*
X14922524Y-12774714D01*
X14932048Y-12755667D01*
X14951095Y-12746143D01*
X14979667Y-12746143D01*
X14998714Y-12755667D01*
X15074905Y-12955667D02*
X15084428Y-12946143D01*
X15103476Y-12917571D01*
X15113000Y-12898524D01*
X15122524Y-12869952D01*
X15132048Y-12822333D01*
X15132048Y-12784238D01*
X15122524Y-12736619D01*
X15113000Y-12708048D01*
X15103476Y-12689000D01*
X15084428Y-12660428D01*
X15074905Y-12650905D01*
X10103000Y-12969000D02*
X10303000Y-13169000D01*
X10303000Y-12969000D02*
X10103000Y-13169000D01*
X10303000Y-13069000D02*
G75*
G03*
X10303000Y-13069000I-100000J0D01*
G01*
X10551095Y-12978524D02*
X10560619Y-12969000D01*
X10579667Y-12959476D01*
X10627286Y-12959476D01*
X10646333Y-12969000D01*
X10655857Y-12978524D01*
X10665381Y-12997571D01*
X10665381Y-13016619D01*
X10655857Y-13045190D01*
X10541571Y-13159476D01*
X10665381Y-13159476D01*
X10751095Y-13140428D02*
X10760619Y-13149952D01*
X10751095Y-13159476D01*
X10741571Y-13149952D01*
X10751095Y-13140428D01*
X10751095Y-13159476D01*
X10941571Y-12959476D02*
X10846333Y-12959476D01*
X10836810Y-13054714D01*
X10846333Y-13045190D01*
X10865381Y-13035667D01*
X10913000Y-13035667D01*
X10932048Y-13045190D01*
X10941571Y-13054714D01*
X10951095Y-13073762D01*
X10951095Y-13121381D01*
X10941571Y-13140428D01*
X10932048Y-13149952D01*
X10913000Y-13159476D01*
X10865381Y-13159476D01*
X10846333Y-13149952D01*
X10836810Y-13140428D01*
X11074905Y-12959476D02*
X11093952Y-12959476D01*
X11113000Y-12969000D01*
X11122524Y-12978524D01*
X11132048Y-12997571D01*
X11141571Y-13035667D01*
X11141571Y-13083286D01*
X11132048Y-13121381D01*
X11122524Y-13140428D01*
X11113000Y-13149952D01*
X11093952Y-13159476D01*
X11074905Y-13159476D01*
X11055857Y-13149952D01*
X11046333Y-13140428D01*
X11036810Y-13121381D01*
X11027286Y-13083286D01*
X11027286Y-13035667D01*
X11036810Y-12997571D01*
X11046333Y-12978524D01*
X11055857Y-12969000D01*
X11074905Y-12959476D01*
X11265381Y-12959476D02*
X11284428Y-12959476D01*
X11303476Y-12969000D01*
X11313000Y-12978524D01*
X11322524Y-12997571D01*
X11332048Y-13035667D01*
X11332048Y-13083286D01*
X11322524Y-13121381D01*
X11313000Y-13140428D01*
X11303476Y-13149952D01*
X11284428Y-13159476D01*
X11265381Y-13159476D01*
X11246333Y-13149952D01*
X11236809Y-13140428D01*
X11227286Y-13121381D01*
X11217762Y-13083286D01*
X11217762Y-13035667D01*
X11227286Y-12997571D01*
X11236809Y-12978524D01*
X11246333Y-12969000D01*
X11265381Y-12959476D01*
X11417762Y-13159476D02*
X11417762Y-13026143D01*
X11417762Y-13045190D02*
X11427286Y-13035667D01*
X11446333Y-13026143D01*
X11474905Y-13026143D01*
X11493952Y-13035667D01*
X11503476Y-13054714D01*
X11503476Y-13159476D01*
X11503476Y-13054714D02*
X11513000Y-13035667D01*
X11532048Y-13026143D01*
X11560619Y-13026143D01*
X11579667Y-13035667D01*
X11589190Y-13054714D01*
X11589190Y-13159476D01*
X11684428Y-13159476D02*
X11684428Y-13026143D01*
X11684428Y-13045190D02*
X11693952Y-13035667D01*
X11713000Y-13026143D01*
X11741571Y-13026143D01*
X11760619Y-13035667D01*
X11770143Y-13054714D01*
X11770143Y-13159476D01*
X11770143Y-13054714D02*
X11779667Y-13035667D01*
X11798714Y-13026143D01*
X11827286Y-13026143D01*
X11846333Y-13035667D01*
X11855857Y-13054714D01*
X11855857Y-13159476D01*
X12246333Y-12949952D02*
X12074905Y-13207095D01*
X12503476Y-12959476D02*
X12522524Y-12959476D01*
X12541571Y-12969000D01*
X12551095Y-12978524D01*
X12560619Y-12997571D01*
X12570143Y-13035667D01*
X12570143Y-13083286D01*
X12560619Y-13121381D01*
X12551095Y-13140428D01*
X12541571Y-13149952D01*
X12522524Y-13159476D01*
X12503476Y-13159476D01*
X12484428Y-13149952D01*
X12474905Y-13140428D01*
X12465381Y-13121381D01*
X12455857Y-13083286D01*
X12455857Y-13035667D01*
X12465381Y-12997571D01*
X12474905Y-12978524D01*
X12484428Y-12969000D01*
X12503476Y-12959476D01*
X12655857Y-13140428D02*
X12665381Y-13149952D01*
X12655857Y-13159476D01*
X12646333Y-13149952D01*
X12655857Y-13140428D01*
X12655857Y-13159476D01*
X12789190Y-12959476D02*
X12808238Y-12959476D01*
X12827286Y-12969000D01*
X12836809Y-12978524D01*
X12846333Y-12997571D01*
X12855857Y-13035667D01*
X12855857Y-13083286D01*
X12846333Y-13121381D01*
X12836809Y-13140428D01*
X12827286Y-13149952D01*
X12808238Y-13159476D01*
X12789190Y-13159476D01*
X12770143Y-13149952D01*
X12760619Y-13140428D01*
X12751095Y-13121381D01*
X12741571Y-13083286D01*
X12741571Y-13035667D01*
X12751095Y-12997571D01*
X12760619Y-12978524D01*
X12770143Y-12969000D01*
X12789190Y-12959476D01*
X12951095Y-13159476D02*
X12989190Y-13159476D01*
X13008238Y-13149952D01*
X13017762Y-13140428D01*
X13036809Y-13111857D01*
X13046333Y-13073762D01*
X13046333Y-12997571D01*
X13036809Y-12978524D01*
X13027286Y-12969000D01*
X13008238Y-12959476D01*
X12970143Y-12959476D01*
X12951095Y-12969000D01*
X12941571Y-12978524D01*
X12932048Y-12997571D01*
X12932048Y-13045190D01*
X12941571Y-13064238D01*
X12951095Y-13073762D01*
X12970143Y-13083286D01*
X13008238Y-13083286D01*
X13027286Y-13073762D01*
X13036809Y-13064238D01*
X13046333Y-13045190D01*
X13160619Y-13045190D02*
X13141571Y-13035667D01*
X13132048Y-13026143D01*
X13122524Y-13007095D01*
X13122524Y-12997571D01*
X13132048Y-12978524D01*
X13141571Y-12969000D01*
X13160619Y-12959476D01*
X13198714Y-12959476D01*
X13217762Y-12969000D01*
X13227286Y-12978524D01*
X13236809Y-12997571D01*
X13236809Y-13007095D01*
X13227286Y-13026143D01*
X13217762Y-13035667D01*
X13198714Y-13045190D01*
X13160619Y-13045190D01*
X13141571Y-13054714D01*
X13132048Y-13064238D01*
X13122524Y-13083286D01*
X13122524Y-13121381D01*
X13132048Y-13140428D01*
X13141571Y-13149952D01*
X13160619Y-13159476D01*
X13198714Y-13159476D01*
X13217762Y-13149952D01*
X13227286Y-13140428D01*
X13236809Y-13121381D01*
X13236809Y-13083286D01*
X13227286Y-13064238D01*
X13217762Y-13054714D01*
X13198714Y-13045190D01*
X13408238Y-13026143D02*
X13408238Y-13159476D01*
X13360619Y-12949952D02*
X13313000Y-13092809D01*
X13436809Y-13092809D01*
X13503476Y-12959476D02*
X13503476Y-12997571D01*
X13579667Y-12959476D02*
X13579667Y-12997571D01*
X13874905Y-13235667D02*
X13865381Y-13226143D01*
X13846333Y-13197571D01*
X13836809Y-13178524D01*
X13827286Y-13149952D01*
X13817762Y-13102333D01*
X13817762Y-13064238D01*
X13827286Y-13016619D01*
X13836809Y-12988048D01*
X13846333Y-12969000D01*
X13865381Y-12940428D01*
X13874905Y-12930905D01*
X14055857Y-13159476D02*
X13941571Y-13159476D01*
X13998714Y-13159476D02*
X13998714Y-12959476D01*
X13979667Y-12988048D01*
X13960619Y-13007095D01*
X13941571Y-13016619D01*
X14293952Y-13159476D02*
X14293952Y-12959476D01*
X14379667Y-13159476D02*
X14379667Y-13054714D01*
X14370143Y-13035667D01*
X14351095Y-13026143D01*
X14322524Y-13026143D01*
X14303476Y-13035667D01*
X14293952Y-13045190D01*
X14503476Y-13159476D02*
X14484428Y-13149952D01*
X14474905Y-13140428D01*
X14465381Y-13121381D01*
X14465381Y-13064238D01*
X14474905Y-13045190D01*
X14484428Y-13035667D01*
X14503476Y-13026143D01*
X14532048Y-13026143D01*
X14551095Y-13035667D01*
X14560619Y-13045190D01*
X14570143Y-13064238D01*
X14570143Y-13121381D01*
X14560619Y-13140428D01*
X14551095Y-13149952D01*
X14532048Y-13159476D01*
X14503476Y-13159476D01*
X14684428Y-13159476D02*
X14665381Y-13149952D01*
X14655857Y-13130905D01*
X14655857Y-12959476D01*
X14836809Y-13149952D02*
X14817762Y-13159476D01*
X14779667Y-13159476D01*
X14760619Y-13149952D01*
X14751095Y-13130905D01*
X14751095Y-13054714D01*
X14760619Y-13035667D01*
X14779667Y-13026143D01*
X14817762Y-13026143D01*
X14836809Y-13035667D01*
X14846333Y-13054714D01*
X14846333Y-13073762D01*
X14751095Y-13092809D01*
X14913000Y-13235667D02*
X14922524Y-13226143D01*
X14941571Y-13197571D01*
X14951095Y-13178524D01*
X14960619Y-13149952D01*
X14970143Y-13102333D01*
X14970143Y-13064238D01*
X14960619Y-13016619D01*
X14951095Y-12988048D01*
X14941571Y-12969000D01*
X14922524Y-12940428D01*
X14913000Y-12930905D01*
X10103000Y-13289000D02*
X10303000Y-13489000D01*
X10303000Y-13289000D02*
X10103000Y-13489000D01*
X10203000Y-13289000D02*
X10203000Y-13489000D01*
X10103000Y-13389000D02*
X10303000Y-13389000D01*
X10541571Y-13279476D02*
X10665381Y-13279476D01*
X10598714Y-13355667D01*
X10627286Y-13355667D01*
X10646333Y-13365190D01*
X10655857Y-13374714D01*
X10665381Y-13393762D01*
X10665381Y-13441381D01*
X10655857Y-13460428D01*
X10646333Y-13469952D01*
X10627286Y-13479476D01*
X10570143Y-13479476D01*
X10551095Y-13469952D01*
X10541571Y-13460428D01*
X10751095Y-13460428D02*
X10760619Y-13469952D01*
X10751095Y-13479476D01*
X10741571Y-13469952D01*
X10751095Y-13460428D01*
X10751095Y-13479476D01*
X10884429Y-13279476D02*
X10903476Y-13279476D01*
X10922524Y-13289000D01*
X10932048Y-13298524D01*
X10941571Y-13317571D01*
X10951095Y-13355667D01*
X10951095Y-13403286D01*
X10941571Y-13441381D01*
X10932048Y-13460428D01*
X10922524Y-13469952D01*
X10903476Y-13479476D01*
X10884429Y-13479476D01*
X10865381Y-13469952D01*
X10855857Y-13460428D01*
X10846333Y-13441381D01*
X10836810Y-13403286D01*
X10836810Y-13355667D01*
X10846333Y-13317571D01*
X10855857Y-13298524D01*
X10865381Y-13289000D01*
X10884429Y-13279476D01*
X11074905Y-13279476D02*
X11093952Y-13279476D01*
X11113000Y-13289000D01*
X11122524Y-13298524D01*
X11132048Y-13317571D01*
X11141571Y-13355667D01*
X11141571Y-13403286D01*
X11132048Y-13441381D01*
X11122524Y-13460428D01*
X11113000Y-13469952D01*
X11093952Y-13479476D01*
X11074905Y-13479476D01*
X11055857Y-13469952D01*
X11046333Y-13460428D01*
X11036810Y-13441381D01*
X11027286Y-13403286D01*
X11027286Y-13355667D01*
X11036810Y-13317571D01*
X11046333Y-13298524D01*
X11055857Y-13289000D01*
X11074905Y-13279476D01*
X11265381Y-13279476D02*
X11284428Y-13279476D01*
X11303476Y-13289000D01*
X11313000Y-13298524D01*
X11322524Y-13317571D01*
X11332048Y-13355667D01*
X11332048Y-13403286D01*
X11322524Y-13441381D01*
X11313000Y-13460428D01*
X11303476Y-13469952D01*
X11284428Y-13479476D01*
X11265381Y-13479476D01*
X11246333Y-13469952D01*
X11236809Y-13460428D01*
X11227286Y-13441381D01*
X11217762Y-13403286D01*
X11217762Y-13355667D01*
X11227286Y-13317571D01*
X11236809Y-13298524D01*
X11246333Y-13289000D01*
X11265381Y-13279476D01*
X11417762Y-13479476D02*
X11417762Y-13346143D01*
X11417762Y-13365190D02*
X11427286Y-13355667D01*
X11446333Y-13346143D01*
X11474905Y-13346143D01*
X11493952Y-13355667D01*
X11503476Y-13374714D01*
X11503476Y-13479476D01*
X11503476Y-13374714D02*
X11513000Y-13355667D01*
X11532048Y-13346143D01*
X11560619Y-13346143D01*
X11579667Y-13355667D01*
X11589190Y-13374714D01*
X11589190Y-13479476D01*
X11684428Y-13479476D02*
X11684428Y-13346143D01*
X11684428Y-13365190D02*
X11693952Y-13355667D01*
X11713000Y-13346143D01*
X11741571Y-13346143D01*
X11760619Y-13355667D01*
X11770143Y-13374714D01*
X11770143Y-13479476D01*
X11770143Y-13374714D02*
X11779667Y-13355667D01*
X11798714Y-13346143D01*
X11827286Y-13346143D01*
X11846333Y-13355667D01*
X11855857Y-13374714D01*
X11855857Y-13479476D01*
X12246333Y-13269952D02*
X12074905Y-13527095D01*
X12503476Y-13279476D02*
X12522524Y-13279476D01*
X12541571Y-13289000D01*
X12551095Y-13298524D01*
X12560619Y-13317571D01*
X12570143Y-13355667D01*
X12570143Y-13403286D01*
X12560619Y-13441381D01*
X12551095Y-13460428D01*
X12541571Y-13469952D01*
X12522524Y-13479476D01*
X12503476Y-13479476D01*
X12484428Y-13469952D01*
X12474905Y-13460428D01*
X12465381Y-13441381D01*
X12455857Y-13403286D01*
X12455857Y-13355667D01*
X12465381Y-13317571D01*
X12474905Y-13298524D01*
X12484428Y-13289000D01*
X12503476Y-13279476D01*
X12655857Y-13460428D02*
X12665381Y-13469952D01*
X12655857Y-13479476D01*
X12646333Y-13469952D01*
X12655857Y-13460428D01*
X12655857Y-13479476D01*
X12855857Y-13479476D02*
X12741571Y-13479476D01*
X12798714Y-13479476D02*
X12798714Y-13279476D01*
X12779667Y-13308048D01*
X12760619Y-13327095D01*
X12741571Y-13336619D01*
X13046333Y-13479476D02*
X12932048Y-13479476D01*
X12989190Y-13479476D02*
X12989190Y-13279476D01*
X12970143Y-13308048D01*
X12951095Y-13327095D01*
X12932048Y-13336619D01*
X13160619Y-13365190D02*
X13141571Y-13355667D01*
X13132048Y-13346143D01*
X13122524Y-13327095D01*
X13122524Y-13317571D01*
X13132048Y-13298524D01*
X13141571Y-13289000D01*
X13160619Y-13279476D01*
X13198714Y-13279476D01*
X13217762Y-13289000D01*
X13227286Y-13298524D01*
X13236809Y-13317571D01*
X13236809Y-13327095D01*
X13227286Y-13346143D01*
X13217762Y-13355667D01*
X13198714Y-13365190D01*
X13160619Y-13365190D01*
X13141571Y-13374714D01*
X13132048Y-13384238D01*
X13122524Y-13403286D01*
X13122524Y-13441381D01*
X13132048Y-13460428D01*
X13141571Y-13469952D01*
X13160619Y-13479476D01*
X13198714Y-13479476D01*
X13217762Y-13469952D01*
X13227286Y-13460428D01*
X13236809Y-13441381D01*
X13236809Y-13403286D01*
X13227286Y-13384238D01*
X13217762Y-13374714D01*
X13198714Y-13365190D01*
X13427286Y-13479476D02*
X13313000Y-13479476D01*
X13370143Y-13479476D02*
X13370143Y-13279476D01*
X13351095Y-13308048D01*
X13332048Y-13327095D01*
X13313000Y-13336619D01*
X13503476Y-13279476D02*
X13503476Y-13317571D01*
X13579667Y-13279476D02*
X13579667Y-13317571D01*
X13874905Y-13555667D02*
X13865381Y-13546143D01*
X13846333Y-13517571D01*
X13836809Y-13498524D01*
X13827286Y-13469952D01*
X13817762Y-13422333D01*
X13817762Y-13384238D01*
X13827286Y-13336619D01*
X13836809Y-13308048D01*
X13846333Y-13289000D01*
X13865381Y-13260428D01*
X13874905Y-13250905D01*
X13941571Y-13298524D02*
X13951095Y-13289000D01*
X13970143Y-13279476D01*
X14017762Y-13279476D01*
X14036809Y-13289000D01*
X14046333Y-13298524D01*
X14055857Y-13317571D01*
X14055857Y-13336619D01*
X14046333Y-13365190D01*
X13932048Y-13479476D01*
X14055857Y-13479476D01*
X14293952Y-13479476D02*
X14293952Y-13279476D01*
X14379667Y-13479476D02*
X14379667Y-13374714D01*
X14370143Y-13355667D01*
X14351095Y-13346143D01*
X14322524Y-13346143D01*
X14303476Y-13355667D01*
X14293952Y-13365190D01*
X14503476Y-13479476D02*
X14484428Y-13469952D01*
X14474905Y-13460428D01*
X14465381Y-13441381D01*
X14465381Y-13384238D01*
X14474905Y-13365190D01*
X14484428Y-13355667D01*
X14503476Y-13346143D01*
X14532048Y-13346143D01*
X14551095Y-13355667D01*
X14560619Y-13365190D01*
X14570143Y-13384238D01*
X14570143Y-13441381D01*
X14560619Y-13460428D01*
X14551095Y-13469952D01*
X14532048Y-13479476D01*
X14503476Y-13479476D01*
X14684428Y-13479476D02*
X14665381Y-13469952D01*
X14655857Y-13450905D01*
X14655857Y-13279476D01*
X14836809Y-13469952D02*
X14817762Y-13479476D01*
X14779667Y-13479476D01*
X14760619Y-13469952D01*
X14751095Y-13450905D01*
X14751095Y-13374714D01*
X14760619Y-13355667D01*
X14779667Y-13346143D01*
X14817762Y-13346143D01*
X14836809Y-13355667D01*
X14846333Y-13374714D01*
X14846333Y-13393762D01*
X14751095Y-13412809D01*
X14922524Y-13469952D02*
X14941571Y-13479476D01*
X14979667Y-13479476D01*
X14998714Y-13469952D01*
X15008238Y-13450905D01*
X15008238Y-13441381D01*
X14998714Y-13422333D01*
X14979667Y-13412809D01*
X14951095Y-13412809D01*
X14932048Y-13403286D01*
X14922524Y-13384238D01*
X14922524Y-13374714D01*
X14932048Y-13355667D01*
X14951095Y-13346143D01*
X14979667Y-13346143D01*
X14998714Y-13355667D01*
X15074905Y-13555667D02*
X15084428Y-13546143D01*
X15103476Y-13517571D01*
X15113000Y-13498524D01*
X15122524Y-13469952D01*
X15132048Y-13422333D01*
X15132048Y-13384238D01*
X15122524Y-13336619D01*
X15113000Y-13308048D01*
X15103476Y-13289000D01*
X15084428Y-13260428D01*
X15074905Y-13250905D01*
M02*
