%TF.GenerationSoftware,KiCad,Pcbnew,(6.0.7)*%
%TF.CreationDate,2023-08-25T11:33:14-04:00*%
%TF.ProjectId,Timer V4,54696d65-7220-4563-942e-6b696361645f,rev?*%
%TF.SameCoordinates,Original*%
%TF.FileFunction,Soldermask,Bot*%
%TF.FilePolarity,Negative*%
%FSLAX46Y46*%
G04 Gerber Fmt 4.6, Leading zero omitted, Abs format (unit mm)*
G04 Created by KiCad (PCBNEW (6.0.7)) date 2023-08-25 11:33:14*
%MOMM*%
%LPD*%
G01*
G04 APERTURE LIST*
G04 Aperture macros list*
%AMRoundRect*
0 Rectangle with rounded corners*
0 $1 Rounding radius*
0 $2 $3 $4 $5 $6 $7 $8 $9 X,Y pos of 4 corners*
0 Add a 4 corners polygon primitive as box body*
4,1,4,$2,$3,$4,$5,$6,$7,$8,$9,$2,$3,0*
0 Add four circle primitives for the rounded corners*
1,1,$1+$1,$2,$3*
1,1,$1+$1,$4,$5*
1,1,$1+$1,$6,$7*
1,1,$1+$1,$8,$9*
0 Add four rect primitives between the rounded corners*
20,1,$1+$1,$2,$3,$4,$5,0*
20,1,$1+$1,$4,$5,$6,$7,0*
20,1,$1+$1,$6,$7,$8,$9,0*
20,1,$1+$1,$8,$9,$2,$3,0*%
G04 Aperture macros list end*
%ADD10C,3.500000*%
%ADD11C,1.600000*%
%ADD12RoundRect,0.250000X0.750000X1.050000X-0.750000X1.050000X-0.750000X-1.050000X0.750000X-1.050000X0*%
%ADD13O,2.000000X2.600000*%
%ADD14O,3.048000X1.850000*%
%ADD15C,1.400000*%
%ADD16O,1.400000X1.400000*%
%ADD17C,4.000000*%
%ADD18RoundRect,0.250000X-1.750000X-1.750000X1.750000X-1.750000X1.750000X1.750000X-1.750000X1.750000X0*%
%ADD19C,3.000000*%
%ADD20R,1.800000X1.800000*%
%ADD21C,1.800000*%
%ADD22R,1.600000X1.600000*%
%ADD23O,1.600000X1.600000*%
G04 APERTURE END LIST*
D10*
%TO.C,GND*%
X135255000Y-71755000D03*
%TD*%
D11*
%TO.C,D10*%
X197485000Y-66040000D03*
%TD*%
%TO.C,D9*%
X197485000Y-63500000D03*
%TD*%
%TO.C,D11*%
X197485000Y-68580000D03*
%TD*%
%TO.C,D12*%
X197485000Y-71120000D03*
%TD*%
%TO.C,D8*%
X197485000Y-60960000D03*
%TD*%
%TO.C,3.3V*%
X182245000Y-53975000D03*
%TD*%
%TO.C,A4*%
X167005000Y-53975000D03*
%TD*%
%TO.C,A5*%
X164465000Y-53975000D03*
%TD*%
%TO.C,D13*%
X184785000Y-53975000D03*
%TD*%
%TO.C,A3*%
X169545000Y-53975000D03*
%TD*%
%TO.C,A2*%
X172085000Y-53975000D03*
%TD*%
%TO.C,A7*%
X159385000Y-53975000D03*
%TD*%
%TO.C,A6*%
X161925000Y-53975000D03*
%TD*%
%TO.C,A0*%
X177165000Y-53975000D03*
%TD*%
%TO.C,A1*%
X174625000Y-53975000D03*
%TD*%
D12*
%TO.C,V1*%
X113836000Y-82042000D03*
D13*
X110336000Y-82042000D03*
%TD*%
D14*
%TO.C,SW4*%
X191914000Y-94020000D03*
X179414000Y-94020000D03*
X191914000Y-99020000D03*
X179414000Y-99020000D03*
%TD*%
%TO.C,SW3*%
X158058485Y-98893000D03*
X170558485Y-98893000D03*
X158058485Y-93893000D03*
X170558485Y-93893000D03*
%TD*%
%TO.C,SW2*%
X137359891Y-99083500D03*
X149859891Y-99083500D03*
X137359891Y-94083500D03*
X149859891Y-94083500D03*
%TD*%
%TO.C,SW1*%
X116188000Y-99020000D03*
X128688000Y-99020000D03*
X116188000Y-94020000D03*
X128688000Y-94020000D03*
%TD*%
D15*
%TO.C,R6*%
X196850000Y-101155500D03*
D16*
X196850000Y-93535500D03*
%TD*%
%TO.C,R5*%
X181864000Y-78105000D03*
D15*
X174244000Y-78105000D03*
%TD*%
%TO.C,R4*%
X174677782Y-101155500D03*
D16*
X174677782Y-93535500D03*
%TD*%
D15*
%TO.C,R3*%
X153959188Y-100965000D03*
D16*
X153959188Y-93345000D03*
%TD*%
D15*
%TO.C,R2*%
X133240594Y-100774500D03*
D16*
X133240594Y-93154500D03*
%TD*%
D15*
%TO.C,R1*%
X112522000Y-100012500D03*
D16*
X112522000Y-92392500D03*
%TD*%
D17*
%TO.C,LS1*%
X130136000Y-82042000D03*
D18*
X122936000Y-82042000D03*
%TD*%
D19*
%TO.C,Relay*%
X122428000Y-57404000D03*
X128428000Y-71604000D03*
X116428000Y-71604000D03*
X116428000Y-59404000D03*
X128428000Y-59404000D03*
%TD*%
D20*
%TO.C,D2*%
X188971000Y-82804000D03*
D21*
X191511000Y-82804000D03*
%TD*%
D20*
%TO.C,D1*%
X182885000Y-82804000D03*
D21*
X180345000Y-82804000D03*
%TD*%
D22*
%TO.C,A1*%
X149352000Y-74285000D03*
D23*
X151892000Y-74285000D03*
X154432000Y-74285000D03*
X156972000Y-74285000D03*
X159512000Y-74285000D03*
X162052000Y-74285000D03*
X164592000Y-74285000D03*
X167132000Y-74285000D03*
X169672000Y-74285000D03*
X172212000Y-74285000D03*
X174752000Y-74285000D03*
X177292000Y-74285000D03*
X179832000Y-74285000D03*
X182372000Y-74285000D03*
X184912000Y-74285000D03*
X184912000Y-59045000D03*
X182372000Y-59045000D03*
X179832000Y-59045000D03*
X177292000Y-59045000D03*
X174752000Y-59045000D03*
X172212000Y-59045000D03*
X169672000Y-59045000D03*
X167132000Y-59045000D03*
X164592000Y-59045000D03*
X162052000Y-59045000D03*
X159512000Y-59045000D03*
X156972000Y-59045000D03*
X154432000Y-59045000D03*
X151892000Y-59045000D03*
X149352000Y-59045000D03*
%TD*%
M02*
