%TF.GenerationSoftware,KiCad,Pcbnew,(6.0.7)*%
%TF.CreationDate,2023-08-25T11:33:14-04:00*%
%TF.ProjectId,Timer V4,54696d65-7220-4563-942e-6b696361645f,rev?*%
%TF.SameCoordinates,Original*%
%TF.FileFunction,Legend,Bot*%
%TF.FilePolarity,Positive*%
%FSLAX46Y46*%
G04 Gerber Fmt 4.6, Leading zero omitted, Abs format (unit mm)*
G04 Created by KiCad (PCBNEW (6.0.7)) date 2023-08-25 11:33:14*
%MOMM*%
%LPD*%
G01*
G04 APERTURE LIST*
%ADD10C,0.150000*%
%ADD11C,0.120000*%
G04 APERTURE END LIST*
D10*
%TO.C,SW4*%
X187167333Y-89764761D02*
X187024476Y-89812380D01*
X186786380Y-89812380D01*
X186691142Y-89764761D01*
X186643523Y-89717142D01*
X186595904Y-89621904D01*
X186595904Y-89526666D01*
X186643523Y-89431428D01*
X186691142Y-89383809D01*
X186786380Y-89336190D01*
X186976857Y-89288571D01*
X187072095Y-89240952D01*
X187119714Y-89193333D01*
X187167333Y-89098095D01*
X187167333Y-89002857D01*
X187119714Y-88907619D01*
X187072095Y-88860000D01*
X186976857Y-88812380D01*
X186738761Y-88812380D01*
X186595904Y-88860000D01*
X186262571Y-88812380D02*
X186024476Y-89812380D01*
X185834000Y-89098095D01*
X185643523Y-89812380D01*
X185405428Y-88812380D01*
X184595904Y-89145714D02*
X184595904Y-89812380D01*
X184834000Y-88764761D02*
X185072095Y-89479047D01*
X184453047Y-89479047D01*
%TO.C,SW3*%
X165811818Y-89637761D02*
X165668961Y-89685380D01*
X165430865Y-89685380D01*
X165335627Y-89637761D01*
X165288008Y-89590142D01*
X165240389Y-89494904D01*
X165240389Y-89399666D01*
X165288008Y-89304428D01*
X165335627Y-89256809D01*
X165430865Y-89209190D01*
X165621342Y-89161571D01*
X165716580Y-89113952D01*
X165764199Y-89066333D01*
X165811818Y-88971095D01*
X165811818Y-88875857D01*
X165764199Y-88780619D01*
X165716580Y-88733000D01*
X165621342Y-88685380D01*
X165383246Y-88685380D01*
X165240389Y-88733000D01*
X164907056Y-88685380D02*
X164668961Y-89685380D01*
X164478485Y-88971095D01*
X164288008Y-89685380D01*
X164049913Y-88685380D01*
X163764199Y-88685380D02*
X163145151Y-88685380D01*
X163478485Y-89066333D01*
X163335627Y-89066333D01*
X163240389Y-89113952D01*
X163192770Y-89161571D01*
X163145151Y-89256809D01*
X163145151Y-89494904D01*
X163192770Y-89590142D01*
X163240389Y-89637761D01*
X163335627Y-89685380D01*
X163621342Y-89685380D01*
X163716580Y-89637761D01*
X163764199Y-89590142D01*
%TO.C,SW2*%
X144789224Y-89876261D02*
X144646367Y-89923880D01*
X144408271Y-89923880D01*
X144313033Y-89876261D01*
X144265414Y-89828642D01*
X144217795Y-89733404D01*
X144217795Y-89638166D01*
X144265414Y-89542928D01*
X144313033Y-89495309D01*
X144408271Y-89447690D01*
X144598748Y-89400071D01*
X144693986Y-89352452D01*
X144741605Y-89304833D01*
X144789224Y-89209595D01*
X144789224Y-89114357D01*
X144741605Y-89019119D01*
X144693986Y-88971500D01*
X144598748Y-88923880D01*
X144360652Y-88923880D01*
X144217795Y-88971500D01*
X143884462Y-88923880D02*
X143646367Y-89923880D01*
X143455891Y-89209595D01*
X143265414Y-89923880D01*
X143027319Y-88923880D01*
X142693986Y-89019119D02*
X142646367Y-88971500D01*
X142551129Y-88923880D01*
X142313033Y-88923880D01*
X142217795Y-88971500D01*
X142170176Y-89019119D01*
X142122557Y-89114357D01*
X142122557Y-89209595D01*
X142170176Y-89352452D01*
X142741605Y-89923880D01*
X142122557Y-89923880D01*
%TO.C,SW1*%
X123507333Y-89558761D02*
X123364476Y-89606380D01*
X123126380Y-89606380D01*
X123031142Y-89558761D01*
X122983523Y-89511142D01*
X122935904Y-89415904D01*
X122935904Y-89320666D01*
X122983523Y-89225428D01*
X123031142Y-89177809D01*
X123126380Y-89130190D01*
X123316857Y-89082571D01*
X123412095Y-89034952D01*
X123459714Y-88987333D01*
X123507333Y-88892095D01*
X123507333Y-88796857D01*
X123459714Y-88701619D01*
X123412095Y-88654000D01*
X123316857Y-88606380D01*
X123078761Y-88606380D01*
X122935904Y-88654000D01*
X122602571Y-88606380D02*
X122364476Y-89606380D01*
X122174000Y-88892095D01*
X121983523Y-89606380D01*
X121745428Y-88606380D01*
X120840666Y-89606380D02*
X121412095Y-89606380D01*
X121126380Y-89606380D02*
X121126380Y-88606380D01*
X121221619Y-88749238D01*
X121316857Y-88844476D01*
X121412095Y-88892095D01*
%TO.C,D2*%
X190979095Y-86216380D02*
X190979095Y-85216380D01*
X190741000Y-85216380D01*
X190598142Y-85264000D01*
X190502904Y-85359238D01*
X190455285Y-85454476D01*
X190407666Y-85644952D01*
X190407666Y-85787809D01*
X190455285Y-85978285D01*
X190502904Y-86073523D01*
X190598142Y-86168761D01*
X190741000Y-86216380D01*
X190979095Y-86216380D01*
X190026714Y-85311619D02*
X189979095Y-85264000D01*
X189883857Y-85216380D01*
X189645761Y-85216380D01*
X189550523Y-85264000D01*
X189502904Y-85311619D01*
X189455285Y-85406857D01*
X189455285Y-85502095D01*
X189502904Y-85644952D01*
X190074333Y-86216380D01*
X189455285Y-86216380D01*
%TO.C,D1*%
X182353095Y-80296380D02*
X182353095Y-79296380D01*
X182115000Y-79296380D01*
X181972142Y-79344000D01*
X181876904Y-79439238D01*
X181829285Y-79534476D01*
X181781666Y-79724952D01*
X181781666Y-79867809D01*
X181829285Y-80058285D01*
X181876904Y-80153523D01*
X181972142Y-80248761D01*
X182115000Y-80296380D01*
X182353095Y-80296380D01*
X180829285Y-80296380D02*
X181400714Y-80296380D01*
X181115000Y-80296380D02*
X181115000Y-79296380D01*
X181210238Y-79439238D01*
X181305476Y-79534476D01*
X181400714Y-79582095D01*
D11*
%TO.C,SW4*%
X179514000Y-90370000D02*
X179514000Y-93090000D01*
X191814000Y-93090000D02*
X191814000Y-90370000D01*
X191814000Y-98090000D02*
X191814000Y-94950000D01*
X191814000Y-90370000D02*
X179514000Y-90370000D01*
X179514000Y-99950000D02*
X179514000Y-102670000D01*
X179514000Y-94950000D02*
X179514000Y-98090000D01*
X179514000Y-102670000D02*
X191814000Y-102670000D01*
X191814000Y-102670000D02*
X191814000Y-99950000D01*
X190143050Y-96560000D02*
G75*
G03*
X190143050Y-96560000I-4579050J0D01*
G01*
%TO.C,SW3*%
X168787535Y-96433000D02*
G75*
G03*
X168787535Y-96433000I-4579050J0D01*
G01*
X170458485Y-102543000D02*
X170458485Y-99823000D01*
X158158485Y-102543000D02*
X170458485Y-102543000D01*
X158158485Y-94823000D02*
X158158485Y-97963000D01*
X158158485Y-99823000D02*
X158158485Y-102543000D01*
X170458485Y-90243000D02*
X158158485Y-90243000D01*
X170458485Y-97963000D02*
X170458485Y-94823000D01*
X170458485Y-92963000D02*
X170458485Y-90243000D01*
X158158485Y-90243000D02*
X158158485Y-92963000D01*
%TO.C,SW2*%
X149759891Y-102733500D02*
X149759891Y-100013500D01*
X137459891Y-100013500D02*
X137459891Y-102733500D01*
X137459891Y-95013500D02*
X137459891Y-98153500D01*
X137459891Y-102733500D02*
X149759891Y-102733500D01*
X149759891Y-93153500D02*
X149759891Y-90433500D01*
X149759891Y-98153500D02*
X149759891Y-95013500D01*
X149759891Y-90433500D02*
X137459891Y-90433500D01*
X137459891Y-90433500D02*
X137459891Y-93153500D01*
X148288941Y-96543500D02*
G75*
G03*
X148288941Y-96543500I-4579050J0D01*
G01*
%TO.C,SW1*%
X128588000Y-102670000D02*
X128588000Y-99950000D01*
X116288000Y-99950000D02*
X116288000Y-102670000D01*
X116288000Y-94950000D02*
X116288000Y-98090000D01*
X116288000Y-102670000D02*
X128588000Y-102670000D01*
X128588000Y-93090000D02*
X128588000Y-90370000D01*
X128588000Y-98090000D02*
X128588000Y-94950000D01*
X128588000Y-90370000D02*
X116288000Y-90370000D01*
X116288000Y-90370000D02*
X116288000Y-93090000D01*
X127117050Y-96480000D02*
G75*
G03*
X127117050Y-96480000I-4579050J0D01*
G01*
%TO.C,D2*%
X188681000Y-84040000D02*
X188681000Y-83884000D01*
X188681000Y-81724000D02*
X188681000Y-81568000D01*
X189200039Y-83884000D02*
G75*
G03*
X191282130Y-83883837I1040961J1080000D01*
G01*
X191913335Y-81725392D02*
G75*
G03*
X188681000Y-81568484I-1672335J-1078608D01*
G01*
X191282130Y-81724163D02*
G75*
G03*
X189200039Y-81724000I-1041130J-1079837D01*
G01*
X188681000Y-84039516D02*
G75*
G03*
X191913335Y-83882608I1560000J1235516D01*
G01*
%TO.C,D1*%
X183175000Y-81568000D02*
X183175000Y-81724000D01*
X183175000Y-83884000D02*
X183175000Y-84040000D01*
X182655961Y-81724000D02*
G75*
G03*
X180573870Y-81724163I-1040961J-1080000D01*
G01*
X179942665Y-83882608D02*
G75*
G03*
X183175000Y-84039516I1672335J1078608D01*
G01*
X180573870Y-83883837D02*
G75*
G03*
X182655961Y-83884000I1041130J1079837D01*
G01*
X183175000Y-81568484D02*
G75*
G03*
X179942665Y-81725392I-1560000J-1235516D01*
G01*
%TD*%
M02*
