%TF.GenerationSoftware,KiCad,Pcbnew,(6.0.7)*%
%TF.CreationDate,2023-08-25T11:33:12-04:00*%
%TF.ProjectId,Timer V4,54696d65-7220-4563-942e-6b696361645f,rev?*%
%TF.SameCoordinates,Original*%
%TF.FileFunction,Drillmap*%
%TF.FilePolarity,Positive*%
%FSLAX45Y45*%
G04 Gerber Fmt 4.5, Leading zero omitted, Abs format (unit mm)*
G04 Created by KiCad (PCBNEW (6.0.7)) date 2023-08-25 11:33:12*
%MOMM*%
%LPD*%
G01*
G04 APERTURE LIST*
%ADD10C,0.150000*%
%ADD11C,0.100000*%
%ADD12C,0.200000*%
G04 APERTURE END LIST*
D10*
X10758000Y-5588000D02*
G75*
G03*
X10758000Y-5588000I-150000J0D01*
G01*
X19858000Y-5588000D02*
G75*
G03*
X19858000Y-5588000I-150000J0D01*
G01*
X19858000Y-10588000D02*
G75*
G03*
X19858000Y-10588000I-150000J0D01*
G01*
D11*
X10308000Y-5088000D02*
X20308000Y-5088000D01*
X20308000Y-5088000D02*
X20308000Y-11088000D01*
X20308000Y-11088000D02*
X10308000Y-11088000D01*
X10308000Y-11088000D02*
X10308000Y-5088000D01*
D10*
X10758000Y-10588000D02*
G75*
G03*
X10758000Y-10588000I-150000J0D01*
G01*
D12*
X10560619Y-11403476D02*
X10560619Y-11203476D01*
X10608238Y-11203476D01*
X10636810Y-11213000D01*
X10655857Y-11232048D01*
X10665381Y-11251095D01*
X10674905Y-11289190D01*
X10674905Y-11317762D01*
X10665381Y-11355857D01*
X10655857Y-11374905D01*
X10636810Y-11393952D01*
X10608238Y-11403476D01*
X10560619Y-11403476D01*
X10760619Y-11403476D02*
X10760619Y-11270143D01*
X10760619Y-11308238D02*
X10770143Y-11289190D01*
X10779667Y-11279667D01*
X10798714Y-11270143D01*
X10817762Y-11270143D01*
X10884429Y-11403476D02*
X10884429Y-11270143D01*
X10884429Y-11203476D02*
X10874905Y-11213000D01*
X10884429Y-11222524D01*
X10893952Y-11213000D01*
X10884429Y-11203476D01*
X10884429Y-11222524D01*
X11008238Y-11403476D02*
X10989190Y-11393952D01*
X10979667Y-11374905D01*
X10979667Y-11203476D01*
X11113000Y-11403476D02*
X11093952Y-11393952D01*
X11084429Y-11374905D01*
X11084429Y-11203476D01*
X11341571Y-11403476D02*
X11341571Y-11203476D01*
X11408238Y-11346333D01*
X11474905Y-11203476D01*
X11474905Y-11403476D01*
X11655857Y-11403476D02*
X11655857Y-11298714D01*
X11646333Y-11279667D01*
X11627286Y-11270143D01*
X11589190Y-11270143D01*
X11570143Y-11279667D01*
X11655857Y-11393952D02*
X11636809Y-11403476D01*
X11589190Y-11403476D01*
X11570143Y-11393952D01*
X11560619Y-11374905D01*
X11560619Y-11355857D01*
X11570143Y-11336809D01*
X11589190Y-11327286D01*
X11636809Y-11327286D01*
X11655857Y-11317762D01*
X11751095Y-11270143D02*
X11751095Y-11470143D01*
X11751095Y-11279667D02*
X11770143Y-11270143D01*
X11808238Y-11270143D01*
X11827286Y-11279667D01*
X11836809Y-11289190D01*
X11846333Y-11308238D01*
X11846333Y-11365381D01*
X11836809Y-11384428D01*
X11827286Y-11393952D01*
X11808238Y-11403476D01*
X11770143Y-11403476D01*
X11751095Y-11393952D01*
X11932048Y-11384428D02*
X11941571Y-11393952D01*
X11932048Y-11403476D01*
X11922524Y-11393952D01*
X11932048Y-11384428D01*
X11932048Y-11403476D01*
X11932048Y-11279667D02*
X11941571Y-11289190D01*
X11932048Y-11298714D01*
X11922524Y-11289190D01*
X11932048Y-11279667D01*
X11932048Y-11298714D01*
M02*
