M48
; DRILL file {KiCad (6.0.7)} date Fri Aug 25 11:33:12 2023
; FORMAT={3:3/ absolute / metric / suppress leading zeros}
; #@! TF.CreationDate,2023-08-25T11:33:12-04:00
; #@! TF.GenerationSoftware,Kicad,Pcbnew,(6.0.7)
; #@! TF.FileFunction,Plated,1,2,PTH
FMAT,2
METRIC,TZ
; #@! TA.AperFunction,Plated,PTH,ComponentDrill
T1C0.700
; #@! TA.AperFunction,Plated,PTH,ComponentDrill
T2C0.900
; #@! TA.AperFunction,Plated,PTH,ComponentDrill
T3C1.000
; #@! TA.AperFunction,Plated,PTH,ComponentDrill
T4C1.300
; #@! TA.AperFunction,Plated,PTH,ComponentDrill
T5C1.600
; #@! TA.AperFunction,Plated,PTH,ComponentDrill
T6C2.500
; #@! TA.AperFunction,Plated,PTH,ComponentDrill
T7C3.000
%
G90
G05
T1
X112522Y-92393
X112522Y-100012
X133241Y-93154
X133241Y-100774
X153959Y-93345
X153959Y-100965
X174244Y-78105
X174678Y-93536
X174678Y-101156
X181864Y-78105
X196850Y-93536
X196850Y-101156
T2
X180345Y-82804
X182885Y-82804
X188971Y-82804
X191511Y-82804
T3
X149352Y-59045
X149352Y-74285
X151892Y-59045
X151892Y-74285
X154432Y-59045
X154432Y-74285
X156972Y-59045
X156972Y-74285
X159385Y-53975
X159512Y-59045
X159512Y-74285
X161925Y-53975
X162052Y-59045
X162052Y-74285
X164465Y-53975
X164592Y-59045
X164592Y-74285
X167005Y-53975
X167132Y-59045
X167132Y-74285
X169545Y-53975
X169672Y-59045
X169672Y-74285
X172085Y-53975
X172212Y-59045
X172212Y-74285
X174625Y-53975
X174752Y-59045
X174752Y-74285
X177165Y-53975
X177292Y-59045
X177292Y-74285
X179832Y-59045
X179832Y-74285
X182245Y-53975
X182372Y-59045
X182372Y-74285
X184785Y-53975
X184912Y-59045
X184912Y-74285
X197485Y-60960
X197485Y-63500
X197485Y-66040
X197485Y-68580
X197485Y-71120
T4
X116188Y-94020
X116188Y-99020
X116428Y-59404
X116428Y-71604
X122428Y-57404
X128428Y-59404
X128428Y-71604
X128688Y-94020
X128688Y-99020
X137360Y-94084
X137360Y-99084
X149860Y-94084
X149860Y-99084
X158058Y-93893
X158058Y-98893
X170558Y-93893
X170558Y-98893
X179414Y-94020
X179414Y-99020
X191914Y-94020
X191914Y-99020
T5
X110336Y-82042
X113836Y-82042
T6
X135255Y-71755
T7
X122936Y-82042
X130136Y-82042
T0
M30
