%TF.GenerationSoftware,KiCad,Pcbnew,(6.0.7)*%
%TF.CreationDate,2023-08-25T11:33:14-04:00*%
%TF.ProjectId,Timer V4,54696d65-7220-4563-942e-6b696361645f,rev?*%
%TF.SameCoordinates,Original*%
%TF.FileFunction,Copper,L1,Top*%
%TF.FilePolarity,Positive*%
%FSLAX46Y46*%
G04 Gerber Fmt 4.6, Leading zero omitted, Abs format (unit mm)*
G04 Created by KiCad (PCBNEW (6.0.7)) date 2023-08-25 11:33:14*
%MOMM*%
%LPD*%
G01*
G04 APERTURE LIST*
G04 Aperture macros list*
%AMRoundRect*
0 Rectangle with rounded corners*
0 $1 Rounding radius*
0 $2 $3 $4 $5 $6 $7 $8 $9 X,Y pos of 4 corners*
0 Add a 4 corners polygon primitive as box body*
4,1,4,$2,$3,$4,$5,$6,$7,$8,$9,$2,$3,0*
0 Add four circle primitives for the rounded corners*
1,1,$1+$1,$2,$3*
1,1,$1+$1,$4,$5*
1,1,$1+$1,$6,$7*
1,1,$1+$1,$8,$9*
0 Add four rect primitives between the rounded corners*
20,1,$1+$1,$2,$3,$4,$5,0*
20,1,$1+$1,$4,$5,$6,$7,0*
20,1,$1+$1,$6,$7,$8,$9,0*
20,1,$1+$1,$8,$9,$2,$3,0*%
G04 Aperture macros list end*
%TA.AperFunction,ComponentPad*%
%ADD10C,3.500000*%
%TD*%
%TA.AperFunction,ComponentPad*%
%ADD11C,1.600000*%
%TD*%
%TA.AperFunction,ComponentPad*%
%ADD12RoundRect,0.250000X0.750000X1.050000X-0.750000X1.050000X-0.750000X-1.050000X0.750000X-1.050000X0*%
%TD*%
%TA.AperFunction,ComponentPad*%
%ADD13O,2.000000X2.600000*%
%TD*%
%TA.AperFunction,ComponentPad*%
%ADD14O,3.048000X1.850000*%
%TD*%
%TA.AperFunction,ComponentPad*%
%ADD15C,1.400000*%
%TD*%
%TA.AperFunction,ComponentPad*%
%ADD16O,1.400000X1.400000*%
%TD*%
%TA.AperFunction,ComponentPad*%
%ADD17C,4.000000*%
%TD*%
%TA.AperFunction,ComponentPad*%
%ADD18RoundRect,0.250000X-1.750000X-1.750000X1.750000X-1.750000X1.750000X1.750000X-1.750000X1.750000X0*%
%TD*%
%TA.AperFunction,ComponentPad*%
%ADD19C,3.000000*%
%TD*%
%TA.AperFunction,ComponentPad*%
%ADD20R,1.800000X1.800000*%
%TD*%
%TA.AperFunction,ComponentPad*%
%ADD21C,1.800000*%
%TD*%
%TA.AperFunction,ComponentPad*%
%ADD22R,1.600000X1.600000*%
%TD*%
%TA.AperFunction,ComponentPad*%
%ADD23O,1.600000X1.600000*%
%TD*%
%TA.AperFunction,Conductor*%
%ADD24C,0.250000*%
%TD*%
G04 APERTURE END LIST*
D10*
%TO.P,GND,*%
%TO.N,*%
X135255000Y-71755000D03*
%TD*%
D11*
%TO.P,D10,*%
%TO.N,unconnected-(A1-Pad13)*%
X197485000Y-66040000D03*
%TD*%
%TO.P,D9,*%
%TO.N,unconnected-(A1-Pad12)*%
X197485000Y-63500000D03*
%TD*%
%TO.P,D11,*%
%TO.N,unconnected-(A1-Pad14)*%
X197485000Y-68580000D03*
%TD*%
%TO.P,D12,*%
%TO.N,unconnected-(A1-Pad15)*%
X197485000Y-71120000D03*
%TD*%
%TO.P,D8,*%
%TO.N,unconnected-(A1-Pad11)*%
X197485000Y-60960000D03*
%TD*%
%TO.P,3.3V,*%
%TO.N,unconnected-(A1-Pad17)*%
X182245000Y-53975000D03*
%TD*%
%TO.P,A4,*%
%TO.N,unconnected-(A1-Pad23)*%
X167005000Y-53975000D03*
%TD*%
%TO.P,A5,*%
%TO.N,unconnected-(A1-Pad24)*%
X164465000Y-53975000D03*
%TD*%
%TO.P,D13,*%
%TO.N,unconnected-(A1-Pad16)*%
X184785000Y-53975000D03*
%TD*%
%TO.P,A3,*%
%TO.N,unconnected-(A1-Pad22)*%
X169545000Y-53975000D03*
%TD*%
%TO.P,A2,*%
%TO.N,unconnected-(A1-Pad21)*%
X172085000Y-53975000D03*
%TD*%
%TO.P,A7,*%
%TO.N,unconnected-(A1-Pad26)*%
X159385000Y-53975000D03*
%TD*%
%TO.P,A6,*%
%TO.N,unconnected-(A1-Pad25)*%
X161925000Y-53975000D03*
%TD*%
%TO.P,A0,*%
%TO.N,unconnected-(A1-Pad19)*%
X177165000Y-53975000D03*
%TD*%
%TO.P,A1,*%
%TO.N,unconnected-(A1-Pad20)*%
X174625000Y-53975000D03*
%TD*%
D12*
%TO.P,V1,1,+*%
%TO.N,Net-(A1-Pad30)*%
X113836000Y-82042000D03*
D13*
%TO.P,V1,2,-*%
%TO.N,/GND*%
X110336000Y-82042000D03*
%TD*%
D14*
%TO.P,SW4,1,1*%
%TO.N,Net-(A1-Pad10)*%
X191914000Y-94020000D03*
X179414000Y-94020000D03*
%TO.P,SW4,2,2*%
%TO.N,Net-(A1-Pad27)*%
X191914000Y-99020000D03*
X179414000Y-99020000D03*
%TD*%
%TO.P,SW3,2,2*%
%TO.N,Net-(A1-Pad27)*%
X158058485Y-98893000D03*
X170558485Y-98893000D03*
%TO.P,SW3,1,1*%
%TO.N,Net-(A1-Pad9)*%
X158058485Y-93893000D03*
X170558485Y-93893000D03*
%TD*%
%TO.P,SW2,1,1*%
%TO.N,Net-(A1-Pad27)*%
X137359891Y-99083500D03*
X149859891Y-99083500D03*
%TO.P,SW2,2,2*%
%TO.N,Net-(A1-Pad8)*%
X137359891Y-94083500D03*
X149859891Y-94083500D03*
%TD*%
%TO.P,SW1,1,1*%
%TO.N,Net-(A1-Pad27)*%
X116188000Y-99020000D03*
X128688000Y-99020000D03*
%TO.P,SW1,2,2*%
%TO.N,Net-(A1-Pad7)*%
X116188000Y-94020000D03*
X128688000Y-94020000D03*
%TD*%
D15*
%TO.P,R6,1*%
%TO.N,Net-(A1-Pad27)*%
X196850000Y-101155500D03*
D16*
%TO.P,R6,2*%
%TO.N,Net-(D2-Pad2)*%
X196850000Y-93535500D03*
%TD*%
%TO.P,R5,2*%
%TO.N,Net-(D1-Pad2)*%
X181864000Y-78105000D03*
D15*
%TO.P,R5,1*%
%TO.N,Net-(A1-Pad6)*%
X174244000Y-78105000D03*
%TD*%
%TO.P,R4,1*%
%TO.N,/GND*%
X174677782Y-101155500D03*
D16*
%TO.P,R4,2*%
%TO.N,Net-(A1-Pad10)*%
X174677782Y-93535500D03*
%TD*%
D15*
%TO.P,R3,1*%
%TO.N,/GND*%
X153959188Y-100965000D03*
D16*
%TO.P,R3,2*%
%TO.N,Net-(A1-Pad9)*%
X153959188Y-93345000D03*
%TD*%
D15*
%TO.P,R2,1*%
%TO.N,/GND*%
X133240594Y-100774500D03*
D16*
%TO.P,R2,2*%
%TO.N,Net-(A1-Pad8)*%
X133240594Y-93154500D03*
%TD*%
D15*
%TO.P,R1,1*%
%TO.N,/GND*%
X112522000Y-100012500D03*
D16*
%TO.P,R1,2*%
%TO.N,Net-(A1-Pad7)*%
X112522000Y-92392500D03*
%TD*%
D17*
%TO.P,LS1,2,2*%
%TO.N,Net-(A1-Pad30)*%
X130136000Y-82042000D03*
D18*
%TO.P,LS1,1,1*%
%TO.N,Net-(LS1-Pad1)*%
X122936000Y-82042000D03*
%TD*%
D19*
%TO.P,Relay,11*%
%TO.N,Net-(LS1-Pad1)*%
X122428000Y-57404000D03*
%TO.P,Relay,12*%
%TO.N,unconnected-(Relay1-Pad12)*%
X128428000Y-71604000D03*
%TO.P,Relay,14*%
%TO.N,/GND*%
X116428000Y-71604000D03*
%TO.P,Relay,A1*%
X116428000Y-59404000D03*
%TO.P,Relay,A2*%
%TO.N,Net-(A1-Pad5)*%
X128428000Y-59404000D03*
%TD*%
D20*
%TO.P,D2,1,K*%
%TO.N,/GND*%
X188971000Y-82804000D03*
D21*
%TO.P,D2,2,A*%
%TO.N,Net-(D2-Pad2)*%
X191511000Y-82804000D03*
%TD*%
D20*
%TO.P,D1,1,K*%
%TO.N,/GND*%
X182885000Y-82804000D03*
D21*
%TO.P,D1,2,A*%
%TO.N,Net-(D1-Pad2)*%
X180345000Y-82804000D03*
%TD*%
D22*
%TO.P,A1,1,D1/TX*%
%TO.N,unconnected-(A1-Pad1)*%
X149352000Y-74285000D03*
D23*
%TO.P,A1,2,D0/RX*%
%TO.N,unconnected-(A1-Pad2)*%
X151892000Y-74285000D03*
%TO.P,A1,3,~{RESET}*%
%TO.N,unconnected-(A1-Pad3)*%
X154432000Y-74285000D03*
%TO.P,A1,4,GND*%
%TO.N,/GND*%
X156972000Y-74285000D03*
%TO.P,A1,5,D2*%
%TO.N,Net-(A1-Pad5)*%
X159512000Y-74285000D03*
%TO.P,A1,6,D3*%
%TO.N,Net-(A1-Pad6)*%
X162052000Y-74285000D03*
%TO.P,A1,7,D4*%
%TO.N,Net-(A1-Pad7)*%
X164592000Y-74285000D03*
%TO.P,A1,8,D5*%
%TO.N,Net-(A1-Pad8)*%
X167132000Y-74285000D03*
%TO.P,A1,9,D6*%
%TO.N,Net-(A1-Pad9)*%
X169672000Y-74285000D03*
%TO.P,A1,10,D7*%
%TO.N,Net-(A1-Pad10)*%
X172212000Y-74285000D03*
%TO.P,A1,11,D8*%
%TO.N,unconnected-(A1-Pad11)*%
X174752000Y-74285000D03*
%TO.P,A1,12,D9*%
%TO.N,unconnected-(A1-Pad12)*%
X177292000Y-74285000D03*
%TO.P,A1,13,D10*%
%TO.N,unconnected-(A1-Pad13)*%
X179832000Y-74285000D03*
%TO.P,A1,14,D11*%
%TO.N,unconnected-(A1-Pad14)*%
X182372000Y-74285000D03*
%TO.P,A1,15,D12*%
%TO.N,unconnected-(A1-Pad15)*%
X184912000Y-74285000D03*
%TO.P,A1,16,D13*%
%TO.N,unconnected-(A1-Pad16)*%
X184912000Y-59045000D03*
%TO.P,A1,17,3V3*%
%TO.N,unconnected-(A1-Pad17)*%
X182372000Y-59045000D03*
%TO.P,A1,18,AREF*%
%TO.N,unconnected-(A1-Pad18)*%
X179832000Y-59045000D03*
%TO.P,A1,19,A0*%
%TO.N,unconnected-(A1-Pad19)*%
X177292000Y-59045000D03*
%TO.P,A1,20,A1*%
%TO.N,unconnected-(A1-Pad20)*%
X174752000Y-59045000D03*
%TO.P,A1,21,A2*%
%TO.N,unconnected-(A1-Pad21)*%
X172212000Y-59045000D03*
%TO.P,A1,22,A3*%
%TO.N,unconnected-(A1-Pad22)*%
X169672000Y-59045000D03*
%TO.P,A1,23,A4*%
%TO.N,unconnected-(A1-Pad23)*%
X167132000Y-59045000D03*
%TO.P,A1,24,A5*%
%TO.N,unconnected-(A1-Pad24)*%
X164592000Y-59045000D03*
%TO.P,A1,25,A6*%
%TO.N,unconnected-(A1-Pad25)*%
X162052000Y-59045000D03*
%TO.P,A1,26,A7*%
%TO.N,unconnected-(A1-Pad26)*%
X159512000Y-59045000D03*
%TO.P,A1,27,+5V*%
%TO.N,Net-(A1-Pad27)*%
X156972000Y-59045000D03*
%TO.P,A1,28,~{RESET}*%
%TO.N,unconnected-(A1-Pad28)*%
X154432000Y-59045000D03*
%TO.P,A1,29,GND*%
%TO.N,unconnected-(A1-Pad29)*%
X151892000Y-59045000D03*
%TO.P,A1,30,VIN*%
%TO.N,Net-(A1-Pad30)*%
X149352000Y-59045000D03*
%TD*%
D24*
%TO.N,unconnected-(A1-Pad16)*%
X184785000Y-53975000D02*
X184785000Y-58918000D01*
X184785000Y-58918000D02*
X184912000Y-59045000D01*
%TO.N,unconnected-(A1-Pad17)*%
X182245000Y-58918000D02*
X182372000Y-59045000D01*
X182245000Y-53975000D02*
X182245000Y-58918000D01*
%TO.N,unconnected-(A1-Pad19)*%
X177165000Y-58918000D02*
X177292000Y-59045000D01*
X177165000Y-53975000D02*
X177165000Y-58918000D01*
%TO.N,unconnected-(A1-Pad20)*%
X174625000Y-58918000D02*
X174752000Y-59045000D01*
X174625000Y-53975000D02*
X174625000Y-58918000D01*
%TO.N,unconnected-(A1-Pad21)*%
X172085000Y-58918000D02*
X172212000Y-59045000D01*
X172085000Y-53975000D02*
X172085000Y-58918000D01*
%TO.N,unconnected-(A1-Pad22)*%
X169545000Y-58918000D02*
X169672000Y-59045000D01*
X169545000Y-53975000D02*
X169545000Y-58918000D01*
%TO.N,unconnected-(A1-Pad23)*%
X167005000Y-53975000D02*
X167005000Y-58918000D01*
X167005000Y-58918000D02*
X167132000Y-59045000D01*
%TO.N,unconnected-(A1-Pad24)*%
X164465000Y-58918000D02*
X164592000Y-59045000D01*
X164465000Y-53975000D02*
X164465000Y-58918000D01*
%TO.N,unconnected-(A1-Pad25)*%
X161925000Y-58918000D02*
X162052000Y-59045000D01*
X161925000Y-53975000D02*
X161925000Y-58918000D01*
%TO.N,unconnected-(A1-Pad26)*%
X159385000Y-58918000D02*
X159512000Y-59045000D01*
X159385000Y-53975000D02*
X159385000Y-58918000D01*
%TO.N,Net-(A1-Pad5)*%
X159512000Y-74285000D02*
X159512000Y-72126000D01*
%TO.N,Net-(A1-Pad7)*%
X164592000Y-75438000D02*
X164592000Y-74285000D01*
X162560000Y-77470000D02*
X164592000Y-75438000D01*
X144780000Y-77470000D02*
X162560000Y-77470000D01*
X128688000Y-94020000D02*
X128688000Y-93562000D01*
X128688000Y-93562000D02*
X144780000Y-77470000D01*
%TO.N,Net-(A1-Pad8)*%
X149859891Y-92075109D02*
X167132000Y-74803000D01*
X149859891Y-94083500D02*
X149859891Y-92075109D01*
%TO.N,Net-(A1-Pad9)*%
X170558485Y-75171485D02*
X169672000Y-74285000D01*
X170558485Y-93893000D02*
X170558485Y-75171485D01*
%TO.N,Net-(A1-Pad10)*%
X172212000Y-91069718D02*
X172212000Y-74285000D01*
X174677782Y-93535500D02*
X172212000Y-91069718D01*
%TO.N,Net-(A1-Pad7)*%
X116188000Y-94020000D02*
X128688000Y-94020000D01*
X114560500Y-92392500D02*
X116188000Y-94020000D01*
X112522000Y-92392500D02*
X114560500Y-92392500D01*
%TO.N,Net-(A1-Pad10)*%
X178929500Y-93535500D02*
X179414000Y-94020000D01*
X174677782Y-93535500D02*
X178929500Y-93535500D01*
%TO.N,Net-(A1-Pad8)*%
X137359891Y-94083500D02*
X149859891Y-94083500D01*
X136430891Y-93154500D02*
X137359891Y-94083500D01*
X133240594Y-93154500D02*
X136430891Y-93154500D01*
%TO.N,Net-(A1-Pad5)*%
X146790000Y-59404000D02*
X159512000Y-72126000D01*
X128428000Y-59404000D02*
X146790000Y-59404000D01*
%TO.N,Net-(A1-Pad9)*%
X154507188Y-93893000D02*
X153959188Y-93345000D01*
X158058485Y-93893000D02*
X154507188Y-93893000D01*
X170558485Y-93893000D02*
X158058485Y-93893000D01*
%TD*%
%TA.AperFunction,Conductor*%
%TO.N,/GND*%
G36*
X117832222Y-57154784D02*
G01*
X118176092Y-57173475D01*
X118190930Y-57175168D01*
X118526486Y-57233772D01*
X118541015Y-57237207D01*
X118639210Y-57266671D01*
X118867272Y-57335101D01*
X118881298Y-57340233D01*
X119193692Y-57476047D01*
X119207012Y-57482803D01*
X119504390Y-57656524D01*
X119510670Y-57660447D01*
X120701991Y-58454661D01*
X120735936Y-58488129D01*
X120847841Y-58650950D01*
X120850274Y-58654490D01*
X120853161Y-58657663D01*
X120853162Y-58657664D01*
X121021201Y-58842337D01*
X121034582Y-58857043D01*
X121037877Y-58859798D01*
X121037878Y-58859799D01*
X121086071Y-58900094D01*
X121244675Y-59032707D01*
X121248316Y-59034991D01*
X121473024Y-59175951D01*
X121473028Y-59175953D01*
X121476664Y-59178234D01*
X121601460Y-59234582D01*
X121722345Y-59289164D01*
X121722349Y-59289166D01*
X121726257Y-59290930D01*
X121730377Y-59292150D01*
X121730376Y-59292150D01*
X121984723Y-59367491D01*
X121984727Y-59367492D01*
X121988836Y-59368709D01*
X121993070Y-59369357D01*
X121993075Y-59369358D01*
X122070556Y-59381214D01*
X122121388Y-59400926D01*
X132080000Y-66040000D01*
X132977937Y-66046683D01*
X132977943Y-66046683D01*
X152631794Y-66192954D01*
X152699764Y-66213463D01*
X152719951Y-66229856D01*
X158841595Y-72351500D01*
X158875621Y-72413812D01*
X158878500Y-72440595D01*
X158878500Y-73065606D01*
X158858498Y-73133727D01*
X158824771Y-73168819D01*
X158672211Y-73275643D01*
X158672208Y-73275645D01*
X158667700Y-73278802D01*
X158505802Y-73440700D01*
X158374477Y-73628251D01*
X158372154Y-73633233D01*
X158372151Y-73633238D01*
X158333972Y-73715115D01*
X158277716Y-73835757D01*
X158276294Y-73841065D01*
X158276293Y-73841067D01*
X158233979Y-73998983D01*
X158218457Y-74056913D01*
X158198502Y-74285000D01*
X158218457Y-74513087D01*
X158277716Y-74734243D01*
X158280039Y-74739224D01*
X158280039Y-74739225D01*
X158372151Y-74936762D01*
X158372154Y-74936767D01*
X158374477Y-74941749D01*
X158505802Y-75129300D01*
X158667700Y-75291198D01*
X158672208Y-75294355D01*
X158672211Y-75294357D01*
X158750389Y-75349098D01*
X158855251Y-75422523D01*
X158860233Y-75424846D01*
X158860238Y-75424849D01*
X158931454Y-75458057D01*
X159062757Y-75519284D01*
X159068065Y-75520706D01*
X159068067Y-75520707D01*
X159278598Y-75577119D01*
X159278600Y-75577119D01*
X159283913Y-75578543D01*
X159512000Y-75598498D01*
X159740087Y-75578543D01*
X159745400Y-75577119D01*
X159745402Y-75577119D01*
X159955933Y-75520707D01*
X159955935Y-75520706D01*
X159961243Y-75519284D01*
X160092546Y-75458057D01*
X160163762Y-75424849D01*
X160163767Y-75424846D01*
X160168749Y-75422523D01*
X160273611Y-75349098D01*
X160351789Y-75294357D01*
X160351792Y-75294355D01*
X160356300Y-75291198D01*
X160518198Y-75129300D01*
X160649523Y-74941749D01*
X160651846Y-74936767D01*
X160651849Y-74936762D01*
X160667805Y-74902543D01*
X160714722Y-74849258D01*
X160782999Y-74829797D01*
X160850959Y-74850339D01*
X160896195Y-74902543D01*
X160912151Y-74936762D01*
X160912154Y-74936767D01*
X160914477Y-74941749D01*
X161045802Y-75129300D01*
X161207700Y-75291198D01*
X161212208Y-75294355D01*
X161212211Y-75294357D01*
X161290389Y-75349098D01*
X161395251Y-75422523D01*
X161400233Y-75424846D01*
X161400238Y-75424849D01*
X161471454Y-75458057D01*
X161602757Y-75519284D01*
X161608065Y-75520706D01*
X161608067Y-75520707D01*
X161818598Y-75577119D01*
X161818600Y-75577119D01*
X161823913Y-75578543D01*
X162052000Y-75598498D01*
X162280087Y-75578543D01*
X162285400Y-75577119D01*
X162285402Y-75577119D01*
X162495933Y-75520707D01*
X162495935Y-75520706D01*
X162501243Y-75519284D01*
X162632546Y-75458057D01*
X162703762Y-75424849D01*
X162703767Y-75424846D01*
X162708749Y-75422523D01*
X162813611Y-75349098D01*
X162891789Y-75294357D01*
X162891792Y-75294355D01*
X162896300Y-75291198D01*
X163058198Y-75129300D01*
X163189523Y-74941749D01*
X163191846Y-74936767D01*
X163191849Y-74936762D01*
X163207805Y-74902543D01*
X163254722Y-74849258D01*
X163322999Y-74829797D01*
X163390959Y-74850339D01*
X163436195Y-74902543D01*
X163452151Y-74936762D01*
X163452154Y-74936767D01*
X163454477Y-74941749D01*
X163585802Y-75129300D01*
X163706204Y-75249702D01*
X163740230Y-75312014D01*
X163735165Y-75382829D01*
X163706204Y-75427892D01*
X162334500Y-76799595D01*
X162272188Y-76833621D01*
X162245405Y-76836500D01*
X144858768Y-76836500D01*
X144847585Y-76835973D01*
X144840092Y-76834298D01*
X144832166Y-76834547D01*
X144832165Y-76834547D01*
X144772002Y-76836438D01*
X144768044Y-76836500D01*
X144740144Y-76836500D01*
X144736154Y-76837004D01*
X144724320Y-76837936D01*
X144680111Y-76839326D01*
X144672495Y-76841539D01*
X144672493Y-76841539D01*
X144660652Y-76844979D01*
X144641293Y-76848988D01*
X144639983Y-76849154D01*
X144621203Y-76851526D01*
X144613837Y-76854442D01*
X144613831Y-76854444D01*
X144580098Y-76867800D01*
X144568868Y-76871645D01*
X144534017Y-76881770D01*
X144526407Y-76883981D01*
X144519584Y-76888016D01*
X144508966Y-76894295D01*
X144491213Y-76902992D01*
X144483568Y-76906019D01*
X144472383Y-76910448D01*
X144465968Y-76915109D01*
X144436612Y-76936437D01*
X144426695Y-76942951D01*
X144388638Y-76965458D01*
X144374317Y-76979779D01*
X144359284Y-76992619D01*
X144342893Y-77004528D01*
X144337842Y-77010634D01*
X144314702Y-77038605D01*
X144306712Y-77047384D01*
X128804500Y-92549595D01*
X128742188Y-92583621D01*
X128715405Y-92586500D01*
X128029243Y-92586500D01*
X128026670Y-92586712D01*
X128026659Y-92586712D01*
X127859221Y-92600478D01*
X127859215Y-92600479D01*
X127854070Y-92600902D01*
X127625449Y-92658327D01*
X127409277Y-92752322D01*
X127211359Y-92880360D01*
X127207539Y-92883836D01*
X127207533Y-92883841D01*
X127040833Y-93035527D01*
X127037011Y-93039005D01*
X127033812Y-93043056D01*
X127033808Y-93043060D01*
X126928683Y-93176171D01*
X126890915Y-93223994D01*
X126888422Y-93228509D01*
X126888414Y-93228522D01*
X126837146Y-93321394D01*
X126786714Y-93371364D01*
X126726838Y-93386500D01*
X118149866Y-93386500D01*
X118081745Y-93366498D01*
X118038105Y-93318683D01*
X118004175Y-93253504D01*
X117997313Y-93244364D01*
X117865747Y-93069135D01*
X117865745Y-93069132D01*
X117862642Y-93065000D01*
X117721468Y-92930090D01*
X117695960Y-92905714D01*
X117695959Y-92905713D01*
X117692223Y-92902143D01*
X117497492Y-92769307D01*
X117492808Y-92767133D01*
X117492805Y-92767131D01*
X117288372Y-92672236D01*
X117288367Y-92672234D01*
X117283681Y-92670059D01*
X117056532Y-92607065D01*
X117019946Y-92603155D01*
X116867437Y-92586856D01*
X116867429Y-92586856D01*
X116864102Y-92586500D01*
X115702595Y-92586500D01*
X115634474Y-92566498D01*
X115613500Y-92549595D01*
X115064152Y-92000247D01*
X115056612Y-91991961D01*
X115052500Y-91985482D01*
X115038791Y-91972608D01*
X115002849Y-91938857D01*
X115000007Y-91936102D01*
X114980270Y-91916365D01*
X114977073Y-91913885D01*
X114968051Y-91906180D01*
X114941600Y-91881341D01*
X114935821Y-91875914D01*
X114928875Y-91872095D01*
X114928872Y-91872093D01*
X114918066Y-91866152D01*
X114901547Y-91855301D01*
X114901083Y-91854941D01*
X114885541Y-91842886D01*
X114878272Y-91839741D01*
X114878268Y-91839738D01*
X114844963Y-91825326D01*
X114834313Y-91820109D01*
X114795560Y-91798805D01*
X114775937Y-91793767D01*
X114757234Y-91787363D01*
X114745920Y-91782467D01*
X114745919Y-91782467D01*
X114738645Y-91779319D01*
X114730822Y-91778080D01*
X114730812Y-91778077D01*
X114694976Y-91772401D01*
X114683356Y-91769995D01*
X114648211Y-91760972D01*
X114648210Y-91760972D01*
X114640530Y-91759000D01*
X114620276Y-91759000D01*
X114600565Y-91757449D01*
X114588386Y-91755520D01*
X114580557Y-91754280D01*
X114572665Y-91755026D01*
X114536539Y-91758441D01*
X114524681Y-91759000D01*
X113619315Y-91759000D01*
X113551194Y-91738998D01*
X113516102Y-91705270D01*
X113451301Y-91612724D01*
X113301776Y-91463199D01*
X113128558Y-91341911D01*
X113123580Y-91339590D01*
X113123577Y-91339588D01*
X112941892Y-91254867D01*
X112941891Y-91254866D01*
X112936910Y-91252544D01*
X112931602Y-91251122D01*
X112931600Y-91251121D01*
X112737970Y-91199238D01*
X112737968Y-91199238D01*
X112732655Y-91197814D01*
X112522000Y-91179384D01*
X112311345Y-91197814D01*
X112306032Y-91199238D01*
X112306030Y-91199238D01*
X112112400Y-91251121D01*
X112112398Y-91251122D01*
X112107090Y-91252544D01*
X112102109Y-91254866D01*
X112102108Y-91254867D01*
X111920423Y-91339588D01*
X111920420Y-91339590D01*
X111915442Y-91341911D01*
X111742224Y-91463199D01*
X111592699Y-91612724D01*
X111471411Y-91785942D01*
X111469090Y-91790920D01*
X111469088Y-91790923D01*
X111399277Y-91940633D01*
X111382044Y-91977590D01*
X111380622Y-91982898D01*
X111380621Y-91982900D01*
X111348819Y-92101588D01*
X111327314Y-92181845D01*
X111308884Y-92392500D01*
X111327314Y-92603155D01*
X111328738Y-92608468D01*
X111328738Y-92608470D01*
X111366809Y-92750551D01*
X111382044Y-92807410D01*
X111384366Y-92812391D01*
X111384367Y-92812392D01*
X111457495Y-92969214D01*
X111471411Y-92999058D01*
X111592699Y-93172276D01*
X111742224Y-93321801D01*
X111915442Y-93443089D01*
X111920420Y-93445410D01*
X111920423Y-93445412D01*
X112102108Y-93530133D01*
X112107090Y-93532456D01*
X112112398Y-93533878D01*
X112112400Y-93533879D01*
X112306030Y-93585762D01*
X112306032Y-93585762D01*
X112311345Y-93587186D01*
X112522000Y-93605616D01*
X112732655Y-93587186D01*
X112737968Y-93585762D01*
X112737970Y-93585762D01*
X112931600Y-93533879D01*
X112931602Y-93533878D01*
X112936910Y-93532456D01*
X112941892Y-93530133D01*
X113123577Y-93445412D01*
X113123580Y-93445410D01*
X113128558Y-93443089D01*
X113301776Y-93321801D01*
X113451301Y-93172276D01*
X113516102Y-93079730D01*
X113571559Y-93035401D01*
X113619315Y-93026000D01*
X114245906Y-93026000D01*
X114314027Y-93046002D01*
X114335001Y-93062905D01*
X114361307Y-93089211D01*
X114395333Y-93151523D01*
X114390268Y-93222338D01*
X114382521Y-93239199D01*
X114312990Y-93365155D01*
X114276995Y-93430361D01*
X114275271Y-93435230D01*
X114275269Y-93435234D01*
X114214934Y-93605616D01*
X114198309Y-93652564D01*
X114197402Y-93657657D01*
X114197401Y-93657660D01*
X114173354Y-93792661D01*
X114156971Y-93884633D01*
X114154091Y-94120339D01*
X114189747Y-94353349D01*
X114262980Y-94577407D01*
X114265370Y-94581998D01*
X114351857Y-94748137D01*
X114371825Y-94786496D01*
X114374928Y-94790629D01*
X114374930Y-94790632D01*
X114510253Y-94970865D01*
X114513358Y-94975000D01*
X114683777Y-95137857D01*
X114878508Y-95270693D01*
X114883192Y-95272867D01*
X114883195Y-95272869D01*
X115087628Y-95367764D01*
X115087633Y-95367766D01*
X115092319Y-95369941D01*
X115319468Y-95432935D01*
X115324605Y-95433484D01*
X115508563Y-95453144D01*
X115508571Y-95453144D01*
X115511898Y-95453500D01*
X116846757Y-95453500D01*
X116849330Y-95453288D01*
X116849341Y-95453288D01*
X117016779Y-95439522D01*
X117016785Y-95439521D01*
X117021930Y-95439098D01*
X117250551Y-95381673D01*
X117466723Y-95287678D01*
X117664641Y-95159640D01*
X117679776Y-95145869D01*
X117835167Y-95004473D01*
X117835168Y-95004471D01*
X117838989Y-95000995D01*
X117842188Y-94996944D01*
X117842192Y-94996940D01*
X117959818Y-94848000D01*
X117985085Y-94816006D01*
X117987578Y-94811491D01*
X117987586Y-94811478D01*
X118038854Y-94718606D01*
X118089286Y-94668636D01*
X118149162Y-94653500D01*
X126726134Y-94653500D01*
X126794255Y-94673502D01*
X126837895Y-94721317D01*
X126871825Y-94786496D01*
X126874928Y-94790629D01*
X126874930Y-94790632D01*
X127010253Y-94970865D01*
X127013358Y-94975000D01*
X127183777Y-95137857D01*
X127378508Y-95270693D01*
X127383192Y-95272867D01*
X127383195Y-95272869D01*
X127587628Y-95367764D01*
X127587633Y-95367766D01*
X127592319Y-95369941D01*
X127819468Y-95432935D01*
X127824605Y-95433484D01*
X128008563Y-95453144D01*
X128008571Y-95453144D01*
X128011898Y-95453500D01*
X129346757Y-95453500D01*
X129349330Y-95453288D01*
X129349341Y-95453288D01*
X129516779Y-95439522D01*
X129516785Y-95439521D01*
X129521930Y-95439098D01*
X129750551Y-95381673D01*
X129966723Y-95287678D01*
X130164641Y-95159640D01*
X130179776Y-95145869D01*
X130335167Y-95004473D01*
X130335168Y-95004471D01*
X130338989Y-95000995D01*
X130342188Y-94996944D01*
X130342192Y-94996940D01*
X130481883Y-94820061D01*
X130481885Y-94820057D01*
X130485085Y-94816006D01*
X130502301Y-94784820D01*
X130561453Y-94677665D01*
X130599005Y-94609639D01*
X130607345Y-94586089D01*
X130675965Y-94392311D01*
X130675966Y-94392307D01*
X130677691Y-94387436D01*
X130678599Y-94382340D01*
X130718123Y-94160456D01*
X130718124Y-94160450D01*
X130719029Y-94155367D01*
X130721464Y-93956063D01*
X130721846Y-93924830D01*
X130721846Y-93924828D01*
X130721909Y-93919661D01*
X130686253Y-93686651D01*
X130613020Y-93462593D01*
X130504175Y-93253504D01*
X130497313Y-93244364D01*
X130365747Y-93069135D01*
X130365745Y-93069132D01*
X130362642Y-93065000D01*
X130342762Y-93046002D01*
X130311760Y-93016375D01*
X130276330Y-92954850D01*
X130279788Y-92883938D01*
X130309717Y-92836187D01*
X145005499Y-78140405D01*
X145067811Y-78106379D01*
X145094594Y-78103500D01*
X162481233Y-78103500D01*
X162492416Y-78104027D01*
X162499909Y-78105702D01*
X162507835Y-78105453D01*
X162507836Y-78105453D01*
X162567986Y-78103562D01*
X162571945Y-78103500D01*
X162599856Y-78103500D01*
X162603791Y-78103003D01*
X162603856Y-78102995D01*
X162615691Y-78102063D01*
X162629378Y-78101632D01*
X162698093Y-78119484D01*
X162746248Y-78171652D01*
X162758555Y-78241574D01*
X162731106Y-78307050D01*
X162722433Y-78316663D01*
X150283972Y-90755123D01*
X149467638Y-91571457D01*
X149459352Y-91578997D01*
X149452873Y-91583109D01*
X149447448Y-91588886D01*
X149406248Y-91632760D01*
X149403493Y-91635602D01*
X149383756Y-91655339D01*
X149381276Y-91658536D01*
X149373573Y-91667556D01*
X149343305Y-91699788D01*
X149339486Y-91706734D01*
X149339484Y-91706737D01*
X149333543Y-91717543D01*
X149322692Y-91734062D01*
X149310277Y-91750068D01*
X149307132Y-91757337D01*
X149307129Y-91757341D01*
X149292717Y-91790646D01*
X149287500Y-91801296D01*
X149266196Y-91840049D01*
X149264225Y-91847724D01*
X149264225Y-91847725D01*
X149261158Y-91859671D01*
X149254754Y-91878375D01*
X149253471Y-91881341D01*
X149246710Y-91896964D01*
X149245471Y-91904787D01*
X149245468Y-91904797D01*
X149239792Y-91940633D01*
X149237386Y-91952253D01*
X149232160Y-91972608D01*
X149226391Y-91995079D01*
X149226391Y-92015333D01*
X149224840Y-92035043D01*
X149221671Y-92055052D01*
X149222417Y-92062944D01*
X149225832Y-92099070D01*
X149226391Y-92110928D01*
X149226391Y-92531858D01*
X149206389Y-92599979D01*
X149152733Y-92646472D01*
X149110716Y-92657434D01*
X149099852Y-92658327D01*
X149031112Y-92663978D01*
X149031106Y-92663979D01*
X149025961Y-92664402D01*
X148797340Y-92721827D01*
X148581168Y-92815822D01*
X148383250Y-92943860D01*
X148379427Y-92947339D01*
X148379424Y-92947341D01*
X148214958Y-93096994D01*
X148208902Y-93102505D01*
X148205703Y-93106556D01*
X148205699Y-93106560D01*
X148116158Y-93219939D01*
X148062806Y-93287494D01*
X148060313Y-93292009D01*
X148060305Y-93292022D01*
X148009037Y-93384894D01*
X147958605Y-93434864D01*
X147898729Y-93450000D01*
X139321757Y-93450000D01*
X139253636Y-93429998D01*
X139209996Y-93382183D01*
X139176066Y-93317004D01*
X139153910Y-93287494D01*
X139037638Y-93132635D01*
X139037636Y-93132632D01*
X139034533Y-93128500D01*
X138864114Y-92965643D01*
X138669383Y-92832807D01*
X138664699Y-92830633D01*
X138664696Y-92830631D01*
X138460263Y-92735736D01*
X138460258Y-92735734D01*
X138455572Y-92733559D01*
X138228423Y-92670565D01*
X138210757Y-92668677D01*
X138039328Y-92650356D01*
X138039320Y-92650356D01*
X138035993Y-92650000D01*
X136860549Y-92650000D01*
X136799845Y-92634413D01*
X136788457Y-92628152D01*
X136771938Y-92617301D01*
X136762646Y-92610094D01*
X136755932Y-92604886D01*
X136748663Y-92601741D01*
X136748659Y-92601738D01*
X136715354Y-92587326D01*
X136704704Y-92582109D01*
X136665951Y-92560805D01*
X136646328Y-92555767D01*
X136627625Y-92549363D01*
X136616311Y-92544467D01*
X136616310Y-92544467D01*
X136609036Y-92541319D01*
X136601213Y-92540080D01*
X136601203Y-92540077D01*
X136565367Y-92534401D01*
X136553747Y-92531995D01*
X136518602Y-92522972D01*
X136518601Y-92522972D01*
X136510921Y-92521000D01*
X136490667Y-92521000D01*
X136470956Y-92519449D01*
X136458777Y-92517520D01*
X136450948Y-92516280D01*
X136443056Y-92517026D01*
X136406930Y-92520441D01*
X136395072Y-92521000D01*
X134337909Y-92521000D01*
X134269788Y-92500998D01*
X134234696Y-92467270D01*
X134196374Y-92412540D01*
X134169895Y-92374724D01*
X134020370Y-92225199D01*
X133847152Y-92103911D01*
X133842174Y-92101590D01*
X133842171Y-92101588D01*
X133660486Y-92016867D01*
X133660485Y-92016866D01*
X133655504Y-92014544D01*
X133650196Y-92013122D01*
X133650194Y-92013121D01*
X133456564Y-91961238D01*
X133456562Y-91961238D01*
X133451249Y-91959814D01*
X133240594Y-91941384D01*
X133029939Y-91959814D01*
X133024626Y-91961238D01*
X133024624Y-91961238D01*
X132830994Y-92013121D01*
X132830992Y-92013122D01*
X132825684Y-92014544D01*
X132820703Y-92016866D01*
X132820702Y-92016867D01*
X132639017Y-92101588D01*
X132639014Y-92101590D01*
X132634036Y-92103911D01*
X132460818Y-92225199D01*
X132311293Y-92374724D01*
X132190005Y-92547942D01*
X132187684Y-92552920D01*
X132187682Y-92552923D01*
X132104095Y-92732177D01*
X132100638Y-92739590D01*
X132099216Y-92744898D01*
X132099215Y-92744900D01*
X132048431Y-92934428D01*
X132045908Y-92943845D01*
X132027478Y-93154500D01*
X132045908Y-93365155D01*
X132047332Y-93370468D01*
X132047332Y-93370470D01*
X132098377Y-93560970D01*
X132100638Y-93569410D01*
X132102960Y-93574391D01*
X132102961Y-93574392D01*
X132186994Y-93754600D01*
X132190005Y-93761058D01*
X132311293Y-93934276D01*
X132460818Y-94083801D01*
X132634036Y-94205089D01*
X132639014Y-94207410D01*
X132639017Y-94207412D01*
X132782461Y-94274301D01*
X132825684Y-94294456D01*
X132830992Y-94295878D01*
X132830994Y-94295879D01*
X133024624Y-94347762D01*
X133024626Y-94347762D01*
X133029939Y-94349186D01*
X133240594Y-94367616D01*
X133451249Y-94349186D01*
X133456562Y-94347762D01*
X133456564Y-94347762D01*
X133650194Y-94295879D01*
X133650196Y-94295878D01*
X133655504Y-94294456D01*
X133698727Y-94274301D01*
X133842171Y-94207412D01*
X133842174Y-94207410D01*
X133847152Y-94205089D01*
X134020370Y-94083801D01*
X134169895Y-93934276D01*
X134234696Y-93841730D01*
X134290153Y-93797401D01*
X134337909Y-93788000D01*
X135206959Y-93788000D01*
X135275080Y-93808002D01*
X135321573Y-93861658D01*
X135331007Y-93936093D01*
X135328862Y-93948133D01*
X135328434Y-93983161D01*
X135326493Y-94142058D01*
X135325982Y-94183839D01*
X135361638Y-94416849D01*
X135434871Y-94640907D01*
X135543716Y-94849996D01*
X135546819Y-94854129D01*
X135546821Y-94854132D01*
X135680849Y-95032640D01*
X135685249Y-95038500D01*
X135688987Y-95042072D01*
X135810157Y-95157865D01*
X135855668Y-95201357D01*
X136050399Y-95334193D01*
X136055083Y-95336367D01*
X136055086Y-95336369D01*
X136259519Y-95431264D01*
X136259524Y-95431266D01*
X136264210Y-95433441D01*
X136491359Y-95496435D01*
X136496496Y-95496984D01*
X136680454Y-95516644D01*
X136680462Y-95516644D01*
X136683789Y-95517000D01*
X138018648Y-95517000D01*
X138021221Y-95516788D01*
X138021232Y-95516788D01*
X138188670Y-95503022D01*
X138188676Y-95503021D01*
X138193821Y-95502598D01*
X138422442Y-95445173D01*
X138638614Y-95351178D01*
X138836532Y-95223140D01*
X138860472Y-95201357D01*
X139007058Y-95067973D01*
X139007059Y-95067971D01*
X139010880Y-95064495D01*
X139014079Y-95060444D01*
X139014083Y-95060440D01*
X139128033Y-94916155D01*
X139156976Y-94879506D01*
X139159469Y-94874991D01*
X139159477Y-94874978D01*
X139210745Y-94782106D01*
X139261177Y-94732136D01*
X139321053Y-94717000D01*
X147898025Y-94717000D01*
X147966146Y-94737002D01*
X148009786Y-94784817D01*
X148043716Y-94849996D01*
X148046819Y-94854129D01*
X148046821Y-94854132D01*
X148180849Y-95032640D01*
X148185249Y-95038500D01*
X148188987Y-95042072D01*
X148310157Y-95157865D01*
X148355668Y-95201357D01*
X148550399Y-95334193D01*
X148555083Y-95336367D01*
X148555086Y-95336369D01*
X148759519Y-95431264D01*
X148759524Y-95431266D01*
X148764210Y-95433441D01*
X148991359Y-95496435D01*
X148996496Y-95496984D01*
X149180454Y-95516644D01*
X149180462Y-95516644D01*
X149183789Y-95517000D01*
X150518648Y-95517000D01*
X150521221Y-95516788D01*
X150521232Y-95516788D01*
X150688670Y-95503022D01*
X150688676Y-95503021D01*
X150693821Y-95502598D01*
X150922442Y-95445173D01*
X151138614Y-95351178D01*
X151336532Y-95223140D01*
X151360472Y-95201357D01*
X151507058Y-95067973D01*
X151507059Y-95067971D01*
X151510880Y-95064495D01*
X151514079Y-95060444D01*
X151514083Y-95060440D01*
X151653774Y-94883561D01*
X151653776Y-94883557D01*
X151656976Y-94879506D01*
X151770896Y-94673139D01*
X151775728Y-94659496D01*
X151847856Y-94455811D01*
X151847857Y-94455807D01*
X151849582Y-94450936D01*
X151850490Y-94445840D01*
X151890014Y-94223956D01*
X151890015Y-94223950D01*
X151890920Y-94218867D01*
X151892618Y-94079906D01*
X151893737Y-93988330D01*
X151893737Y-93988328D01*
X151893800Y-93983161D01*
X151858144Y-93750151D01*
X151784911Y-93526093D01*
X151683353Y-93331002D01*
X151678455Y-93321593D01*
X151678454Y-93321592D01*
X151676066Y-93317004D01*
X151653910Y-93287494D01*
X151537638Y-93132635D01*
X151537636Y-93132632D01*
X151534533Y-93128500D01*
X151364114Y-92965643D01*
X151169383Y-92832807D01*
X151164699Y-92830633D01*
X151164696Y-92830631D01*
X150960263Y-92735736D01*
X150960258Y-92735734D01*
X150955572Y-92733559D01*
X150728423Y-92670565D01*
X150606002Y-92657482D01*
X150540392Y-92630354D01*
X150499864Y-92572062D01*
X150493391Y-92532195D01*
X150493391Y-92389703D01*
X150513393Y-92321582D01*
X150530296Y-92300608D01*
X158869175Y-83961730D01*
X167209605Y-75621300D01*
X167271917Y-75587274D01*
X167287716Y-75584874D01*
X167360087Y-75578543D01*
X167540396Y-75530229D01*
X167575933Y-75520707D01*
X167575935Y-75520706D01*
X167581243Y-75519284D01*
X167712546Y-75458057D01*
X167783762Y-75424849D01*
X167783767Y-75424846D01*
X167788749Y-75422523D01*
X167893611Y-75349098D01*
X167971789Y-75294357D01*
X167971792Y-75294355D01*
X167976300Y-75291198D01*
X168138198Y-75129300D01*
X168269523Y-74941749D01*
X168271846Y-74936767D01*
X168271849Y-74936762D01*
X168287805Y-74902543D01*
X168334722Y-74849258D01*
X168402999Y-74829797D01*
X168470959Y-74850339D01*
X168516195Y-74902543D01*
X168532151Y-74936762D01*
X168532154Y-74936767D01*
X168534477Y-74941749D01*
X168665802Y-75129300D01*
X168827700Y-75291198D01*
X168832208Y-75294355D01*
X168832211Y-75294357D01*
X168910389Y-75349098D01*
X169015251Y-75422523D01*
X169020233Y-75424846D01*
X169020238Y-75424849D01*
X169091454Y-75458057D01*
X169222757Y-75519284D01*
X169228065Y-75520706D01*
X169228067Y-75520707D01*
X169438598Y-75577119D01*
X169438600Y-75577119D01*
X169443913Y-75578543D01*
X169672000Y-75598498D01*
X169788003Y-75588349D01*
X169857608Y-75602338D01*
X169908601Y-75651738D01*
X169924985Y-75713870D01*
X169924985Y-92341358D01*
X169904983Y-92409479D01*
X169851327Y-92455972D01*
X169809310Y-92466934D01*
X169793688Y-92468218D01*
X169729706Y-92473478D01*
X169729700Y-92473479D01*
X169724555Y-92473902D01*
X169495934Y-92531327D01*
X169279762Y-92625322D01*
X169081844Y-92753360D01*
X169078021Y-92756839D01*
X169078018Y-92756841D01*
X168911318Y-92908527D01*
X168907496Y-92912005D01*
X168904297Y-92916056D01*
X168904293Y-92916060D01*
X168825069Y-93016375D01*
X168761400Y-93096994D01*
X168758907Y-93101509D01*
X168758899Y-93101522D01*
X168707631Y-93194394D01*
X168657199Y-93244364D01*
X168597323Y-93259500D01*
X160020351Y-93259500D01*
X159952230Y-93239498D01*
X159908590Y-93191683D01*
X159874660Y-93126504D01*
X159852504Y-93096994D01*
X159736232Y-92942135D01*
X159736230Y-92942132D01*
X159733127Y-92938000D01*
X159637198Y-92846328D01*
X159566445Y-92778714D01*
X159566444Y-92778713D01*
X159562708Y-92775143D01*
X159367977Y-92642307D01*
X159363293Y-92640133D01*
X159363290Y-92640131D01*
X159158857Y-92545236D01*
X159158852Y-92545234D01*
X159154166Y-92543059D01*
X158927017Y-92480065D01*
X158921880Y-92479516D01*
X158737922Y-92459856D01*
X158737914Y-92459856D01*
X158734587Y-92459500D01*
X157399728Y-92459500D01*
X157397155Y-92459712D01*
X157397144Y-92459712D01*
X157229706Y-92473478D01*
X157229700Y-92473479D01*
X157224555Y-92473902D01*
X156995934Y-92531327D01*
X156779762Y-92625322D01*
X156581844Y-92753360D01*
X156578021Y-92756839D01*
X156578018Y-92756841D01*
X156411318Y-92908527D01*
X156407496Y-92912005D01*
X156404297Y-92916056D01*
X156404293Y-92916060D01*
X156325069Y-93016375D01*
X156261400Y-93096994D01*
X156258907Y-93101509D01*
X156258899Y-93101522D01*
X156207631Y-93194394D01*
X156157199Y-93244364D01*
X156097323Y-93259500D01*
X155280282Y-93259500D01*
X155212161Y-93239498D01*
X155165668Y-93185842D01*
X155154762Y-93144483D01*
X155154355Y-93139836D01*
X155154353Y-93139825D01*
X155153874Y-93134345D01*
X155146429Y-93106560D01*
X155100567Y-92935400D01*
X155100566Y-92935398D01*
X155099144Y-92930090D01*
X155086112Y-92902143D01*
X155012100Y-92743423D01*
X155012098Y-92743420D01*
X155009777Y-92738442D01*
X154888489Y-92565224D01*
X154738964Y-92415699D01*
X154565746Y-92294411D01*
X154560768Y-92292090D01*
X154560765Y-92292088D01*
X154379080Y-92207367D01*
X154379079Y-92207366D01*
X154374098Y-92205044D01*
X154368790Y-92203622D01*
X154368788Y-92203621D01*
X154175158Y-92151738D01*
X154175156Y-92151738D01*
X154169843Y-92150314D01*
X153959188Y-92131884D01*
X153748533Y-92150314D01*
X153743220Y-92151738D01*
X153743218Y-92151738D01*
X153549588Y-92203621D01*
X153549586Y-92203622D01*
X153544278Y-92205044D01*
X153539297Y-92207366D01*
X153539296Y-92207367D01*
X153357611Y-92292088D01*
X153357608Y-92292090D01*
X153352630Y-92294411D01*
X153179412Y-92415699D01*
X153029887Y-92565224D01*
X152908599Y-92738442D01*
X152906278Y-92743420D01*
X152906276Y-92743423D01*
X152832264Y-92902143D01*
X152819232Y-92930090D01*
X152817810Y-92935398D01*
X152817809Y-92935400D01*
X152771947Y-93106560D01*
X152764502Y-93134345D01*
X152746072Y-93345000D01*
X152764502Y-93555655D01*
X152765926Y-93560968D01*
X152765926Y-93560970D01*
X152816971Y-93751470D01*
X152819232Y-93759910D01*
X152821554Y-93764891D01*
X152821555Y-93764892D01*
X152905588Y-93945100D01*
X152908599Y-93951558D01*
X153029887Y-94124776D01*
X153179412Y-94274301D01*
X153352630Y-94395589D01*
X153357608Y-94397910D01*
X153357611Y-94397912D01*
X153501055Y-94464801D01*
X153544278Y-94484956D01*
X153549586Y-94486378D01*
X153549588Y-94486379D01*
X153743218Y-94538262D01*
X153743220Y-94538262D01*
X153748533Y-94539686D01*
X153959188Y-94558116D01*
X154169843Y-94539686D01*
X154189228Y-94534492D01*
X154281705Y-94509713D01*
X154334027Y-94506971D01*
X154372710Y-94513098D01*
X154384332Y-94515505D01*
X154419477Y-94524528D01*
X154427158Y-94526500D01*
X154447412Y-94526500D01*
X154467122Y-94528051D01*
X154487131Y-94531220D01*
X154495023Y-94530474D01*
X154531149Y-94527059D01*
X154543007Y-94526500D01*
X156096619Y-94526500D01*
X156164740Y-94546502D01*
X156208380Y-94594317D01*
X156242310Y-94659496D01*
X156245413Y-94663629D01*
X156245415Y-94663632D01*
X156380738Y-94843865D01*
X156383843Y-94848000D01*
X156387581Y-94851572D01*
X156547582Y-95004473D01*
X156554262Y-95010857D01*
X156748993Y-95143693D01*
X156753677Y-95145867D01*
X156753680Y-95145869D01*
X156958113Y-95240764D01*
X156958118Y-95240766D01*
X156962804Y-95242941D01*
X157189953Y-95305935D01*
X157195090Y-95306484D01*
X157379048Y-95326144D01*
X157379056Y-95326144D01*
X157382383Y-95326500D01*
X158717242Y-95326500D01*
X158719815Y-95326288D01*
X158719826Y-95326288D01*
X158887264Y-95312522D01*
X158887270Y-95312521D01*
X158892415Y-95312098D01*
X159121036Y-95254673D01*
X159337208Y-95160678D01*
X159535126Y-95032640D01*
X159559066Y-95010857D01*
X159705652Y-94877473D01*
X159705653Y-94877471D01*
X159709474Y-94873995D01*
X159712673Y-94869944D01*
X159712677Y-94869940D01*
X159833462Y-94717000D01*
X159855570Y-94689006D01*
X159858063Y-94684491D01*
X159858071Y-94684478D01*
X159909339Y-94591606D01*
X159959771Y-94541636D01*
X160019647Y-94526500D01*
X168596619Y-94526500D01*
X168664740Y-94546502D01*
X168708380Y-94594317D01*
X168742310Y-94659496D01*
X168745413Y-94663629D01*
X168745415Y-94663632D01*
X168880738Y-94843865D01*
X168883843Y-94848000D01*
X168887581Y-94851572D01*
X169047582Y-95004473D01*
X169054262Y-95010857D01*
X169248993Y-95143693D01*
X169253677Y-95145867D01*
X169253680Y-95145869D01*
X169458113Y-95240764D01*
X169458118Y-95240766D01*
X169462804Y-95242941D01*
X169689953Y-95305935D01*
X169695090Y-95306484D01*
X169879048Y-95326144D01*
X169879056Y-95326144D01*
X169882383Y-95326500D01*
X171217242Y-95326500D01*
X171219815Y-95326288D01*
X171219826Y-95326288D01*
X171387264Y-95312522D01*
X171387270Y-95312521D01*
X171392415Y-95312098D01*
X171621036Y-95254673D01*
X171837208Y-95160678D01*
X172035126Y-95032640D01*
X172059066Y-95010857D01*
X172205652Y-94877473D01*
X172205653Y-94877471D01*
X172209474Y-94873995D01*
X172212673Y-94869944D01*
X172212677Y-94869940D01*
X172352368Y-94693061D01*
X172352370Y-94693057D01*
X172355570Y-94689006D01*
X172362265Y-94676879D01*
X172409337Y-94591606D01*
X172469490Y-94482639D01*
X172478991Y-94455811D01*
X172546450Y-94265311D01*
X172546451Y-94265307D01*
X172548176Y-94260436D01*
X172554674Y-94223956D01*
X172588608Y-94033456D01*
X172588609Y-94033450D01*
X172589514Y-94028367D01*
X172591551Y-93861658D01*
X172592331Y-93797830D01*
X172592331Y-93797828D01*
X172592394Y-93792661D01*
X172556738Y-93559651D01*
X172483505Y-93335593D01*
X172408589Y-93191680D01*
X172377049Y-93131093D01*
X172377048Y-93131092D01*
X172374660Y-93126504D01*
X172352504Y-93096994D01*
X172236232Y-92942135D01*
X172236230Y-92942132D01*
X172233127Y-92938000D01*
X172137198Y-92846328D01*
X172066445Y-92778714D01*
X172066444Y-92778713D01*
X172062708Y-92775143D01*
X171867977Y-92642307D01*
X171863293Y-92640133D01*
X171863290Y-92640131D01*
X171658857Y-92545236D01*
X171658852Y-92545234D01*
X171654166Y-92543059D01*
X171427017Y-92480065D01*
X171304596Y-92466982D01*
X171238986Y-92439854D01*
X171198458Y-92381562D01*
X171191985Y-92341695D01*
X171191985Y-75410205D01*
X171211987Y-75342084D01*
X171265643Y-75295591D01*
X171335917Y-75285487D01*
X171390256Y-75306992D01*
X171524771Y-75401181D01*
X171569099Y-75456638D01*
X171578500Y-75504394D01*
X171578500Y-90990951D01*
X171577973Y-91002134D01*
X171576298Y-91009627D01*
X171576547Y-91017553D01*
X171576547Y-91017554D01*
X171578438Y-91077704D01*
X171578500Y-91081663D01*
X171578500Y-91109574D01*
X171578997Y-91113508D01*
X171578997Y-91113509D01*
X171579005Y-91113574D01*
X171579938Y-91125411D01*
X171581327Y-91169607D01*
X171584307Y-91179863D01*
X171586978Y-91189057D01*
X171590987Y-91208418D01*
X171593526Y-91228515D01*
X171596445Y-91235886D01*
X171596445Y-91235888D01*
X171609804Y-91269630D01*
X171613649Y-91280860D01*
X171625982Y-91323311D01*
X171630015Y-91330130D01*
X171630017Y-91330135D01*
X171636293Y-91340746D01*
X171644988Y-91358494D01*
X171652448Y-91377335D01*
X171657110Y-91383751D01*
X171657110Y-91383752D01*
X171678436Y-91413105D01*
X171684952Y-91423025D01*
X171707458Y-91461080D01*
X171721779Y-91475401D01*
X171734619Y-91490434D01*
X171746528Y-91506825D01*
X171752634Y-91511876D01*
X171780605Y-91535016D01*
X171789384Y-91543006D01*
X173450339Y-93203961D01*
X173484365Y-93266273D01*
X173485330Y-93314937D01*
X173484520Y-93319529D01*
X173483096Y-93324845D01*
X173464666Y-93535500D01*
X173483096Y-93746155D01*
X173484520Y-93751468D01*
X173484520Y-93751470D01*
X173534547Y-93938171D01*
X173537826Y-93950410D01*
X173540148Y-93955391D01*
X173540149Y-93955392D01*
X173620951Y-94128671D01*
X173627193Y-94142058D01*
X173748481Y-94315276D01*
X173898006Y-94464801D01*
X174071224Y-94586089D01*
X174076202Y-94588410D01*
X174076205Y-94588412D01*
X174237515Y-94663632D01*
X174262872Y-94675456D01*
X174268180Y-94676878D01*
X174268182Y-94676879D01*
X174461812Y-94728762D01*
X174461814Y-94728762D01*
X174467127Y-94730186D01*
X174677782Y-94748616D01*
X174888437Y-94730186D01*
X174893750Y-94728762D01*
X174893752Y-94728762D01*
X175087382Y-94676879D01*
X175087384Y-94676878D01*
X175092692Y-94675456D01*
X175118049Y-94663632D01*
X175279359Y-94588412D01*
X175279362Y-94588410D01*
X175284340Y-94586089D01*
X175457558Y-94464801D01*
X175607083Y-94315276D01*
X175671884Y-94222730D01*
X175727341Y-94178401D01*
X175775097Y-94169000D01*
X177279352Y-94169000D01*
X177347473Y-94189002D01*
X177393966Y-94242658D01*
X177403901Y-94275939D01*
X177415747Y-94353349D01*
X177488980Y-94577407D01*
X177491370Y-94581998D01*
X177577857Y-94748137D01*
X177597825Y-94786496D01*
X177600928Y-94790629D01*
X177600930Y-94790632D01*
X177736253Y-94970865D01*
X177739358Y-94975000D01*
X177909777Y-95137857D01*
X178104508Y-95270693D01*
X178109192Y-95272867D01*
X178109195Y-95272869D01*
X178313628Y-95367764D01*
X178313633Y-95367766D01*
X178318319Y-95369941D01*
X178545468Y-95432935D01*
X178550605Y-95433484D01*
X178734563Y-95453144D01*
X178734571Y-95453144D01*
X178737898Y-95453500D01*
X180072757Y-95453500D01*
X180075330Y-95453288D01*
X180075341Y-95453288D01*
X180242779Y-95439522D01*
X180242785Y-95439521D01*
X180247930Y-95439098D01*
X180476551Y-95381673D01*
X180692723Y-95287678D01*
X180890641Y-95159640D01*
X180905776Y-95145869D01*
X181061167Y-95004473D01*
X181061168Y-95004471D01*
X181064989Y-95000995D01*
X181068188Y-94996944D01*
X181068192Y-94996940D01*
X181207883Y-94820061D01*
X181207885Y-94820057D01*
X181211085Y-94816006D01*
X181228301Y-94784820D01*
X181287453Y-94677665D01*
X181325005Y-94609639D01*
X181333345Y-94586089D01*
X181401965Y-94392311D01*
X181401966Y-94392307D01*
X181403691Y-94387436D01*
X181404599Y-94382340D01*
X181444123Y-94160456D01*
X181444124Y-94160450D01*
X181445029Y-94155367D01*
X181447464Y-93956063D01*
X181447846Y-93924830D01*
X181447846Y-93924828D01*
X181447909Y-93919661D01*
X181412253Y-93686651D01*
X181339020Y-93462593D01*
X181230175Y-93253504D01*
X181223313Y-93244364D01*
X181091747Y-93069135D01*
X181091745Y-93069132D01*
X181088642Y-93065000D01*
X180947468Y-92930090D01*
X180921960Y-92905714D01*
X180921959Y-92905713D01*
X180918223Y-92902143D01*
X180723492Y-92769307D01*
X180718808Y-92767133D01*
X180718805Y-92767131D01*
X180514372Y-92672236D01*
X180514367Y-92672234D01*
X180509681Y-92670059D01*
X180282532Y-92607065D01*
X180245946Y-92603155D01*
X180093437Y-92586856D01*
X180093429Y-92586856D01*
X180090102Y-92586500D01*
X178755243Y-92586500D01*
X178752670Y-92586712D01*
X178752659Y-92586712D01*
X178585221Y-92600478D01*
X178585215Y-92600479D01*
X178580070Y-92600902D01*
X178351449Y-92658327D01*
X178135277Y-92752322D01*
X177937359Y-92880360D01*
X177936336Y-92878779D01*
X177877779Y-92901543D01*
X177867060Y-92902000D01*
X175775097Y-92902000D01*
X175706976Y-92881998D01*
X175671884Y-92848270D01*
X175659533Y-92830631D01*
X175607083Y-92755724D01*
X175457558Y-92606199D01*
X175284340Y-92484911D01*
X175279362Y-92482590D01*
X175279359Y-92482588D01*
X175097674Y-92397867D01*
X175097673Y-92397866D01*
X175092692Y-92395544D01*
X175087384Y-92394122D01*
X175087382Y-92394121D01*
X174893752Y-92342238D01*
X174893750Y-92342238D01*
X174888437Y-92340814D01*
X174677782Y-92322384D01*
X174672307Y-92322863D01*
X174472598Y-92340335D01*
X174472594Y-92340336D01*
X174467127Y-92340814D01*
X174461821Y-92342236D01*
X174457221Y-92343047D01*
X174386661Y-92335179D01*
X174346244Y-92308057D01*
X172882405Y-90844218D01*
X172848379Y-90781906D01*
X172845500Y-90755123D01*
X172845500Y-82769469D01*
X178932095Y-82769469D01*
X178932392Y-82774622D01*
X178932392Y-82774625D01*
X178938067Y-82873041D01*
X178945427Y-83000697D01*
X178946564Y-83005743D01*
X178946565Y-83005749D01*
X178976625Y-83139134D01*
X178996346Y-83226642D01*
X178998288Y-83231424D01*
X178998289Y-83231428D01*
X179075744Y-83422176D01*
X179083484Y-83441237D01*
X179204501Y-83638719D01*
X179356147Y-83813784D01*
X179534349Y-83961730D01*
X179734322Y-84078584D01*
X179950694Y-84161209D01*
X179955760Y-84162240D01*
X179955761Y-84162240D01*
X180008846Y-84173040D01*
X180177656Y-84207385D01*
X180308324Y-84212176D01*
X180403949Y-84215683D01*
X180403953Y-84215683D01*
X180409113Y-84215872D01*
X180414233Y-84215216D01*
X180414235Y-84215216D01*
X180487270Y-84205860D01*
X180638847Y-84186442D01*
X180643795Y-84184957D01*
X180643802Y-84184956D01*
X180855747Y-84121369D01*
X180860690Y-84119886D01*
X180868733Y-84115946D01*
X181064049Y-84020262D01*
X181064052Y-84020260D01*
X181068684Y-84017991D01*
X181257243Y-83883494D01*
X181421303Y-83720005D01*
X181556458Y-83531917D01*
X181603641Y-83436450D01*
X181656784Y-83328922D01*
X181656785Y-83328920D01*
X181659078Y-83324280D01*
X181726408Y-83102671D01*
X181756640Y-82873041D01*
X181758327Y-82804000D01*
X181747380Y-82670848D01*
X181739773Y-82578318D01*
X181739772Y-82578312D01*
X181739349Y-82573167D01*
X181682925Y-82348533D01*
X181680866Y-82343797D01*
X181592630Y-82140868D01*
X181592628Y-82140865D01*
X181590570Y-82136131D01*
X181464764Y-81941665D01*
X181308887Y-81770358D01*
X181304836Y-81767159D01*
X181304832Y-81767155D01*
X181131177Y-81630011D01*
X181131172Y-81630008D01*
X181127123Y-81626810D01*
X181122607Y-81624317D01*
X181122604Y-81624315D01*
X180928879Y-81517373D01*
X180928875Y-81517371D01*
X180924355Y-81514876D01*
X180919486Y-81513152D01*
X180919482Y-81513150D01*
X180710903Y-81439288D01*
X180710899Y-81439287D01*
X180706028Y-81437562D01*
X180700935Y-81436655D01*
X180700932Y-81436654D01*
X180483095Y-81397851D01*
X180483089Y-81397850D01*
X180478006Y-81396945D01*
X180405096Y-81396054D01*
X180251581Y-81394179D01*
X180251579Y-81394179D01*
X180246411Y-81394116D01*
X180017464Y-81429150D01*
X179797314Y-81501106D01*
X179792726Y-81503494D01*
X179792722Y-81503496D01*
X179766065Y-81517373D01*
X179591872Y-81608052D01*
X179587739Y-81611155D01*
X179587736Y-81611157D01*
X179410790Y-81744012D01*
X179406655Y-81747117D01*
X179246639Y-81914564D01*
X179243725Y-81918836D01*
X179243724Y-81918837D01*
X179228152Y-81941665D01*
X179116119Y-82105899D01*
X179018602Y-82315981D01*
X178956707Y-82539169D01*
X178932095Y-82769469D01*
X172845500Y-82769469D01*
X172845500Y-78512077D01*
X172865502Y-78443956D01*
X172919158Y-78397463D01*
X172989432Y-78387359D01*
X173054012Y-78416853D01*
X173093207Y-78479466D01*
X173104044Y-78519910D01*
X173193411Y-78711558D01*
X173314699Y-78884776D01*
X173464224Y-79034301D01*
X173637442Y-79155589D01*
X173642420Y-79157910D01*
X173642423Y-79157912D01*
X173824108Y-79242633D01*
X173829090Y-79244956D01*
X173834398Y-79246378D01*
X173834400Y-79246379D01*
X174028030Y-79298262D01*
X174028032Y-79298262D01*
X174033345Y-79299686D01*
X174244000Y-79318116D01*
X174454655Y-79299686D01*
X174459968Y-79298262D01*
X174459970Y-79298262D01*
X174653600Y-79246379D01*
X174653602Y-79246378D01*
X174658910Y-79244956D01*
X174663892Y-79242633D01*
X174845577Y-79157912D01*
X174845580Y-79157910D01*
X174850558Y-79155589D01*
X175023776Y-79034301D01*
X175173301Y-78884776D01*
X175294589Y-78711558D01*
X175383956Y-78519910D01*
X175438686Y-78315655D01*
X175457116Y-78105000D01*
X180650884Y-78105000D01*
X180669314Y-78315655D01*
X180724044Y-78519910D01*
X180813411Y-78711558D01*
X180934699Y-78884776D01*
X181084224Y-79034301D01*
X181257442Y-79155589D01*
X181262420Y-79157910D01*
X181262423Y-79157912D01*
X181444108Y-79242633D01*
X181449090Y-79244956D01*
X181454398Y-79246378D01*
X181454400Y-79246379D01*
X181648030Y-79298262D01*
X181648032Y-79298262D01*
X181653345Y-79299686D01*
X181864000Y-79318116D01*
X182074655Y-79299686D01*
X182079968Y-79298262D01*
X182079970Y-79298262D01*
X182273600Y-79246379D01*
X182273602Y-79246378D01*
X182278910Y-79244956D01*
X182283892Y-79242633D01*
X182465577Y-79157912D01*
X182465580Y-79157910D01*
X182470558Y-79155589D01*
X182643776Y-79034301D01*
X182793301Y-78884776D01*
X182914589Y-78711558D01*
X183003956Y-78519910D01*
X183058686Y-78315655D01*
X183077116Y-78105000D01*
X183058686Y-77894345D01*
X183003956Y-77690090D01*
X182914589Y-77498442D01*
X182793301Y-77325224D01*
X182643776Y-77175699D01*
X182470558Y-77054411D01*
X182465580Y-77052090D01*
X182465577Y-77052088D01*
X182283892Y-76967367D01*
X182283891Y-76967366D01*
X182278910Y-76965044D01*
X182273602Y-76963622D01*
X182273600Y-76963621D01*
X182079970Y-76911738D01*
X182079968Y-76911738D01*
X182074655Y-76910314D01*
X181864000Y-76891884D01*
X181653345Y-76910314D01*
X181648032Y-76911738D01*
X181648030Y-76911738D01*
X181454400Y-76963621D01*
X181454398Y-76963622D01*
X181449090Y-76965044D01*
X181444109Y-76967366D01*
X181444108Y-76967367D01*
X181262423Y-77052088D01*
X181262420Y-77052090D01*
X181257442Y-77054411D01*
X181084224Y-77175699D01*
X180934699Y-77325224D01*
X180813411Y-77498442D01*
X180724044Y-77690090D01*
X180669314Y-77894345D01*
X180650884Y-78105000D01*
X175457116Y-78105000D01*
X175438686Y-77894345D01*
X175383956Y-77690090D01*
X175294589Y-77498442D01*
X175173301Y-77325224D01*
X175023776Y-77175699D01*
X174850558Y-77054411D01*
X174845580Y-77052090D01*
X174845577Y-77052088D01*
X174663892Y-76967367D01*
X174663891Y-76967366D01*
X174658910Y-76965044D01*
X174653602Y-76963622D01*
X174653600Y-76963621D01*
X174459970Y-76911738D01*
X174459968Y-76911738D01*
X174454655Y-76910314D01*
X174244000Y-76891884D01*
X174033345Y-76910314D01*
X174028032Y-76911738D01*
X174028030Y-76911738D01*
X173834400Y-76963621D01*
X173834398Y-76963622D01*
X173829090Y-76965044D01*
X173824109Y-76967366D01*
X173824108Y-76967367D01*
X173642423Y-77052088D01*
X173642420Y-77052090D01*
X173637442Y-77054411D01*
X173464224Y-77175699D01*
X173314699Y-77325224D01*
X173193411Y-77498442D01*
X173104044Y-77690090D01*
X173102622Y-77695398D01*
X173102621Y-77695400D01*
X173093207Y-77730534D01*
X173056255Y-77791157D01*
X172992394Y-77822178D01*
X172921900Y-77813750D01*
X172867153Y-77768547D01*
X172845500Y-77697923D01*
X172845500Y-75504394D01*
X172865502Y-75436273D01*
X172899229Y-75401181D01*
X173051789Y-75294357D01*
X173051792Y-75294355D01*
X173056300Y-75291198D01*
X173218198Y-75129300D01*
X173349523Y-74941749D01*
X173351846Y-74936767D01*
X173351849Y-74936762D01*
X173367805Y-74902543D01*
X173414722Y-74849258D01*
X173482999Y-74829797D01*
X173550959Y-74850339D01*
X173596195Y-74902543D01*
X173612151Y-74936762D01*
X173612154Y-74936767D01*
X173614477Y-74941749D01*
X173745802Y-75129300D01*
X173907700Y-75291198D01*
X173912208Y-75294355D01*
X173912211Y-75294357D01*
X173990389Y-75349098D01*
X174095251Y-75422523D01*
X174100233Y-75424846D01*
X174100238Y-75424849D01*
X174171454Y-75458057D01*
X174302757Y-75519284D01*
X174308065Y-75520706D01*
X174308067Y-75520707D01*
X174518598Y-75577119D01*
X174518600Y-75577119D01*
X174523913Y-75578543D01*
X174752000Y-75598498D01*
X174980087Y-75578543D01*
X174985400Y-75577119D01*
X174985402Y-75577119D01*
X175195933Y-75520707D01*
X175195935Y-75520706D01*
X175201243Y-75519284D01*
X175332546Y-75458057D01*
X175403762Y-75424849D01*
X175403767Y-75424846D01*
X175408749Y-75422523D01*
X175513611Y-75349098D01*
X175591789Y-75294357D01*
X175591792Y-75294355D01*
X175596300Y-75291198D01*
X175758198Y-75129300D01*
X175889523Y-74941749D01*
X175891846Y-74936767D01*
X175891849Y-74936762D01*
X175907805Y-74902543D01*
X175954722Y-74849258D01*
X176022999Y-74829797D01*
X176090959Y-74850339D01*
X176136195Y-74902543D01*
X176152151Y-74936762D01*
X176152154Y-74936767D01*
X176154477Y-74941749D01*
X176285802Y-75129300D01*
X176447700Y-75291198D01*
X176452208Y-75294355D01*
X176452211Y-75294357D01*
X176530389Y-75349098D01*
X176635251Y-75422523D01*
X176640233Y-75424846D01*
X176640238Y-75424849D01*
X176711454Y-75458057D01*
X176842757Y-75519284D01*
X176848065Y-75520706D01*
X176848067Y-75520707D01*
X177058598Y-75577119D01*
X177058600Y-75577119D01*
X177063913Y-75578543D01*
X177292000Y-75598498D01*
X177520087Y-75578543D01*
X177525400Y-75577119D01*
X177525402Y-75577119D01*
X177735933Y-75520707D01*
X177735935Y-75520706D01*
X177741243Y-75519284D01*
X177872546Y-75458057D01*
X177943762Y-75424849D01*
X177943767Y-75424846D01*
X177948749Y-75422523D01*
X178053611Y-75349098D01*
X178131789Y-75294357D01*
X178131792Y-75294355D01*
X178136300Y-75291198D01*
X178298198Y-75129300D01*
X178429523Y-74941749D01*
X178431846Y-74936767D01*
X178431849Y-74936762D01*
X178447805Y-74902543D01*
X178494722Y-74849258D01*
X178562999Y-74829797D01*
X178630959Y-74850339D01*
X178676195Y-74902543D01*
X178692151Y-74936762D01*
X178692154Y-74936767D01*
X178694477Y-74941749D01*
X178825802Y-75129300D01*
X178987700Y-75291198D01*
X178992208Y-75294355D01*
X178992211Y-75294357D01*
X179070389Y-75349098D01*
X179175251Y-75422523D01*
X179180233Y-75424846D01*
X179180238Y-75424849D01*
X179251454Y-75458057D01*
X179382757Y-75519284D01*
X179388065Y-75520706D01*
X179388067Y-75520707D01*
X179598598Y-75577119D01*
X179598600Y-75577119D01*
X179603913Y-75578543D01*
X179832000Y-75598498D01*
X180060087Y-75578543D01*
X180065400Y-75577119D01*
X180065402Y-75577119D01*
X180275933Y-75520707D01*
X180275935Y-75520706D01*
X180281243Y-75519284D01*
X180412546Y-75458057D01*
X180483762Y-75424849D01*
X180483767Y-75424846D01*
X180488749Y-75422523D01*
X180593611Y-75349098D01*
X180671789Y-75294357D01*
X180671792Y-75294355D01*
X180676300Y-75291198D01*
X180838198Y-75129300D01*
X180969523Y-74941749D01*
X180971846Y-74936767D01*
X180971849Y-74936762D01*
X180987805Y-74902543D01*
X181034722Y-74849258D01*
X181102999Y-74829797D01*
X181170959Y-74850339D01*
X181216195Y-74902543D01*
X181232151Y-74936762D01*
X181232154Y-74936767D01*
X181234477Y-74941749D01*
X181365802Y-75129300D01*
X181527700Y-75291198D01*
X181532208Y-75294355D01*
X181532211Y-75294357D01*
X181610389Y-75349098D01*
X181715251Y-75422523D01*
X181720233Y-75424846D01*
X181720238Y-75424849D01*
X181791454Y-75458057D01*
X181922757Y-75519284D01*
X181928065Y-75520706D01*
X181928067Y-75520707D01*
X182138598Y-75577119D01*
X182138600Y-75577119D01*
X182143913Y-75578543D01*
X182372000Y-75598498D01*
X182600087Y-75578543D01*
X182605400Y-75577119D01*
X182605402Y-75577119D01*
X182815933Y-75520707D01*
X182815935Y-75520706D01*
X182821243Y-75519284D01*
X182952546Y-75458057D01*
X183023762Y-75424849D01*
X183023767Y-75424846D01*
X183028749Y-75422523D01*
X183133611Y-75349098D01*
X183211789Y-75294357D01*
X183211792Y-75294355D01*
X183216300Y-75291198D01*
X183378198Y-75129300D01*
X183509523Y-74941749D01*
X183511846Y-74936767D01*
X183511849Y-74936762D01*
X183527805Y-74902543D01*
X183574722Y-74849258D01*
X183642999Y-74829797D01*
X183710959Y-74850339D01*
X183756195Y-74902543D01*
X183772151Y-74936762D01*
X183772154Y-74936767D01*
X183774477Y-74941749D01*
X183905802Y-75129300D01*
X184067700Y-75291198D01*
X184072208Y-75294355D01*
X184072211Y-75294357D01*
X184150389Y-75349098D01*
X184255251Y-75422523D01*
X184260233Y-75424846D01*
X184260238Y-75424849D01*
X184331454Y-75458057D01*
X184462757Y-75519284D01*
X184468065Y-75520706D01*
X184468067Y-75520707D01*
X184678598Y-75577119D01*
X184678600Y-75577119D01*
X184683913Y-75578543D01*
X184912000Y-75598498D01*
X185140087Y-75578543D01*
X185145400Y-75577119D01*
X185145402Y-75577119D01*
X185355933Y-75520707D01*
X185355935Y-75520706D01*
X185361243Y-75519284D01*
X185492546Y-75458057D01*
X185563762Y-75424849D01*
X185563767Y-75424846D01*
X185568749Y-75422523D01*
X185673611Y-75349098D01*
X185751789Y-75294357D01*
X185751792Y-75294355D01*
X185756300Y-75291198D01*
X185918198Y-75129300D01*
X186049523Y-74941749D01*
X186051846Y-74936767D01*
X186051849Y-74936762D01*
X186143961Y-74739225D01*
X186143961Y-74739224D01*
X186146284Y-74734243D01*
X186205543Y-74513087D01*
X186225498Y-74285000D01*
X186205543Y-74056913D01*
X186190021Y-73998983D01*
X186147707Y-73841067D01*
X186147706Y-73841065D01*
X186146284Y-73835757D01*
X186090028Y-73715115D01*
X186051849Y-73633238D01*
X186051846Y-73633233D01*
X186049523Y-73628251D01*
X185918198Y-73440700D01*
X185756300Y-73278802D01*
X185751792Y-73275645D01*
X185751789Y-73275643D01*
X185599228Y-73168819D01*
X185568749Y-73147477D01*
X185563767Y-73145154D01*
X185563762Y-73145151D01*
X185366225Y-73053039D01*
X185366224Y-73053039D01*
X185361243Y-73050716D01*
X185355935Y-73049294D01*
X185355933Y-73049293D01*
X185145402Y-72992881D01*
X185145400Y-72992881D01*
X185140087Y-72991457D01*
X184912000Y-72971502D01*
X184683913Y-72991457D01*
X184678600Y-72992881D01*
X184678598Y-72992881D01*
X184468067Y-73049293D01*
X184468065Y-73049294D01*
X184462757Y-73050716D01*
X184457776Y-73053039D01*
X184457775Y-73053039D01*
X184260238Y-73145151D01*
X184260233Y-73145154D01*
X184255251Y-73147477D01*
X184224772Y-73168819D01*
X184072211Y-73275643D01*
X184072208Y-73275645D01*
X184067700Y-73278802D01*
X183905802Y-73440700D01*
X183774477Y-73628251D01*
X183772154Y-73633233D01*
X183772151Y-73633238D01*
X183756195Y-73667457D01*
X183709278Y-73720742D01*
X183641001Y-73740203D01*
X183573041Y-73719661D01*
X183527805Y-73667457D01*
X183511849Y-73633238D01*
X183511846Y-73633233D01*
X183509523Y-73628251D01*
X183378198Y-73440700D01*
X183216300Y-73278802D01*
X183211792Y-73275645D01*
X183211789Y-73275643D01*
X183059228Y-73168819D01*
X183028749Y-73147477D01*
X183023767Y-73145154D01*
X183023762Y-73145151D01*
X182826225Y-73053039D01*
X182826224Y-73053039D01*
X182821243Y-73050716D01*
X182815935Y-73049294D01*
X182815933Y-73049293D01*
X182605402Y-72992881D01*
X182605400Y-72992881D01*
X182600087Y-72991457D01*
X182372000Y-72971502D01*
X182143913Y-72991457D01*
X182138600Y-72992881D01*
X182138598Y-72992881D01*
X181928067Y-73049293D01*
X181928065Y-73049294D01*
X181922757Y-73050716D01*
X181917776Y-73053039D01*
X181917775Y-73053039D01*
X181720238Y-73145151D01*
X181720233Y-73145154D01*
X181715251Y-73147477D01*
X181684772Y-73168819D01*
X181532211Y-73275643D01*
X181532208Y-73275645D01*
X181527700Y-73278802D01*
X181365802Y-73440700D01*
X181234477Y-73628251D01*
X181232154Y-73633233D01*
X181232151Y-73633238D01*
X181216195Y-73667457D01*
X181169278Y-73720742D01*
X181101001Y-73740203D01*
X181033041Y-73719661D01*
X180987805Y-73667457D01*
X180971849Y-73633238D01*
X180971846Y-73633233D01*
X180969523Y-73628251D01*
X180838198Y-73440700D01*
X180676300Y-73278802D01*
X180671792Y-73275645D01*
X180671789Y-73275643D01*
X180519228Y-73168819D01*
X180488749Y-73147477D01*
X180483767Y-73145154D01*
X180483762Y-73145151D01*
X180286225Y-73053039D01*
X180286224Y-73053039D01*
X180281243Y-73050716D01*
X180275935Y-73049294D01*
X180275933Y-73049293D01*
X180065402Y-72992881D01*
X180065400Y-72992881D01*
X180060087Y-72991457D01*
X179832000Y-72971502D01*
X179603913Y-72991457D01*
X179598600Y-72992881D01*
X179598598Y-72992881D01*
X179388067Y-73049293D01*
X179388065Y-73049294D01*
X179382757Y-73050716D01*
X179377776Y-73053039D01*
X179377775Y-73053039D01*
X179180238Y-73145151D01*
X179180233Y-73145154D01*
X179175251Y-73147477D01*
X179144772Y-73168819D01*
X178992211Y-73275643D01*
X178992208Y-73275645D01*
X178987700Y-73278802D01*
X178825802Y-73440700D01*
X178694477Y-73628251D01*
X178692154Y-73633233D01*
X178692151Y-73633238D01*
X178676195Y-73667457D01*
X178629278Y-73720742D01*
X178561001Y-73740203D01*
X178493041Y-73719661D01*
X178447805Y-73667457D01*
X178431849Y-73633238D01*
X178431846Y-73633233D01*
X178429523Y-73628251D01*
X178298198Y-73440700D01*
X178136300Y-73278802D01*
X178131792Y-73275645D01*
X178131789Y-73275643D01*
X177979228Y-73168819D01*
X177948749Y-73147477D01*
X177943767Y-73145154D01*
X177943762Y-73145151D01*
X177746225Y-73053039D01*
X177746224Y-73053039D01*
X177741243Y-73050716D01*
X177735935Y-73049294D01*
X177735933Y-73049293D01*
X177525402Y-72992881D01*
X177525400Y-72992881D01*
X177520087Y-72991457D01*
X177292000Y-72971502D01*
X177063913Y-72991457D01*
X177058600Y-72992881D01*
X177058598Y-72992881D01*
X176848067Y-73049293D01*
X176848065Y-73049294D01*
X176842757Y-73050716D01*
X176837776Y-73053039D01*
X176837775Y-73053039D01*
X176640238Y-73145151D01*
X176640233Y-73145154D01*
X176635251Y-73147477D01*
X176604772Y-73168819D01*
X176452211Y-73275643D01*
X176452208Y-73275645D01*
X176447700Y-73278802D01*
X176285802Y-73440700D01*
X176154477Y-73628251D01*
X176152154Y-73633233D01*
X176152151Y-73633238D01*
X176136195Y-73667457D01*
X176089278Y-73720742D01*
X176021001Y-73740203D01*
X175953041Y-73719661D01*
X175907805Y-73667457D01*
X175891849Y-73633238D01*
X175891846Y-73633233D01*
X175889523Y-73628251D01*
X175758198Y-73440700D01*
X175596300Y-73278802D01*
X175591792Y-73275645D01*
X175591789Y-73275643D01*
X175439228Y-73168819D01*
X175408749Y-73147477D01*
X175403767Y-73145154D01*
X175403762Y-73145151D01*
X175206225Y-73053039D01*
X175206224Y-73053039D01*
X175201243Y-73050716D01*
X175195935Y-73049294D01*
X175195933Y-73049293D01*
X174985402Y-72992881D01*
X174985400Y-72992881D01*
X174980087Y-72991457D01*
X174752000Y-72971502D01*
X174523913Y-72991457D01*
X174518600Y-72992881D01*
X174518598Y-72992881D01*
X174308067Y-73049293D01*
X174308065Y-73049294D01*
X174302757Y-73050716D01*
X174297776Y-73053039D01*
X174297775Y-73053039D01*
X174100238Y-73145151D01*
X174100233Y-73145154D01*
X174095251Y-73147477D01*
X174064772Y-73168819D01*
X173912211Y-73275643D01*
X173912208Y-73275645D01*
X173907700Y-73278802D01*
X173745802Y-73440700D01*
X173614477Y-73628251D01*
X173612154Y-73633233D01*
X173612151Y-73633238D01*
X173596195Y-73667457D01*
X173549278Y-73720742D01*
X173481001Y-73740203D01*
X173413041Y-73719661D01*
X173367805Y-73667457D01*
X173351849Y-73633238D01*
X173351846Y-73633233D01*
X173349523Y-73628251D01*
X173218198Y-73440700D01*
X173056300Y-73278802D01*
X173051792Y-73275645D01*
X173051789Y-73275643D01*
X172899228Y-73168819D01*
X172868749Y-73147477D01*
X172863767Y-73145154D01*
X172863762Y-73145151D01*
X172666225Y-73053039D01*
X172666224Y-73053039D01*
X172661243Y-73050716D01*
X172655935Y-73049294D01*
X172655933Y-73049293D01*
X172445402Y-72992881D01*
X172445400Y-72992881D01*
X172440087Y-72991457D01*
X172212000Y-72971502D01*
X171983913Y-72991457D01*
X171978600Y-72992881D01*
X171978598Y-72992881D01*
X171768067Y-73049293D01*
X171768065Y-73049294D01*
X171762757Y-73050716D01*
X171757776Y-73053039D01*
X171757775Y-73053039D01*
X171560238Y-73145151D01*
X171560233Y-73145154D01*
X171555251Y-73147477D01*
X171524772Y-73168819D01*
X171372211Y-73275643D01*
X171372208Y-73275645D01*
X171367700Y-73278802D01*
X171205802Y-73440700D01*
X171074477Y-73628251D01*
X171072154Y-73633233D01*
X171072151Y-73633238D01*
X171056195Y-73667457D01*
X171009278Y-73720742D01*
X170941001Y-73740203D01*
X170873041Y-73719661D01*
X170827805Y-73667457D01*
X170811849Y-73633238D01*
X170811846Y-73633233D01*
X170809523Y-73628251D01*
X170678198Y-73440700D01*
X170516300Y-73278802D01*
X170511792Y-73275645D01*
X170511789Y-73275643D01*
X170359228Y-73168819D01*
X170328749Y-73147477D01*
X170323767Y-73145154D01*
X170323762Y-73145151D01*
X170126225Y-73053039D01*
X170126224Y-73053039D01*
X170121243Y-73050716D01*
X170115935Y-73049294D01*
X170115933Y-73049293D01*
X169905402Y-72992881D01*
X169905400Y-72992881D01*
X169900087Y-72991457D01*
X169672000Y-72971502D01*
X169443913Y-72991457D01*
X169438600Y-72992881D01*
X169438598Y-72992881D01*
X169228067Y-73049293D01*
X169228065Y-73049294D01*
X169222757Y-73050716D01*
X169217776Y-73053039D01*
X169217775Y-73053039D01*
X169020238Y-73145151D01*
X169020233Y-73145154D01*
X169015251Y-73147477D01*
X168984772Y-73168819D01*
X168832211Y-73275643D01*
X168832208Y-73275645D01*
X168827700Y-73278802D01*
X168665802Y-73440700D01*
X168534477Y-73628251D01*
X168532154Y-73633233D01*
X168532151Y-73633238D01*
X168516195Y-73667457D01*
X168469278Y-73720742D01*
X168401001Y-73740203D01*
X168333041Y-73719661D01*
X168287805Y-73667457D01*
X168271849Y-73633238D01*
X168271846Y-73633233D01*
X168269523Y-73628251D01*
X168138198Y-73440700D01*
X167976300Y-73278802D01*
X167971792Y-73275645D01*
X167971789Y-73275643D01*
X167819228Y-73168819D01*
X167788749Y-73147477D01*
X167783767Y-73145154D01*
X167783762Y-73145151D01*
X167586225Y-73053039D01*
X167586224Y-73053039D01*
X167581243Y-73050716D01*
X167575935Y-73049294D01*
X167575933Y-73049293D01*
X167365402Y-72992881D01*
X167365400Y-72992881D01*
X167360087Y-72991457D01*
X167132000Y-72971502D01*
X166903913Y-72991457D01*
X166898600Y-72992881D01*
X166898598Y-72992881D01*
X166688067Y-73049293D01*
X166688065Y-73049294D01*
X166682757Y-73050716D01*
X166677776Y-73053039D01*
X166677775Y-73053039D01*
X166480238Y-73145151D01*
X166480233Y-73145154D01*
X166475251Y-73147477D01*
X166444772Y-73168819D01*
X166292211Y-73275643D01*
X166292208Y-73275645D01*
X166287700Y-73278802D01*
X166125802Y-73440700D01*
X165994477Y-73628251D01*
X165992154Y-73633233D01*
X165992151Y-73633238D01*
X165976195Y-73667457D01*
X165929278Y-73720742D01*
X165861001Y-73740203D01*
X165793041Y-73719661D01*
X165747805Y-73667457D01*
X165731849Y-73633238D01*
X165731846Y-73633233D01*
X165729523Y-73628251D01*
X165598198Y-73440700D01*
X165436300Y-73278802D01*
X165431792Y-73275645D01*
X165431789Y-73275643D01*
X165279228Y-73168819D01*
X165248749Y-73147477D01*
X165243767Y-73145154D01*
X165243762Y-73145151D01*
X165046225Y-73053039D01*
X165046224Y-73053039D01*
X165041243Y-73050716D01*
X165035935Y-73049294D01*
X165035933Y-73049293D01*
X164825402Y-72992881D01*
X164825400Y-72992881D01*
X164820087Y-72991457D01*
X164592000Y-72971502D01*
X164363913Y-72991457D01*
X164358600Y-72992881D01*
X164358598Y-72992881D01*
X164148067Y-73049293D01*
X164148065Y-73049294D01*
X164142757Y-73050716D01*
X164137776Y-73053039D01*
X164137775Y-73053039D01*
X163940238Y-73145151D01*
X163940233Y-73145154D01*
X163935251Y-73147477D01*
X163904772Y-73168819D01*
X163752211Y-73275643D01*
X163752208Y-73275645D01*
X163747700Y-73278802D01*
X163585802Y-73440700D01*
X163454477Y-73628251D01*
X163452154Y-73633233D01*
X163452151Y-73633238D01*
X163436195Y-73667457D01*
X163389278Y-73720742D01*
X163321001Y-73740203D01*
X163253041Y-73719661D01*
X163207805Y-73667457D01*
X163191849Y-73633238D01*
X163191846Y-73633233D01*
X163189523Y-73628251D01*
X163058198Y-73440700D01*
X162896300Y-73278802D01*
X162891792Y-73275645D01*
X162891789Y-73275643D01*
X162739228Y-73168819D01*
X162708749Y-73147477D01*
X162703767Y-73145154D01*
X162703762Y-73145151D01*
X162506225Y-73053039D01*
X162506224Y-73053039D01*
X162501243Y-73050716D01*
X162495935Y-73049294D01*
X162495933Y-73049293D01*
X162285402Y-72992881D01*
X162285400Y-72992881D01*
X162280087Y-72991457D01*
X162052000Y-72971502D01*
X161823913Y-72991457D01*
X161818600Y-72992881D01*
X161818598Y-72992881D01*
X161608067Y-73049293D01*
X161608065Y-73049294D01*
X161602757Y-73050716D01*
X161597776Y-73053039D01*
X161597775Y-73053039D01*
X161400238Y-73145151D01*
X161400233Y-73145154D01*
X161395251Y-73147477D01*
X161364772Y-73168819D01*
X161212211Y-73275643D01*
X161212208Y-73275645D01*
X161207700Y-73278802D01*
X161045802Y-73440700D01*
X160914477Y-73628251D01*
X160912154Y-73633233D01*
X160912151Y-73633238D01*
X160896195Y-73667457D01*
X160849278Y-73720742D01*
X160781001Y-73740203D01*
X160713041Y-73719661D01*
X160667805Y-73667457D01*
X160651849Y-73633238D01*
X160651846Y-73633233D01*
X160649523Y-73628251D01*
X160518198Y-73440700D01*
X160356300Y-73278802D01*
X160351792Y-73275645D01*
X160351789Y-73275643D01*
X160199229Y-73168819D01*
X160154901Y-73113362D01*
X160145500Y-73065606D01*
X160145500Y-72204767D01*
X160146027Y-72193584D01*
X160147702Y-72186091D01*
X160145562Y-72118000D01*
X160145500Y-72114043D01*
X160145500Y-72086144D01*
X160144996Y-72082153D01*
X160144063Y-72070311D01*
X160142923Y-72034036D01*
X160142674Y-72026111D01*
X160140462Y-72018497D01*
X160140461Y-72018492D01*
X160137023Y-72006659D01*
X160133012Y-71987295D01*
X160131467Y-71975064D01*
X160130474Y-71967203D01*
X160127557Y-71959836D01*
X160127556Y-71959831D01*
X160114198Y-71926092D01*
X160110354Y-71914865D01*
X160100230Y-71880022D01*
X160098018Y-71872407D01*
X160087707Y-71854972D01*
X160079012Y-71837224D01*
X160071552Y-71818383D01*
X160045564Y-71782613D01*
X160039048Y-71772693D01*
X160020580Y-71741465D01*
X160020578Y-71741462D01*
X160016542Y-71734638D01*
X160002221Y-71720317D01*
X159989380Y-71705283D01*
X159982131Y-71695306D01*
X159977472Y-71688893D01*
X159943395Y-71660702D01*
X159934616Y-71652712D01*
X154706057Y-66424153D01*
X154672031Y-66361841D01*
X154677096Y-66291026D01*
X154719643Y-66234190D01*
X154786163Y-66209379D01*
X154796082Y-66209061D01*
X179841387Y-66395457D01*
X187490599Y-66452385D01*
X187497625Y-66452634D01*
X187821068Y-66473118D01*
X187835024Y-66474787D01*
X188036420Y-66510367D01*
X188150734Y-66530562D01*
X188164407Y-66533773D01*
X188471942Y-66624365D01*
X188485160Y-66629075D01*
X188780686Y-66753354D01*
X188793308Y-66759511D01*
X189073167Y-66915942D01*
X189085012Y-66923459D01*
X189239388Y-67033974D01*
X189345697Y-67110080D01*
X189356651Y-67118887D01*
X189594920Y-67333374D01*
X189604811Y-67343330D01*
X189817714Y-67583028D01*
X189826447Y-67594041D01*
X190011326Y-67855959D01*
X190018778Y-67867877D01*
X190173324Y-68148740D01*
X190179403Y-68161413D01*
X190301712Y-68457757D01*
X190306341Y-68471029D01*
X190394876Y-68779135D01*
X190397999Y-68792839D01*
X190451670Y-69108911D01*
X190453246Y-69122878D01*
X190471578Y-69446456D01*
X190471780Y-69453475D01*
X190473466Y-71601519D01*
X190481463Y-81791921D01*
X190461514Y-81860058D01*
X190446558Y-81879070D01*
X190412639Y-81914564D01*
X190409725Y-81918836D01*
X190409724Y-81918837D01*
X190394152Y-81941665D01*
X190282119Y-82105899D01*
X190184602Y-82315981D01*
X190122707Y-82539169D01*
X190098095Y-82769469D01*
X190098392Y-82774622D01*
X190098392Y-82774625D01*
X190104067Y-82873041D01*
X190111427Y-83000697D01*
X190112564Y-83005743D01*
X190112565Y-83005749D01*
X190142625Y-83139134D01*
X190162346Y-83226642D01*
X190164288Y-83231424D01*
X190164289Y-83231428D01*
X190241744Y-83422176D01*
X190249484Y-83441237D01*
X190370501Y-83638719D01*
X190373882Y-83642622D01*
X190452290Y-83733139D01*
X190481772Y-83797724D01*
X190483052Y-83815537D01*
X190490086Y-92778191D01*
X190470137Y-92846328D01*
X190441168Y-92877896D01*
X190437359Y-92880360D01*
X190433544Y-92883831D01*
X190433538Y-92883836D01*
X190266833Y-93035527D01*
X190263011Y-93039005D01*
X190259812Y-93043056D01*
X190259808Y-93043060D01*
X190132736Y-93203961D01*
X190116915Y-93223994D01*
X190002995Y-93430361D01*
X190001271Y-93435230D01*
X190001269Y-93435234D01*
X189940934Y-93605616D01*
X189924309Y-93652564D01*
X189923402Y-93657657D01*
X189923401Y-93657660D01*
X189899354Y-93792661D01*
X189882971Y-93884633D01*
X189880091Y-94120339D01*
X189915747Y-94353349D01*
X189988980Y-94577407D01*
X189991370Y-94581998D01*
X190077857Y-94748137D01*
X190097825Y-94786496D01*
X190100928Y-94790629D01*
X190100930Y-94790632D01*
X190236253Y-94970865D01*
X190239358Y-94975000D01*
X190409777Y-95137857D01*
X190414067Y-95140783D01*
X190437038Y-95156453D01*
X190482041Y-95211365D01*
X190492034Y-95260443D01*
X190494008Y-97775170D01*
X190474059Y-97843307D01*
X190444889Y-97875095D01*
X190441693Y-97877556D01*
X190437359Y-97880360D01*
X190433542Y-97883833D01*
X190433537Y-97883837D01*
X190339710Y-97969214D01*
X190263011Y-98039005D01*
X190259812Y-98043056D01*
X190259808Y-98043060D01*
X190190284Y-98131093D01*
X190116915Y-98223994D01*
X190002995Y-98430361D01*
X190001271Y-98435230D01*
X190001269Y-98435234D01*
X189926035Y-98647689D01*
X189924309Y-98652564D01*
X189923402Y-98657657D01*
X189923401Y-98657660D01*
X189899354Y-98792661D01*
X189882971Y-98884633D01*
X189880091Y-99120339D01*
X189915747Y-99353349D01*
X189988980Y-99577407D01*
X190097825Y-99786496D01*
X190100928Y-99790629D01*
X190100930Y-99790632D01*
X190236253Y-99970865D01*
X190239358Y-99975000D01*
X190409777Y-100137857D01*
X190414051Y-100140772D01*
X190414054Y-100140775D01*
X190440964Y-100159132D01*
X190485967Y-100214043D01*
X190495960Y-100263121D01*
X190497624Y-102382776D01*
X190497429Y-102389876D01*
X190479235Y-102716797D01*
X190477650Y-102730902D01*
X190423377Y-103050222D01*
X190420212Y-103064065D01*
X190330359Y-103375226D01*
X190325657Y-103388626D01*
X190201358Y-103687710D01*
X190195178Y-103700495D01*
X190038013Y-103983697D01*
X190030433Y-103995705D01*
X189842409Y-104259411D01*
X189833527Y-104270490D01*
X189617019Y-104511371D01*
X189606948Y-104521379D01*
X189587666Y-104538492D01*
X189364704Y-104736372D01*
X189353569Y-104745184D01*
X189208954Y-104846930D01*
X189088683Y-104931548D01*
X189076632Y-104939049D01*
X188792453Y-105094425D01*
X188779630Y-105100525D01*
X188479763Y-105222942D01*
X188466342Y-105227558D01*
X188243676Y-105290341D01*
X188154606Y-105315455D01*
X188140743Y-105318532D01*
X187821110Y-105370791D01*
X187806989Y-105372289D01*
X187550365Y-105384952D01*
X187479942Y-105388427D01*
X187472849Y-105388577D01*
X180231273Y-105337328D01*
X125840366Y-104952406D01*
X110971621Y-104847180D01*
X110964530Y-104846930D01*
X110638082Y-104826205D01*
X110623998Y-104824511D01*
X110305443Y-104767844D01*
X110291638Y-104764577D01*
X109981475Y-104672461D01*
X109968125Y-104667663D01*
X109900997Y-104639176D01*
X109670275Y-104541264D01*
X109657567Y-104535004D01*
X109375811Y-104375924D01*
X109363870Y-104368265D01*
X109213513Y-104259411D01*
X109101782Y-104178521D01*
X109090788Y-104169576D01*
X108851694Y-103951578D01*
X108841776Y-103941456D01*
X108628700Y-103697960D01*
X108619977Y-103686779D01*
X108435618Y-103420869D01*
X108428204Y-103408774D01*
X108413833Y-103382062D01*
X108274914Y-103123843D01*
X108268908Y-103110995D01*
X108148618Y-102810639D01*
X108144093Y-102797194D01*
X108125871Y-102730909D01*
X108058324Y-102485206D01*
X108055340Y-102471338D01*
X108005188Y-102151704D01*
X108003781Y-102137589D01*
X107989721Y-101810776D01*
X107989616Y-101803680D01*
X108006777Y-100516644D01*
X108025394Y-99120339D01*
X114154091Y-99120339D01*
X114189747Y-99353349D01*
X114262980Y-99577407D01*
X114371825Y-99786496D01*
X114374928Y-99790629D01*
X114374930Y-99790632D01*
X114510253Y-99970865D01*
X114513358Y-99975000D01*
X114683777Y-100137857D01*
X114878508Y-100270693D01*
X114883192Y-100272867D01*
X114883195Y-100272869D01*
X115087628Y-100367764D01*
X115087633Y-100367766D01*
X115092319Y-100369941D01*
X115319468Y-100432935D01*
X115324605Y-100433484D01*
X115508563Y-100453144D01*
X115508571Y-100453144D01*
X115511898Y-100453500D01*
X116846757Y-100453500D01*
X116849330Y-100453288D01*
X116849341Y-100453288D01*
X117016779Y-100439522D01*
X117016785Y-100439521D01*
X117021930Y-100439098D01*
X117250551Y-100381673D01*
X117466723Y-100287678D01*
X117664641Y-100159640D01*
X117679776Y-100145869D01*
X117835167Y-100004473D01*
X117835168Y-100004471D01*
X117838989Y-100000995D01*
X117842188Y-99996944D01*
X117842192Y-99996940D01*
X117981883Y-99820061D01*
X117981885Y-99820057D01*
X117985085Y-99816006D01*
X118099005Y-99609639D01*
X118108794Y-99581998D01*
X118175965Y-99392311D01*
X118175966Y-99392307D01*
X118177691Y-99387436D01*
X118178599Y-99382340D01*
X118218123Y-99160456D01*
X118218124Y-99160450D01*
X118219029Y-99155367D01*
X118219457Y-99120339D01*
X126654091Y-99120339D01*
X126689747Y-99353349D01*
X126762980Y-99577407D01*
X126871825Y-99786496D01*
X126874928Y-99790629D01*
X126874930Y-99790632D01*
X127010253Y-99970865D01*
X127013358Y-99975000D01*
X127183777Y-100137857D01*
X127378508Y-100270693D01*
X127383192Y-100272867D01*
X127383195Y-100272869D01*
X127587628Y-100367764D01*
X127587633Y-100367766D01*
X127592319Y-100369941D01*
X127819468Y-100432935D01*
X127824605Y-100433484D01*
X128008563Y-100453144D01*
X128008571Y-100453144D01*
X128011898Y-100453500D01*
X129346757Y-100453500D01*
X129349330Y-100453288D01*
X129349341Y-100453288D01*
X129516779Y-100439522D01*
X129516785Y-100439521D01*
X129521930Y-100439098D01*
X129750551Y-100381673D01*
X129966723Y-100287678D01*
X130164641Y-100159640D01*
X130179776Y-100145869D01*
X130335167Y-100004473D01*
X130335168Y-100004471D01*
X130338989Y-100000995D01*
X130342188Y-99996944D01*
X130342192Y-99996940D01*
X130481883Y-99820061D01*
X130481885Y-99820057D01*
X130485085Y-99816006D01*
X130599005Y-99609639D01*
X130608794Y-99581998D01*
X130675965Y-99392311D01*
X130675966Y-99392307D01*
X130677691Y-99387436D01*
X130678599Y-99382340D01*
X130713958Y-99183839D01*
X135325982Y-99183839D01*
X135361638Y-99416849D01*
X135434871Y-99640907D01*
X135543716Y-99849996D01*
X135546819Y-99854129D01*
X135546821Y-99854132D01*
X135680849Y-100032640D01*
X135685249Y-100038500D01*
X135688987Y-100042072D01*
X135810157Y-100157865D01*
X135855668Y-100201357D01*
X136050399Y-100334193D01*
X136055083Y-100336367D01*
X136055086Y-100336369D01*
X136259519Y-100431264D01*
X136259524Y-100431266D01*
X136264210Y-100433441D01*
X136491359Y-100496435D01*
X136496496Y-100496984D01*
X136680454Y-100516644D01*
X136680462Y-100516644D01*
X136683789Y-100517000D01*
X138018648Y-100517000D01*
X138021221Y-100516788D01*
X138021232Y-100516788D01*
X138188670Y-100503022D01*
X138188676Y-100503021D01*
X138193821Y-100502598D01*
X138422442Y-100445173D01*
X138638614Y-100351178D01*
X138836532Y-100223140D01*
X138846530Y-100214043D01*
X139007058Y-100067973D01*
X139007059Y-100067971D01*
X139010880Y-100064495D01*
X139014079Y-100060444D01*
X139014083Y-100060440D01*
X139153774Y-99883561D01*
X139153776Y-99883557D01*
X139156976Y-99879506D01*
X139270896Y-99673139D01*
X139275728Y-99659496D01*
X139347856Y-99455811D01*
X139347857Y-99455807D01*
X139349582Y-99450936D01*
X139350490Y-99445840D01*
X139390014Y-99223956D01*
X139390015Y-99223950D01*
X139390920Y-99218867D01*
X139391348Y-99183839D01*
X147825982Y-99183839D01*
X147861638Y-99416849D01*
X147934871Y-99640907D01*
X148043716Y-99849996D01*
X148046819Y-99854129D01*
X148046821Y-99854132D01*
X148180849Y-100032640D01*
X148185249Y-100038500D01*
X148188987Y-100042072D01*
X148310157Y-100157865D01*
X148355668Y-100201357D01*
X148550399Y-100334193D01*
X148555083Y-100336367D01*
X148555086Y-100336369D01*
X148759519Y-100431264D01*
X148759524Y-100431266D01*
X148764210Y-100433441D01*
X148991359Y-100496435D01*
X148996496Y-100496984D01*
X149180454Y-100516644D01*
X149180462Y-100516644D01*
X149183789Y-100517000D01*
X150518648Y-100517000D01*
X150521221Y-100516788D01*
X150521232Y-100516788D01*
X150688670Y-100503022D01*
X150688676Y-100503021D01*
X150693821Y-100502598D01*
X150922442Y-100445173D01*
X151138614Y-100351178D01*
X151336532Y-100223140D01*
X151346530Y-100214043D01*
X151507058Y-100067973D01*
X151507059Y-100067971D01*
X151510880Y-100064495D01*
X151514079Y-100060444D01*
X151514083Y-100060440D01*
X151653774Y-99883561D01*
X151653776Y-99883557D01*
X151656976Y-99879506D01*
X151770896Y-99673139D01*
X151775728Y-99659496D01*
X151847856Y-99455811D01*
X151847857Y-99455807D01*
X151849582Y-99450936D01*
X151850490Y-99445840D01*
X151890014Y-99223956D01*
X151890015Y-99223950D01*
X151890920Y-99218867D01*
X151892187Y-99115170D01*
X151893676Y-98993339D01*
X156024576Y-98993339D01*
X156060232Y-99226349D01*
X156133465Y-99450407D01*
X156242310Y-99659496D01*
X156245413Y-99663629D01*
X156245415Y-99663632D01*
X156380738Y-99843865D01*
X156383843Y-99848000D01*
X156387581Y-99851572D01*
X156547582Y-100004473D01*
X156554262Y-100010857D01*
X156748993Y-100143693D01*
X156753677Y-100145867D01*
X156753680Y-100145869D01*
X156958113Y-100240764D01*
X156958118Y-100240766D01*
X156962804Y-100242941D01*
X157189953Y-100305935D01*
X157195090Y-100306484D01*
X157379048Y-100326144D01*
X157379056Y-100326144D01*
X157382383Y-100326500D01*
X158717242Y-100326500D01*
X158719815Y-100326288D01*
X158719826Y-100326288D01*
X158887264Y-100312522D01*
X158887270Y-100312521D01*
X158892415Y-100312098D01*
X159121036Y-100254673D01*
X159337208Y-100160678D01*
X159535126Y-100032640D01*
X159559066Y-100010857D01*
X159705652Y-99877473D01*
X159705653Y-99877471D01*
X159709474Y-99873995D01*
X159712673Y-99869944D01*
X159712677Y-99869940D01*
X159852368Y-99693061D01*
X159852370Y-99693057D01*
X159855570Y-99689006D01*
X159969490Y-99482639D01*
X159978991Y-99455811D01*
X160046450Y-99265311D01*
X160046451Y-99265307D01*
X160048176Y-99260436D01*
X160049084Y-99255340D01*
X160088608Y-99033456D01*
X160088609Y-99033450D01*
X160089514Y-99028367D01*
X160089942Y-98993339D01*
X168524576Y-98993339D01*
X168560232Y-99226349D01*
X168633465Y-99450407D01*
X168742310Y-99659496D01*
X168745413Y-99663629D01*
X168745415Y-99663632D01*
X168880738Y-99843865D01*
X168883843Y-99848000D01*
X168887581Y-99851572D01*
X169047582Y-100004473D01*
X169054262Y-100010857D01*
X169248993Y-100143693D01*
X169253677Y-100145867D01*
X169253680Y-100145869D01*
X169458113Y-100240764D01*
X169458118Y-100240766D01*
X169462804Y-100242941D01*
X169689953Y-100305935D01*
X169695090Y-100306484D01*
X169879048Y-100326144D01*
X169879056Y-100326144D01*
X169882383Y-100326500D01*
X171217242Y-100326500D01*
X171219815Y-100326288D01*
X171219826Y-100326288D01*
X171387264Y-100312522D01*
X171387270Y-100312521D01*
X171392415Y-100312098D01*
X171621036Y-100254673D01*
X171837208Y-100160678D01*
X172035126Y-100032640D01*
X172059066Y-100010857D01*
X172205652Y-99877473D01*
X172205653Y-99877471D01*
X172209474Y-99873995D01*
X172212673Y-99869944D01*
X172212677Y-99869940D01*
X172352368Y-99693061D01*
X172352370Y-99693057D01*
X172355570Y-99689006D01*
X172469490Y-99482639D01*
X172478991Y-99455811D01*
X172546450Y-99265311D01*
X172546451Y-99265307D01*
X172548176Y-99260436D01*
X172549084Y-99255340D01*
X172573132Y-99120339D01*
X177380091Y-99120339D01*
X177415747Y-99353349D01*
X177488980Y-99577407D01*
X177597825Y-99786496D01*
X177600928Y-99790629D01*
X177600930Y-99790632D01*
X177736253Y-99970865D01*
X177739358Y-99975000D01*
X177909777Y-100137857D01*
X178104508Y-100270693D01*
X178109192Y-100272867D01*
X178109195Y-100272869D01*
X178313628Y-100367764D01*
X178313633Y-100367766D01*
X178318319Y-100369941D01*
X178545468Y-100432935D01*
X178550605Y-100433484D01*
X178734563Y-100453144D01*
X178734571Y-100453144D01*
X178737898Y-100453500D01*
X180072757Y-100453500D01*
X180075330Y-100453288D01*
X180075341Y-100453288D01*
X180242779Y-100439522D01*
X180242785Y-100439521D01*
X180247930Y-100439098D01*
X180476551Y-100381673D01*
X180692723Y-100287678D01*
X180890641Y-100159640D01*
X180905776Y-100145869D01*
X181061167Y-100004473D01*
X181061168Y-100004471D01*
X181064989Y-100000995D01*
X181068188Y-99996944D01*
X181068192Y-99996940D01*
X181207883Y-99820061D01*
X181207885Y-99820057D01*
X181211085Y-99816006D01*
X181325005Y-99609639D01*
X181334794Y-99581998D01*
X181401965Y-99392311D01*
X181401966Y-99392307D01*
X181403691Y-99387436D01*
X181404599Y-99382340D01*
X181444123Y-99160456D01*
X181444124Y-99160450D01*
X181445029Y-99155367D01*
X181447909Y-98919661D01*
X181412253Y-98686651D01*
X181339020Y-98462593D01*
X181230175Y-98253504D01*
X181211415Y-98228517D01*
X181091747Y-98069135D01*
X181091745Y-98069132D01*
X181088642Y-98065000D01*
X180928543Y-97912005D01*
X180921960Y-97905714D01*
X180921959Y-97905713D01*
X180918223Y-97902143D01*
X180723492Y-97769307D01*
X180718808Y-97767133D01*
X180718805Y-97767131D01*
X180514372Y-97672236D01*
X180514367Y-97672234D01*
X180509681Y-97670059D01*
X180282532Y-97607065D01*
X180277395Y-97606516D01*
X180093437Y-97586856D01*
X180093429Y-97586856D01*
X180090102Y-97586500D01*
X178755243Y-97586500D01*
X178752670Y-97586712D01*
X178752659Y-97586712D01*
X178585221Y-97600478D01*
X178585215Y-97600479D01*
X178580070Y-97600902D01*
X178351449Y-97658327D01*
X178135277Y-97752322D01*
X177937359Y-97880360D01*
X177933538Y-97883837D01*
X177933533Y-97883841D01*
X177839710Y-97969214D01*
X177763011Y-98039005D01*
X177759812Y-98043056D01*
X177759808Y-98043060D01*
X177690284Y-98131093D01*
X177616915Y-98223994D01*
X177502995Y-98430361D01*
X177501271Y-98435230D01*
X177501269Y-98435234D01*
X177426035Y-98647689D01*
X177424309Y-98652564D01*
X177423402Y-98657657D01*
X177423401Y-98657660D01*
X177399354Y-98792661D01*
X177382971Y-98884633D01*
X177380091Y-99120339D01*
X172573132Y-99120339D01*
X172588608Y-99033456D01*
X172588609Y-99033450D01*
X172589514Y-99028367D01*
X172592394Y-98792661D01*
X172556738Y-98559651D01*
X172483505Y-98335593D01*
X172374660Y-98126504D01*
X172355900Y-98101517D01*
X172236232Y-97942135D01*
X172236230Y-97942132D01*
X172233127Y-97938000D01*
X172123050Y-97832807D01*
X172066445Y-97778714D01*
X172066444Y-97778713D01*
X172062708Y-97775143D01*
X171867977Y-97642307D01*
X171863293Y-97640133D01*
X171863290Y-97640131D01*
X171658857Y-97545236D01*
X171658852Y-97545234D01*
X171654166Y-97543059D01*
X171427017Y-97480065D01*
X171421880Y-97479516D01*
X171237922Y-97459856D01*
X171237914Y-97459856D01*
X171234587Y-97459500D01*
X169899728Y-97459500D01*
X169897155Y-97459712D01*
X169897144Y-97459712D01*
X169729706Y-97473478D01*
X169729700Y-97473479D01*
X169724555Y-97473902D01*
X169495934Y-97531327D01*
X169279762Y-97625322D01*
X169081844Y-97753360D01*
X169078021Y-97756839D01*
X169078018Y-97756841D01*
X168911318Y-97908527D01*
X168907496Y-97912005D01*
X168904297Y-97916056D01*
X168904293Y-97916060D01*
X168764602Y-98092939D01*
X168761400Y-98096994D01*
X168647480Y-98303361D01*
X168645756Y-98308230D01*
X168645754Y-98308234D01*
X168578295Y-98498734D01*
X168568794Y-98525564D01*
X168567887Y-98530657D01*
X168567886Y-98530660D01*
X168528789Y-98750151D01*
X168527456Y-98757633D01*
X168527028Y-98792661D01*
X168525191Y-98943044D01*
X168524576Y-98993339D01*
X160089942Y-98993339D01*
X160092394Y-98792661D01*
X160056738Y-98559651D01*
X159983505Y-98335593D01*
X159874660Y-98126504D01*
X159855900Y-98101517D01*
X159736232Y-97942135D01*
X159736230Y-97942132D01*
X159733127Y-97938000D01*
X159623050Y-97832807D01*
X159566445Y-97778714D01*
X159566444Y-97778713D01*
X159562708Y-97775143D01*
X159367977Y-97642307D01*
X159363293Y-97640133D01*
X159363290Y-97640131D01*
X159158857Y-97545236D01*
X159158852Y-97545234D01*
X159154166Y-97543059D01*
X158927017Y-97480065D01*
X158921880Y-97479516D01*
X158737922Y-97459856D01*
X158737914Y-97459856D01*
X158734587Y-97459500D01*
X157399728Y-97459500D01*
X157397155Y-97459712D01*
X157397144Y-97459712D01*
X157229706Y-97473478D01*
X157229700Y-97473479D01*
X157224555Y-97473902D01*
X156995934Y-97531327D01*
X156779762Y-97625322D01*
X156581844Y-97753360D01*
X156578021Y-97756839D01*
X156578018Y-97756841D01*
X156411318Y-97908527D01*
X156407496Y-97912005D01*
X156404297Y-97916056D01*
X156404293Y-97916060D01*
X156264602Y-98092939D01*
X156261400Y-98096994D01*
X156147480Y-98303361D01*
X156145756Y-98308230D01*
X156145754Y-98308234D01*
X156078295Y-98498734D01*
X156068794Y-98525564D01*
X156067887Y-98530657D01*
X156067886Y-98530660D01*
X156028789Y-98750151D01*
X156027456Y-98757633D01*
X156027028Y-98792661D01*
X156025191Y-98943044D01*
X156024576Y-98993339D01*
X151893676Y-98993339D01*
X151893737Y-98988330D01*
X151893737Y-98988328D01*
X151893800Y-98983161D01*
X151858144Y-98750151D01*
X151784911Y-98526093D01*
X151676066Y-98317004D01*
X151669482Y-98308234D01*
X151537638Y-98132635D01*
X151537636Y-98132632D01*
X151534533Y-98128500D01*
X151364114Y-97965643D01*
X151169383Y-97832807D01*
X151164699Y-97830633D01*
X151164696Y-97830631D01*
X150960263Y-97735736D01*
X150960258Y-97735734D01*
X150955572Y-97733559D01*
X150728423Y-97670565D01*
X150710757Y-97668677D01*
X150539328Y-97650356D01*
X150539320Y-97650356D01*
X150535993Y-97650000D01*
X149201134Y-97650000D01*
X149198561Y-97650212D01*
X149198550Y-97650212D01*
X149031112Y-97663978D01*
X149031106Y-97663979D01*
X149025961Y-97664402D01*
X148797340Y-97721827D01*
X148581168Y-97815822D01*
X148383250Y-97943860D01*
X148379427Y-97947339D01*
X148379424Y-97947341D01*
X148278687Y-98039005D01*
X148208902Y-98102505D01*
X148205703Y-98106556D01*
X148205699Y-98106560D01*
X148066008Y-98283439D01*
X148062806Y-98287494D01*
X147948886Y-98493861D01*
X147947162Y-98498730D01*
X147947160Y-98498734D01*
X147878805Y-98691764D01*
X147870200Y-98716064D01*
X147869293Y-98721157D01*
X147869292Y-98721160D01*
X147833013Y-98924830D01*
X147828862Y-98948133D01*
X147825982Y-99183839D01*
X139391348Y-99183839D01*
X139392187Y-99115170D01*
X139393737Y-98988330D01*
X139393737Y-98988328D01*
X139393800Y-98983161D01*
X139358144Y-98750151D01*
X139284911Y-98526093D01*
X139176066Y-98317004D01*
X139169482Y-98308234D01*
X139037638Y-98132635D01*
X139037636Y-98132632D01*
X139034533Y-98128500D01*
X138864114Y-97965643D01*
X138669383Y-97832807D01*
X138664699Y-97830633D01*
X138664696Y-97830631D01*
X138460263Y-97735736D01*
X138460258Y-97735734D01*
X138455572Y-97733559D01*
X138228423Y-97670565D01*
X138210757Y-97668677D01*
X138039328Y-97650356D01*
X138039320Y-97650356D01*
X138035993Y-97650000D01*
X136701134Y-97650000D01*
X136698561Y-97650212D01*
X136698550Y-97650212D01*
X136531112Y-97663978D01*
X136531106Y-97663979D01*
X136525961Y-97664402D01*
X136297340Y-97721827D01*
X136081168Y-97815822D01*
X135883250Y-97943860D01*
X135879427Y-97947339D01*
X135879424Y-97947341D01*
X135778687Y-98039005D01*
X135708902Y-98102505D01*
X135705703Y-98106556D01*
X135705699Y-98106560D01*
X135566008Y-98283439D01*
X135562806Y-98287494D01*
X135448886Y-98493861D01*
X135447162Y-98498730D01*
X135447160Y-98498734D01*
X135378805Y-98691764D01*
X135370200Y-98716064D01*
X135369293Y-98721157D01*
X135369292Y-98721160D01*
X135333013Y-98924830D01*
X135328862Y-98948133D01*
X135325982Y-99183839D01*
X130713958Y-99183839D01*
X130718123Y-99160456D01*
X130718124Y-99160450D01*
X130719029Y-99155367D01*
X130721909Y-98919661D01*
X130686253Y-98686651D01*
X130613020Y-98462593D01*
X130504175Y-98253504D01*
X130485415Y-98228517D01*
X130365747Y-98069135D01*
X130365745Y-98069132D01*
X130362642Y-98065000D01*
X130202543Y-97912005D01*
X130195960Y-97905714D01*
X130195959Y-97905713D01*
X130192223Y-97902143D01*
X129997492Y-97769307D01*
X129992808Y-97767133D01*
X129992805Y-97767131D01*
X129788372Y-97672236D01*
X129788367Y-97672234D01*
X129783681Y-97670059D01*
X129556532Y-97607065D01*
X129551395Y-97606516D01*
X129367437Y-97586856D01*
X129367429Y-97586856D01*
X129364102Y-97586500D01*
X128029243Y-97586500D01*
X128026670Y-97586712D01*
X128026659Y-97586712D01*
X127859221Y-97600478D01*
X127859215Y-97600479D01*
X127854070Y-97600902D01*
X127625449Y-97658327D01*
X127409277Y-97752322D01*
X127211359Y-97880360D01*
X127207538Y-97883837D01*
X127207533Y-97883841D01*
X127113710Y-97969214D01*
X127037011Y-98039005D01*
X127033812Y-98043056D01*
X127033808Y-98043060D01*
X126964284Y-98131093D01*
X126890915Y-98223994D01*
X126776995Y-98430361D01*
X126775271Y-98435230D01*
X126775269Y-98435234D01*
X126700035Y-98647689D01*
X126698309Y-98652564D01*
X126697402Y-98657657D01*
X126697401Y-98657660D01*
X126673354Y-98792661D01*
X126656971Y-98884633D01*
X126654091Y-99120339D01*
X118219457Y-99120339D01*
X118221909Y-98919661D01*
X118186253Y-98686651D01*
X118113020Y-98462593D01*
X118004175Y-98253504D01*
X117985415Y-98228517D01*
X117865747Y-98069135D01*
X117865745Y-98069132D01*
X117862642Y-98065000D01*
X117702543Y-97912005D01*
X117695960Y-97905714D01*
X117695959Y-97905713D01*
X117692223Y-97902143D01*
X117497492Y-97769307D01*
X117492808Y-97767133D01*
X117492805Y-97767131D01*
X117288372Y-97672236D01*
X117288367Y-97672234D01*
X117283681Y-97670059D01*
X117056532Y-97607065D01*
X117051395Y-97606516D01*
X116867437Y-97586856D01*
X116867429Y-97586856D01*
X116864102Y-97586500D01*
X115529243Y-97586500D01*
X115526670Y-97586712D01*
X115526659Y-97586712D01*
X115359221Y-97600478D01*
X115359215Y-97600479D01*
X115354070Y-97600902D01*
X115125449Y-97658327D01*
X114909277Y-97752322D01*
X114711359Y-97880360D01*
X114707538Y-97883837D01*
X114707533Y-97883841D01*
X114613710Y-97969214D01*
X114537011Y-98039005D01*
X114533812Y-98043056D01*
X114533808Y-98043060D01*
X114464284Y-98131093D01*
X114390915Y-98223994D01*
X114276995Y-98430361D01*
X114275271Y-98435230D01*
X114275269Y-98435234D01*
X114200035Y-98647689D01*
X114198309Y-98652564D01*
X114197402Y-98657657D01*
X114197401Y-98657660D01*
X114173354Y-98792661D01*
X114156971Y-98884633D01*
X114154091Y-99120339D01*
X108025394Y-99120339D01*
X108238434Y-83142400D01*
X112327500Y-83142400D01*
X112327837Y-83145646D01*
X112327837Y-83145650D01*
X112336241Y-83226642D01*
X112338474Y-83248166D01*
X112340655Y-83254702D01*
X112340655Y-83254704D01*
X112362216Y-83319329D01*
X112394450Y-83415946D01*
X112487522Y-83566348D01*
X112612697Y-83691305D01*
X112618927Y-83695145D01*
X112618928Y-83695146D01*
X112756090Y-83779694D01*
X112763262Y-83784115D01*
X112804292Y-83797724D01*
X112924611Y-83837632D01*
X112924613Y-83837632D01*
X112931139Y-83839797D01*
X112937975Y-83840497D01*
X112937978Y-83840498D01*
X112981031Y-83844909D01*
X113035600Y-83850500D01*
X114636400Y-83850500D01*
X114639646Y-83850163D01*
X114639650Y-83850163D01*
X114714470Y-83842400D01*
X120427500Y-83842400D01*
X120427837Y-83845646D01*
X120427837Y-83845650D01*
X120431386Y-83879850D01*
X120438474Y-83948166D01*
X120440655Y-83954702D01*
X120440655Y-83954704D01*
X120462527Y-84020262D01*
X120494450Y-84115946D01*
X120587522Y-84266348D01*
X120712697Y-84391305D01*
X120718927Y-84395145D01*
X120718928Y-84395146D01*
X120856090Y-84479694D01*
X120863262Y-84484115D01*
X120941168Y-84509955D01*
X121024611Y-84537632D01*
X121024613Y-84537632D01*
X121031139Y-84539797D01*
X121037975Y-84540497D01*
X121037978Y-84540498D01*
X121081031Y-84544909D01*
X121135600Y-84550500D01*
X124736400Y-84550500D01*
X124739646Y-84550163D01*
X124739650Y-84550163D01*
X124835308Y-84540238D01*
X124835312Y-84540237D01*
X124842166Y-84539526D01*
X124848702Y-84537345D01*
X124848704Y-84537345D01*
X124980806Y-84493272D01*
X125009946Y-84483550D01*
X125160348Y-84390478D01*
X125285305Y-84265303D01*
X125315775Y-84215872D01*
X125374275Y-84120968D01*
X125374276Y-84120966D01*
X125378115Y-84114738D01*
X125428865Y-83961730D01*
X125431632Y-83953389D01*
X125431632Y-83953387D01*
X125433797Y-83946861D01*
X125444500Y-83842400D01*
X125444500Y-82042000D01*
X127622540Y-82042000D01*
X127642359Y-82357020D01*
X127701505Y-82667072D01*
X127702732Y-82670848D01*
X127769507Y-82876359D01*
X127799044Y-82967266D01*
X127800731Y-82970852D01*
X127800733Y-82970856D01*
X127931750Y-83249283D01*
X127931754Y-83249290D01*
X127933438Y-83252869D01*
X128102568Y-83519375D01*
X128135408Y-83559072D01*
X128279410Y-83733139D01*
X128303767Y-83762582D01*
X128533860Y-83978654D01*
X128537062Y-83980981D01*
X128537064Y-83980982D01*
X128588003Y-84017991D01*
X128789221Y-84164184D01*
X128792690Y-84166091D01*
X128792693Y-84166093D01*
X128982577Y-84270483D01*
X129065821Y-84316247D01*
X129069490Y-84317700D01*
X129069495Y-84317702D01*
X129355628Y-84430990D01*
X129359298Y-84432443D01*
X129665025Y-84510940D01*
X129978179Y-84550500D01*
X130293821Y-84550500D01*
X130606975Y-84510940D01*
X130912702Y-84432443D01*
X130916372Y-84430990D01*
X131202505Y-84317702D01*
X131202510Y-84317700D01*
X131206179Y-84316247D01*
X131289423Y-84270483D01*
X131479307Y-84166093D01*
X131479310Y-84166091D01*
X131482779Y-84164184D01*
X131683997Y-84017991D01*
X131734936Y-83980982D01*
X131734938Y-83980981D01*
X131738140Y-83978654D01*
X131968233Y-83762582D01*
X131992591Y-83733139D01*
X132136592Y-83559072D01*
X132169432Y-83519375D01*
X132338562Y-83252869D01*
X132340246Y-83249290D01*
X132340250Y-83249283D01*
X132471267Y-82970856D01*
X132471269Y-82970852D01*
X132472956Y-82967266D01*
X132502494Y-82876359D01*
X132569268Y-82670848D01*
X132570495Y-82667072D01*
X132629641Y-82357020D01*
X132649460Y-82042000D01*
X132629641Y-81726980D01*
X132570495Y-81416928D01*
X132472956Y-81116734D01*
X132471267Y-81113144D01*
X132340250Y-80834717D01*
X132340246Y-80834710D01*
X132338562Y-80831131D01*
X132169432Y-80564625D01*
X132032170Y-80398704D01*
X131970758Y-80324470D01*
X131970757Y-80324469D01*
X131968233Y-80321418D01*
X131738140Y-80105346D01*
X131482779Y-79919816D01*
X131310180Y-79824928D01*
X131209648Y-79769660D01*
X131209647Y-79769659D01*
X131206179Y-79767753D01*
X131202510Y-79766300D01*
X131202505Y-79766298D01*
X130916372Y-79653010D01*
X130916371Y-79653010D01*
X130912702Y-79651557D01*
X130606975Y-79573060D01*
X130293821Y-79533500D01*
X129978179Y-79533500D01*
X129665025Y-79573060D01*
X129359298Y-79651557D01*
X129355629Y-79653010D01*
X129355628Y-79653010D01*
X129069495Y-79766298D01*
X129069490Y-79766300D01*
X129065821Y-79767753D01*
X129062353Y-79769659D01*
X129062352Y-79769660D01*
X128961821Y-79824928D01*
X128789221Y-79919816D01*
X128533860Y-80105346D01*
X128303767Y-80321418D01*
X128301243Y-80324469D01*
X128301242Y-80324470D01*
X128239830Y-80398704D01*
X128102568Y-80564625D01*
X127933438Y-80831131D01*
X127931754Y-80834710D01*
X127931750Y-80834717D01*
X127800733Y-81113144D01*
X127799044Y-81116734D01*
X127701505Y-81416928D01*
X127642359Y-81726980D01*
X127622540Y-82042000D01*
X125444500Y-82042000D01*
X125444500Y-80241600D01*
X125433526Y-80135834D01*
X125423355Y-80105346D01*
X125379868Y-79975002D01*
X125377550Y-79968054D01*
X125284478Y-79817652D01*
X125159303Y-79692695D01*
X125153072Y-79688854D01*
X125014968Y-79603725D01*
X125014966Y-79603724D01*
X125008738Y-79599885D01*
X124848254Y-79546655D01*
X124847389Y-79546368D01*
X124847387Y-79546368D01*
X124840861Y-79544203D01*
X124834025Y-79543503D01*
X124834022Y-79543502D01*
X124790969Y-79539091D01*
X124736400Y-79533500D01*
X121135600Y-79533500D01*
X121132354Y-79533837D01*
X121132350Y-79533837D01*
X121036692Y-79543762D01*
X121036688Y-79543763D01*
X121029834Y-79544474D01*
X121023298Y-79546655D01*
X121023296Y-79546655D01*
X120941199Y-79574045D01*
X120862054Y-79600450D01*
X120711652Y-79693522D01*
X120586695Y-79818697D01*
X120582855Y-79824927D01*
X120582854Y-79824928D01*
X120522930Y-79922143D01*
X120493885Y-79969262D01*
X120438203Y-80137139D01*
X120427500Y-80241600D01*
X120427500Y-83842400D01*
X114714470Y-83842400D01*
X114735308Y-83840238D01*
X114735312Y-83840237D01*
X114742166Y-83839526D01*
X114748702Y-83837345D01*
X114748704Y-83837345D01*
X114880806Y-83793272D01*
X114909946Y-83783550D01*
X115060348Y-83690478D01*
X115185305Y-83565303D01*
X115261781Y-83441237D01*
X115274275Y-83420968D01*
X115274276Y-83420966D01*
X115278115Y-83414738D01*
X115333797Y-83246861D01*
X115344500Y-83142400D01*
X115344500Y-80941600D01*
X115333526Y-80835834D01*
X115330841Y-80827784D01*
X115279868Y-80675002D01*
X115277550Y-80668054D01*
X115184478Y-80517652D01*
X115059303Y-80392695D01*
X114943671Y-80321418D01*
X114914968Y-80303725D01*
X114914966Y-80303724D01*
X114908738Y-80299885D01*
X114748254Y-80246655D01*
X114747389Y-80246368D01*
X114747387Y-80246368D01*
X114740861Y-80244203D01*
X114734025Y-80243503D01*
X114734022Y-80243502D01*
X114684243Y-80238402D01*
X114636400Y-80233500D01*
X113035600Y-80233500D01*
X113032354Y-80233837D01*
X113032350Y-80233837D01*
X112936692Y-80243762D01*
X112936688Y-80243763D01*
X112929834Y-80244474D01*
X112923298Y-80246655D01*
X112923296Y-80246655D01*
X112791194Y-80290728D01*
X112762054Y-80300450D01*
X112611652Y-80393522D01*
X112486695Y-80518697D01*
X112393885Y-80669262D01*
X112338203Y-80837139D01*
X112327500Y-80941600D01*
X112327500Y-83142400D01*
X108238434Y-83142400D01*
X108345225Y-75133134D01*
X148043500Y-75133134D01*
X148050255Y-75195316D01*
X148101385Y-75331705D01*
X148188739Y-75448261D01*
X148305295Y-75535615D01*
X148441684Y-75586745D01*
X148503866Y-75593500D01*
X150200134Y-75593500D01*
X150262316Y-75586745D01*
X150398705Y-75535615D01*
X150515261Y-75448261D01*
X150602615Y-75331705D01*
X150653745Y-75195316D01*
X150654917Y-75184526D01*
X150655803Y-75182394D01*
X150656425Y-75179778D01*
X150656848Y-75179879D01*
X150682155Y-75118965D01*
X150740517Y-75078537D01*
X150811471Y-75076078D01*
X150872490Y-75112371D01*
X150879489Y-75121031D01*
X150882643Y-75124789D01*
X150885802Y-75129300D01*
X151047700Y-75291198D01*
X151052208Y-75294355D01*
X151052211Y-75294357D01*
X151130389Y-75349098D01*
X151235251Y-75422523D01*
X151240233Y-75424846D01*
X151240238Y-75424849D01*
X151311454Y-75458057D01*
X151442757Y-75519284D01*
X151448065Y-75520706D01*
X151448067Y-75520707D01*
X151658598Y-75577119D01*
X151658600Y-75577119D01*
X151663913Y-75578543D01*
X151892000Y-75598498D01*
X152120087Y-75578543D01*
X152125400Y-75577119D01*
X152125402Y-75577119D01*
X152335933Y-75520707D01*
X152335935Y-75520706D01*
X152341243Y-75519284D01*
X152472546Y-75458057D01*
X152543762Y-75424849D01*
X152543767Y-75424846D01*
X152548749Y-75422523D01*
X152653611Y-75349098D01*
X152731789Y-75294357D01*
X152731792Y-75294355D01*
X152736300Y-75291198D01*
X152898198Y-75129300D01*
X153029523Y-74941749D01*
X153031846Y-74936767D01*
X153031849Y-74936762D01*
X153047805Y-74902543D01*
X153094722Y-74849258D01*
X153162999Y-74829797D01*
X153230959Y-74850339D01*
X153276195Y-74902543D01*
X153292151Y-74936762D01*
X153292154Y-74936767D01*
X153294477Y-74941749D01*
X153425802Y-75129300D01*
X153587700Y-75291198D01*
X153592208Y-75294355D01*
X153592211Y-75294357D01*
X153670389Y-75349098D01*
X153775251Y-75422523D01*
X153780233Y-75424846D01*
X153780238Y-75424849D01*
X153851454Y-75458057D01*
X153982757Y-75519284D01*
X153988065Y-75520706D01*
X153988067Y-75520707D01*
X154198598Y-75577119D01*
X154198600Y-75577119D01*
X154203913Y-75578543D01*
X154432000Y-75598498D01*
X154660087Y-75578543D01*
X154665400Y-75577119D01*
X154665402Y-75577119D01*
X154875933Y-75520707D01*
X154875935Y-75520706D01*
X154881243Y-75519284D01*
X155012546Y-75458057D01*
X155083762Y-75424849D01*
X155083767Y-75424846D01*
X155088749Y-75422523D01*
X155193611Y-75349098D01*
X155271789Y-75294357D01*
X155271792Y-75294355D01*
X155276300Y-75291198D01*
X155438198Y-75129300D01*
X155569523Y-74941749D01*
X155571846Y-74936767D01*
X155571849Y-74936762D01*
X155663961Y-74739225D01*
X155663961Y-74739224D01*
X155666284Y-74734243D01*
X155725543Y-74513087D01*
X155745498Y-74285000D01*
X155725543Y-74056913D01*
X155710021Y-73998983D01*
X155667707Y-73841067D01*
X155667706Y-73841065D01*
X155666284Y-73835757D01*
X155610028Y-73715115D01*
X155571849Y-73633238D01*
X155571846Y-73633233D01*
X155569523Y-73628251D01*
X155438198Y-73440700D01*
X155276300Y-73278802D01*
X155271792Y-73275645D01*
X155271789Y-73275643D01*
X155119228Y-73168819D01*
X155088749Y-73147477D01*
X155083767Y-73145154D01*
X155083762Y-73145151D01*
X154886225Y-73053039D01*
X154886224Y-73053039D01*
X154881243Y-73050716D01*
X154875935Y-73049294D01*
X154875933Y-73049293D01*
X154665402Y-72992881D01*
X154665400Y-72992881D01*
X154660087Y-72991457D01*
X154432000Y-72971502D01*
X154203913Y-72991457D01*
X154198600Y-72992881D01*
X154198598Y-72992881D01*
X153988067Y-73049293D01*
X153988065Y-73049294D01*
X153982757Y-73050716D01*
X153977776Y-73053039D01*
X153977775Y-73053039D01*
X153780238Y-73145151D01*
X153780233Y-73145154D01*
X153775251Y-73147477D01*
X153744772Y-73168819D01*
X153592211Y-73275643D01*
X153592208Y-73275645D01*
X153587700Y-73278802D01*
X153425802Y-73440700D01*
X153294477Y-73628251D01*
X153292154Y-73633233D01*
X153292151Y-73633238D01*
X153276195Y-73667457D01*
X153229278Y-73720742D01*
X153161001Y-73740203D01*
X153093041Y-73719661D01*
X153047805Y-73667457D01*
X153031849Y-73633238D01*
X153031846Y-73633233D01*
X153029523Y-73628251D01*
X152898198Y-73440700D01*
X152736300Y-73278802D01*
X152731792Y-73275645D01*
X152731789Y-73275643D01*
X152579228Y-73168819D01*
X152548749Y-73147477D01*
X152543767Y-73145154D01*
X152543762Y-73145151D01*
X152346225Y-73053039D01*
X152346224Y-73053039D01*
X152341243Y-73050716D01*
X152335935Y-73049294D01*
X152335933Y-73049293D01*
X152125402Y-72992881D01*
X152125400Y-72992881D01*
X152120087Y-72991457D01*
X151892000Y-72971502D01*
X151663913Y-72991457D01*
X151658600Y-72992881D01*
X151658598Y-72992881D01*
X151448067Y-73049293D01*
X151448065Y-73049294D01*
X151442757Y-73050716D01*
X151437776Y-73053039D01*
X151437775Y-73053039D01*
X151240238Y-73145151D01*
X151240233Y-73145154D01*
X151235251Y-73147477D01*
X151204772Y-73168819D01*
X151052211Y-73275643D01*
X151052208Y-73275645D01*
X151047700Y-73278802D01*
X150885802Y-73440700D01*
X150882643Y-73445211D01*
X150879108Y-73449424D01*
X150877974Y-73448473D01*
X150827929Y-73488471D01*
X150757310Y-73495776D01*
X150693951Y-73463742D01*
X150657970Y-73402538D01*
X150654918Y-73385483D01*
X150653745Y-73374684D01*
X150602615Y-73238295D01*
X150515261Y-73121739D01*
X150398705Y-73034385D01*
X150262316Y-72983255D01*
X150200134Y-72976500D01*
X148503866Y-72976500D01*
X148441684Y-72983255D01*
X148305295Y-73034385D01*
X148188739Y-73121739D01*
X148101385Y-73238295D01*
X148050255Y-73374684D01*
X148043500Y-73436866D01*
X148043500Y-75133134D01*
X108345225Y-75133134D01*
X108392561Y-71582918D01*
X126414917Y-71582918D01*
X126430682Y-71856320D01*
X126431507Y-71860525D01*
X126431508Y-71860533D01*
X126456378Y-71987295D01*
X126483405Y-72125053D01*
X126484792Y-72129103D01*
X126484793Y-72129108D01*
X126560935Y-72351500D01*
X126572112Y-72384144D01*
X126695160Y-72628799D01*
X126697586Y-72632328D01*
X126697589Y-72632334D01*
X126847843Y-72850953D01*
X126850274Y-72854490D01*
X127034582Y-73057043D01*
X127244675Y-73232707D01*
X127248316Y-73234991D01*
X127473024Y-73375951D01*
X127473028Y-73375953D01*
X127476664Y-73378234D01*
X127601460Y-73434582D01*
X127722345Y-73489164D01*
X127722349Y-73489166D01*
X127726257Y-73490930D01*
X127730377Y-73492150D01*
X127730376Y-73492150D01*
X127984723Y-73567491D01*
X127984727Y-73567492D01*
X127988836Y-73568709D01*
X127993070Y-73569357D01*
X127993075Y-73569358D01*
X128255298Y-73609483D01*
X128255300Y-73609483D01*
X128259540Y-73610132D01*
X128398912Y-73612322D01*
X128529071Y-73614367D01*
X128529077Y-73614367D01*
X128533362Y-73614434D01*
X128805235Y-73581534D01*
X129070127Y-73512041D01*
X129074087Y-73510401D01*
X129074092Y-73510399D01*
X129223593Y-73448473D01*
X129323136Y-73407241D01*
X129559582Y-73269073D01*
X129775089Y-73100094D01*
X129808511Y-73065606D01*
X129962686Y-72906509D01*
X129965669Y-72903431D01*
X129968202Y-72899983D01*
X129968206Y-72899978D01*
X130125257Y-72686178D01*
X130127795Y-72682723D01*
X130155154Y-72632334D01*
X130256418Y-72445830D01*
X130256419Y-72445828D01*
X130258468Y-72442054D01*
X130355269Y-72185877D01*
X130400750Y-71987295D01*
X130415449Y-71923117D01*
X130415450Y-71923113D01*
X130416407Y-71918933D01*
X130420560Y-71872407D01*
X130431038Y-71755000D01*
X132991654Y-71755000D01*
X132991924Y-71759119D01*
X133009943Y-72034036D01*
X133011017Y-72050426D01*
X133011819Y-72054459D01*
X133011820Y-72054465D01*
X133067970Y-72336747D01*
X133068776Y-72340797D01*
X133070103Y-72344706D01*
X133070104Y-72344710D01*
X133093561Y-72413812D01*
X133163941Y-72621145D01*
X133294885Y-72886673D01*
X133297179Y-72890106D01*
X133451951Y-73121739D01*
X133459367Y-73132838D01*
X133462081Y-73135932D01*
X133462085Y-73135938D01*
X133559224Y-73246703D01*
X133654573Y-73355427D01*
X133657662Y-73358136D01*
X133874062Y-73547915D01*
X133874068Y-73547919D01*
X133877162Y-73550633D01*
X133880588Y-73552922D01*
X133880593Y-73552926D01*
X134000789Y-73633238D01*
X134123327Y-73715115D01*
X134127026Y-73716939D01*
X134127031Y-73716942D01*
X134132545Y-73719661D01*
X134388855Y-73846059D01*
X134392760Y-73847384D01*
X134392761Y-73847385D01*
X134665290Y-73939896D01*
X134665294Y-73939897D01*
X134669203Y-73941224D01*
X134673247Y-73942028D01*
X134673253Y-73942030D01*
X134955535Y-73998180D01*
X134955541Y-73998181D01*
X134959574Y-73998983D01*
X134963679Y-73999252D01*
X134963686Y-73999253D01*
X135250881Y-74018076D01*
X135255000Y-74018346D01*
X135259119Y-74018076D01*
X135546314Y-73999253D01*
X135546321Y-73999252D01*
X135550426Y-73998983D01*
X135554459Y-73998181D01*
X135554465Y-73998180D01*
X135836747Y-73942030D01*
X135836753Y-73942028D01*
X135840797Y-73941224D01*
X135844706Y-73939897D01*
X135844710Y-73939896D01*
X136117239Y-73847385D01*
X136117240Y-73847384D01*
X136121145Y-73846059D01*
X136377455Y-73719661D01*
X136382969Y-73716942D01*
X136382974Y-73716939D01*
X136386673Y-73715115D01*
X136509211Y-73633238D01*
X136629407Y-73552926D01*
X136629412Y-73552922D01*
X136632838Y-73550633D01*
X136635932Y-73547919D01*
X136635938Y-73547915D01*
X136852338Y-73358136D01*
X136855427Y-73355427D01*
X136950776Y-73246703D01*
X137047915Y-73135938D01*
X137047919Y-73135932D01*
X137050633Y-73132838D01*
X137058050Y-73121739D01*
X137212821Y-72890106D01*
X137215115Y-72886673D01*
X137346059Y-72621145D01*
X137416439Y-72413812D01*
X137439896Y-72344710D01*
X137439897Y-72344706D01*
X137441224Y-72340797D01*
X137442030Y-72336747D01*
X137498180Y-72054465D01*
X137498181Y-72054459D01*
X137498983Y-72050426D01*
X137500058Y-72034036D01*
X137518076Y-71759119D01*
X137518346Y-71755000D01*
X137515087Y-71705283D01*
X137499253Y-71463686D01*
X137499252Y-71463679D01*
X137498983Y-71459574D01*
X137474215Y-71335055D01*
X137442030Y-71173253D01*
X137442028Y-71173247D01*
X137441224Y-71169203D01*
X137405042Y-71062612D01*
X137347385Y-70892761D01*
X137347384Y-70892760D01*
X137346059Y-70888855D01*
X137215115Y-70623327D01*
X137050633Y-70377162D01*
X137047919Y-70374068D01*
X137047915Y-70374062D01*
X136858136Y-70157662D01*
X136855427Y-70154573D01*
X136818392Y-70122094D01*
X136635938Y-69962085D01*
X136635932Y-69962081D01*
X136632838Y-69959367D01*
X136629412Y-69957078D01*
X136629407Y-69957074D01*
X136445595Y-69834256D01*
X136386673Y-69794885D01*
X136382974Y-69793061D01*
X136382969Y-69793058D01*
X136211806Y-69708650D01*
X136121145Y-69663941D01*
X136117239Y-69662615D01*
X135844710Y-69570104D01*
X135844706Y-69570103D01*
X135840797Y-69568776D01*
X135836753Y-69567972D01*
X135836747Y-69567970D01*
X135554465Y-69511820D01*
X135554459Y-69511819D01*
X135550426Y-69511017D01*
X135546321Y-69510748D01*
X135546314Y-69510747D01*
X135259119Y-69491924D01*
X135255000Y-69491654D01*
X135250881Y-69491924D01*
X134963686Y-69510747D01*
X134963679Y-69510748D01*
X134959574Y-69511017D01*
X134955541Y-69511819D01*
X134955535Y-69511820D01*
X134673253Y-69567970D01*
X134673247Y-69567972D01*
X134669203Y-69568776D01*
X134665294Y-69570103D01*
X134665290Y-69570104D01*
X134392761Y-69662615D01*
X134388855Y-69663941D01*
X134298194Y-69708650D01*
X134127031Y-69793058D01*
X134127026Y-69793061D01*
X134123327Y-69794885D01*
X134064405Y-69834256D01*
X133880593Y-69957074D01*
X133880588Y-69957078D01*
X133877162Y-69959367D01*
X133874068Y-69962081D01*
X133874062Y-69962085D01*
X133691608Y-70122094D01*
X133654573Y-70154573D01*
X133651864Y-70157662D01*
X133462085Y-70374062D01*
X133462081Y-70374068D01*
X133459367Y-70377162D01*
X133294885Y-70623327D01*
X133163941Y-70888855D01*
X133162616Y-70892760D01*
X133162615Y-70892761D01*
X133104959Y-71062612D01*
X133068776Y-71169203D01*
X133067972Y-71173247D01*
X133067970Y-71173253D01*
X133035786Y-71335055D01*
X133011017Y-71459574D01*
X133010748Y-71463679D01*
X133010747Y-71463686D01*
X132994913Y-71705283D01*
X132991654Y-71755000D01*
X130431038Y-71755000D01*
X130440531Y-71648627D01*
X130440531Y-71648625D01*
X130440751Y-71646161D01*
X130441193Y-71604000D01*
X130431628Y-71463686D01*
X130422859Y-71335055D01*
X130422858Y-71335049D01*
X130422567Y-71330778D01*
X130367032Y-71062612D01*
X130275617Y-70804465D01*
X130150013Y-70561112D01*
X130140040Y-70546921D01*
X130071279Y-70449084D01*
X129992545Y-70337057D01*
X129822971Y-70154573D01*
X129809046Y-70139588D01*
X129809043Y-70139585D01*
X129806125Y-70136445D01*
X129802810Y-70133731D01*
X129802806Y-70133728D01*
X129597523Y-69965706D01*
X129594205Y-69962990D01*
X129360704Y-69819901D01*
X129356768Y-69818173D01*
X129113873Y-69711549D01*
X129113869Y-69711548D01*
X129109945Y-69709825D01*
X128846566Y-69634800D01*
X128842324Y-69634196D01*
X128842318Y-69634195D01*
X128641834Y-69605662D01*
X128575443Y-69596213D01*
X128431589Y-69595460D01*
X128305877Y-69594802D01*
X128305871Y-69594802D01*
X128301591Y-69594780D01*
X128297347Y-69595339D01*
X128297343Y-69595339D01*
X128178302Y-69611011D01*
X128030078Y-69630525D01*
X128025938Y-69631658D01*
X128025936Y-69631658D01*
X127953008Y-69651609D01*
X127765928Y-69702788D01*
X127761980Y-69704472D01*
X127517982Y-69808546D01*
X127517978Y-69808548D01*
X127514030Y-69810232D01*
X127494125Y-69822145D01*
X127282725Y-69948664D01*
X127282721Y-69948667D01*
X127279043Y-69950868D01*
X127065318Y-70122094D01*
X126876808Y-70320742D01*
X126717002Y-70543136D01*
X126588857Y-70785161D01*
X126587385Y-70789184D01*
X126587383Y-70789188D01*
X126496214Y-71038317D01*
X126494743Y-71042337D01*
X126436404Y-71309907D01*
X126414917Y-71582918D01*
X108392561Y-71582918D01*
X108421000Y-69449973D01*
X108545002Y-60149791D01*
X108545327Y-60142276D01*
X108570632Y-59796457D01*
X108572622Y-59781551D01*
X108638229Y-59444887D01*
X108641982Y-59430324D01*
X108657816Y-59381214D01*
X108747224Y-59103899D01*
X108752684Y-59089888D01*
X108861300Y-58853867D01*
X108896077Y-58778299D01*
X108903158Y-58765056D01*
X109082648Y-58472775D01*
X109091258Y-58460466D01*
X109304296Y-58191646D01*
X109314323Y-58180439D01*
X109557853Y-57938930D01*
X109569143Y-57928997D01*
X109839720Y-57718214D01*
X109852114Y-57709697D01*
X109933799Y-57660467D01*
X110145875Y-57532653D01*
X110159183Y-57525679D01*
X110471951Y-57384889D01*
X110486002Y-57379548D01*
X110813306Y-57277027D01*
X110827896Y-57273396D01*
X111022209Y-57237208D01*
X111165086Y-57210599D01*
X111180007Y-57208733D01*
X111526036Y-57186310D01*
X111533549Y-57186048D01*
X113872857Y-57174354D01*
X117824753Y-57154600D01*
X117832222Y-57154784D01*
G37*
%TD.AperFunction*%
%TD*%
M02*
