%TF.GenerationSoftware,KiCad,Pcbnew,(6.0.7)*%
%TF.CreationDate,2023-08-25T11:33:14-04:00*%
%TF.ProjectId,Timer V4,54696d65-7220-4563-942e-6b696361645f,rev?*%
%TF.SameCoordinates,Original*%
%TF.FileFunction,Copper,L2,Bot*%
%TF.FilePolarity,Positive*%
%FSLAX46Y46*%
G04 Gerber Fmt 4.6, Leading zero omitted, Abs format (unit mm)*
G04 Created by KiCad (PCBNEW (6.0.7)) date 2023-08-25 11:33:14*
%MOMM*%
%LPD*%
G01*
G04 APERTURE LIST*
G04 Aperture macros list*
%AMRoundRect*
0 Rectangle with rounded corners*
0 $1 Rounding radius*
0 $2 $3 $4 $5 $6 $7 $8 $9 X,Y pos of 4 corners*
0 Add a 4 corners polygon primitive as box body*
4,1,4,$2,$3,$4,$5,$6,$7,$8,$9,$2,$3,0*
0 Add four circle primitives for the rounded corners*
1,1,$1+$1,$2,$3*
1,1,$1+$1,$4,$5*
1,1,$1+$1,$6,$7*
1,1,$1+$1,$8,$9*
0 Add four rect primitives between the rounded corners*
20,1,$1+$1,$2,$3,$4,$5,0*
20,1,$1+$1,$4,$5,$6,$7,0*
20,1,$1+$1,$6,$7,$8,$9,0*
20,1,$1+$1,$8,$9,$2,$3,0*%
G04 Aperture macros list end*
%TA.AperFunction,ComponentPad*%
%ADD10C,3.500000*%
%TD*%
%TA.AperFunction,ComponentPad*%
%ADD11C,1.600000*%
%TD*%
%TA.AperFunction,ComponentPad*%
%ADD12RoundRect,0.250000X0.750000X1.050000X-0.750000X1.050000X-0.750000X-1.050000X0.750000X-1.050000X0*%
%TD*%
%TA.AperFunction,ComponentPad*%
%ADD13O,2.000000X2.600000*%
%TD*%
%TA.AperFunction,ComponentPad*%
%ADD14O,3.048000X1.850000*%
%TD*%
%TA.AperFunction,ComponentPad*%
%ADD15C,1.400000*%
%TD*%
%TA.AperFunction,ComponentPad*%
%ADD16O,1.400000X1.400000*%
%TD*%
%TA.AperFunction,ComponentPad*%
%ADD17C,4.000000*%
%TD*%
%TA.AperFunction,ComponentPad*%
%ADD18RoundRect,0.250000X-1.750000X-1.750000X1.750000X-1.750000X1.750000X1.750000X-1.750000X1.750000X0*%
%TD*%
%TA.AperFunction,ComponentPad*%
%ADD19C,3.000000*%
%TD*%
%TA.AperFunction,ComponentPad*%
%ADD20R,1.800000X1.800000*%
%TD*%
%TA.AperFunction,ComponentPad*%
%ADD21C,1.800000*%
%TD*%
%TA.AperFunction,ComponentPad*%
%ADD22R,1.600000X1.600000*%
%TD*%
%TA.AperFunction,ComponentPad*%
%ADD23O,1.600000X1.600000*%
%TD*%
%TA.AperFunction,Conductor*%
%ADD24C,0.250000*%
%TD*%
%TA.AperFunction,Conductor*%
%ADD25C,0.350000*%
%TD*%
%TA.AperFunction,Conductor*%
%ADD26C,2.000000*%
%TD*%
G04 APERTURE END LIST*
D10*
%TO.P,GND,*%
%TO.N,*%
X135255000Y-71755000D03*
%TD*%
D11*
%TO.P,D10,*%
%TO.N,unconnected-(A1-Pad13)*%
X197485000Y-66040000D03*
%TD*%
%TO.P,D9,*%
%TO.N,unconnected-(A1-Pad12)*%
X197485000Y-63500000D03*
%TD*%
%TO.P,D11,*%
%TO.N,unconnected-(A1-Pad14)*%
X197485000Y-68580000D03*
%TD*%
%TO.P,D12,*%
%TO.N,unconnected-(A1-Pad15)*%
X197485000Y-71120000D03*
%TD*%
%TO.P,D8,*%
%TO.N,unconnected-(A1-Pad11)*%
X197485000Y-60960000D03*
%TD*%
%TO.P,3.3V,*%
%TO.N,unconnected-(A1-Pad17)*%
X182245000Y-53975000D03*
%TD*%
%TO.P,A4,*%
%TO.N,unconnected-(A1-Pad23)*%
X167005000Y-53975000D03*
%TD*%
%TO.P,A5,*%
%TO.N,unconnected-(A1-Pad24)*%
X164465000Y-53975000D03*
%TD*%
%TO.P,D13,*%
%TO.N,unconnected-(A1-Pad16)*%
X184785000Y-53975000D03*
%TD*%
%TO.P,A3,*%
%TO.N,unconnected-(A1-Pad22)*%
X169545000Y-53975000D03*
%TD*%
%TO.P,A2,*%
%TO.N,unconnected-(A1-Pad21)*%
X172085000Y-53975000D03*
%TD*%
%TO.P,A7,*%
%TO.N,unconnected-(A1-Pad26)*%
X159385000Y-53975000D03*
%TD*%
%TO.P,A6,*%
%TO.N,unconnected-(A1-Pad25)*%
X161925000Y-53975000D03*
%TD*%
%TO.P,A0,*%
%TO.N,unconnected-(A1-Pad19)*%
X177165000Y-53975000D03*
%TD*%
%TO.P,A1,*%
%TO.N,unconnected-(A1-Pad20)*%
X174625000Y-53975000D03*
%TD*%
D12*
%TO.P,V1,1,+*%
%TO.N,Net-(A1-Pad30)*%
X113836000Y-82042000D03*
D13*
%TO.P,V1,2,-*%
%TO.N,/GND*%
X110336000Y-82042000D03*
%TD*%
D14*
%TO.P,SW4,1,1*%
%TO.N,Net-(A1-Pad10)*%
X191914000Y-94020000D03*
X179414000Y-94020000D03*
%TO.P,SW4,2,2*%
%TO.N,Net-(A1-Pad27)*%
X191914000Y-99020000D03*
X179414000Y-99020000D03*
%TD*%
%TO.P,SW3,2,2*%
%TO.N,Net-(A1-Pad27)*%
X158058485Y-98893000D03*
X170558485Y-98893000D03*
%TO.P,SW3,1,1*%
%TO.N,Net-(A1-Pad9)*%
X158058485Y-93893000D03*
X170558485Y-93893000D03*
%TD*%
%TO.P,SW2,1,1*%
%TO.N,Net-(A1-Pad27)*%
X137359891Y-99083500D03*
X149859891Y-99083500D03*
%TO.P,SW2,2,2*%
%TO.N,Net-(A1-Pad8)*%
X137359891Y-94083500D03*
X149859891Y-94083500D03*
%TD*%
%TO.P,SW1,1,1*%
%TO.N,Net-(A1-Pad27)*%
X116188000Y-99020000D03*
X128688000Y-99020000D03*
%TO.P,SW1,2,2*%
%TO.N,Net-(A1-Pad7)*%
X116188000Y-94020000D03*
X128688000Y-94020000D03*
%TD*%
D15*
%TO.P,R6,1*%
%TO.N,Net-(A1-Pad27)*%
X196850000Y-101155500D03*
D16*
%TO.P,R6,2*%
%TO.N,Net-(D2-Pad2)*%
X196850000Y-93535500D03*
%TD*%
%TO.P,R5,2*%
%TO.N,Net-(D1-Pad2)*%
X181864000Y-78105000D03*
D15*
%TO.P,R5,1*%
%TO.N,Net-(A1-Pad6)*%
X174244000Y-78105000D03*
%TD*%
%TO.P,R4,1*%
%TO.N,/GND*%
X174677782Y-101155500D03*
D16*
%TO.P,R4,2*%
%TO.N,Net-(A1-Pad10)*%
X174677782Y-93535500D03*
%TD*%
D15*
%TO.P,R3,1*%
%TO.N,/GND*%
X153959188Y-100965000D03*
D16*
%TO.P,R3,2*%
%TO.N,Net-(A1-Pad9)*%
X153959188Y-93345000D03*
%TD*%
D15*
%TO.P,R2,1*%
%TO.N,/GND*%
X133240594Y-100774500D03*
D16*
%TO.P,R2,2*%
%TO.N,Net-(A1-Pad8)*%
X133240594Y-93154500D03*
%TD*%
D15*
%TO.P,R1,1*%
%TO.N,/GND*%
X112522000Y-100012500D03*
D16*
%TO.P,R1,2*%
%TO.N,Net-(A1-Pad7)*%
X112522000Y-92392500D03*
%TD*%
D17*
%TO.P,LS1,2,2*%
%TO.N,Net-(A1-Pad30)*%
X130136000Y-82042000D03*
D18*
%TO.P,LS1,1,1*%
%TO.N,Net-(LS1-Pad1)*%
X122936000Y-82042000D03*
%TD*%
D19*
%TO.P,Relay,11*%
%TO.N,Net-(LS1-Pad1)*%
X122428000Y-57404000D03*
%TO.P,Relay,12*%
%TO.N,unconnected-(Relay1-Pad12)*%
X128428000Y-71604000D03*
%TO.P,Relay,14*%
%TO.N,/GND*%
X116428000Y-71604000D03*
%TO.P,Relay,A1*%
X116428000Y-59404000D03*
%TO.P,Relay,A2*%
%TO.N,Net-(A1-Pad5)*%
X128428000Y-59404000D03*
%TD*%
D20*
%TO.P,D2,1,K*%
%TO.N,/GND*%
X188971000Y-82804000D03*
D21*
%TO.P,D2,2,A*%
%TO.N,Net-(D2-Pad2)*%
X191511000Y-82804000D03*
%TD*%
D20*
%TO.P,D1,1,K*%
%TO.N,/GND*%
X182885000Y-82804000D03*
D21*
%TO.P,D1,2,A*%
%TO.N,Net-(D1-Pad2)*%
X180345000Y-82804000D03*
%TD*%
D22*
%TO.P,A1,1,D1/TX*%
%TO.N,unconnected-(A1-Pad1)*%
X149352000Y-74285000D03*
D23*
%TO.P,A1,2,D0/RX*%
%TO.N,unconnected-(A1-Pad2)*%
X151892000Y-74285000D03*
%TO.P,A1,3,~{RESET}*%
%TO.N,unconnected-(A1-Pad3)*%
X154432000Y-74285000D03*
%TO.P,A1,4,GND*%
%TO.N,/GND*%
X156972000Y-74285000D03*
%TO.P,A1,5,D2*%
%TO.N,Net-(A1-Pad5)*%
X159512000Y-74285000D03*
%TO.P,A1,6,D3*%
%TO.N,Net-(A1-Pad6)*%
X162052000Y-74285000D03*
%TO.P,A1,7,D4*%
%TO.N,Net-(A1-Pad7)*%
X164592000Y-74285000D03*
%TO.P,A1,8,D5*%
%TO.N,Net-(A1-Pad8)*%
X167132000Y-74285000D03*
%TO.P,A1,9,D6*%
%TO.N,Net-(A1-Pad9)*%
X169672000Y-74285000D03*
%TO.P,A1,10,D7*%
%TO.N,Net-(A1-Pad10)*%
X172212000Y-74285000D03*
%TO.P,A1,11,D8*%
%TO.N,unconnected-(A1-Pad11)*%
X174752000Y-74285000D03*
%TO.P,A1,12,D9*%
%TO.N,unconnected-(A1-Pad12)*%
X177292000Y-74285000D03*
%TO.P,A1,13,D10*%
%TO.N,unconnected-(A1-Pad13)*%
X179832000Y-74285000D03*
%TO.P,A1,14,D11*%
%TO.N,unconnected-(A1-Pad14)*%
X182372000Y-74285000D03*
%TO.P,A1,15,D12*%
%TO.N,unconnected-(A1-Pad15)*%
X184912000Y-74285000D03*
%TO.P,A1,16,D13*%
%TO.N,unconnected-(A1-Pad16)*%
X184912000Y-59045000D03*
%TO.P,A1,17,3V3*%
%TO.N,unconnected-(A1-Pad17)*%
X182372000Y-59045000D03*
%TO.P,A1,18,AREF*%
%TO.N,unconnected-(A1-Pad18)*%
X179832000Y-59045000D03*
%TO.P,A1,19,A0*%
%TO.N,unconnected-(A1-Pad19)*%
X177292000Y-59045000D03*
%TO.P,A1,20,A1*%
%TO.N,unconnected-(A1-Pad20)*%
X174752000Y-59045000D03*
%TO.P,A1,21,A2*%
%TO.N,unconnected-(A1-Pad21)*%
X172212000Y-59045000D03*
%TO.P,A1,22,A3*%
%TO.N,unconnected-(A1-Pad22)*%
X169672000Y-59045000D03*
%TO.P,A1,23,A4*%
%TO.N,unconnected-(A1-Pad23)*%
X167132000Y-59045000D03*
%TO.P,A1,24,A5*%
%TO.N,unconnected-(A1-Pad24)*%
X164592000Y-59045000D03*
%TO.P,A1,25,A6*%
%TO.N,unconnected-(A1-Pad25)*%
X162052000Y-59045000D03*
%TO.P,A1,26,A7*%
%TO.N,unconnected-(A1-Pad26)*%
X159512000Y-59045000D03*
%TO.P,A1,27,+5V*%
%TO.N,Net-(A1-Pad27)*%
X156972000Y-59045000D03*
%TO.P,A1,28,~{RESET}*%
%TO.N,unconnected-(A1-Pad28)*%
X154432000Y-59045000D03*
%TO.P,A1,29,GND*%
%TO.N,unconnected-(A1-Pad29)*%
X151892000Y-59045000D03*
%TO.P,A1,30,VIN*%
%TO.N,Net-(A1-Pad30)*%
X149352000Y-59045000D03*
%TD*%
D24*
%TO.N,unconnected-(A1-Pad15)*%
X187960000Y-71120000D02*
X197485000Y-71120000D01*
X184912000Y-74168000D02*
X187960000Y-71120000D01*
X184912000Y-74285000D02*
X184912000Y-74168000D01*
%TO.N,unconnected-(A1-Pad14)*%
X197485000Y-68580000D02*
X188077000Y-68580000D01*
X188077000Y-68580000D02*
X182372000Y-74285000D01*
%TO.N,unconnected-(A1-Pad13)*%
X188077000Y-66040000D02*
X197485000Y-66040000D01*
X179832000Y-74285000D02*
X188077000Y-66040000D01*
%TO.N,unconnected-(A1-Pad12)*%
X188077000Y-63500000D02*
X177292000Y-74285000D01*
X197485000Y-63500000D02*
X188077000Y-63500000D01*
%TO.N,unconnected-(A1-Pad11)*%
X188077000Y-60960000D02*
X174752000Y-74285000D01*
X197485000Y-60960000D02*
X188077000Y-60960000D01*
%TO.N,Net-(A1-Pad30)*%
X149352000Y-59045000D02*
X149352000Y-62826000D01*
X130136000Y-82042000D02*
X149352000Y-62826000D01*
D25*
%TO.N,Net-(A1-Pad27)*%
X155666757Y-96611757D02*
X158023242Y-98968242D01*
X155666757Y-60350243D02*
X155666757Y-96611757D01*
X156936757Y-59080243D02*
X155666757Y-60350243D01*
D24*
%TO.N,Net-(A1-Pad6)*%
X165872000Y-78105000D02*
X174244000Y-78105000D01*
X162052000Y-74285000D02*
X165872000Y-78105000D01*
%TO.N,Net-(D1-Pad2)*%
X181864000Y-78105000D02*
X180345000Y-79624000D01*
X180345000Y-79624000D02*
X180345000Y-82804000D01*
D26*
%TO.N,Net-(A1-Pad30)*%
X123278000Y-88900000D02*
X130136000Y-82042000D01*
X116840000Y-88900000D02*
X123278000Y-88900000D01*
X113836000Y-85896000D02*
X116840000Y-88900000D01*
X113836000Y-82042000D02*
X113836000Y-85896000D01*
D24*
%TO.N,Net-(A1-Pad10)*%
X179414000Y-94020000D02*
X191914000Y-94020000D01*
%TO.N,Net-(LS1-Pad1)*%
X122428000Y-81534000D02*
X122936000Y-82042000D01*
D26*
X122428000Y-57404000D02*
X122428000Y-81534000D01*
D24*
%TO.N,Net-(D2-Pad2)*%
X196850000Y-88143000D02*
X196850000Y-93535500D01*
X191511000Y-82804000D02*
X196850000Y-88143000D01*
%TO.N,Net-(A1-Pad27)*%
X191914000Y-99020000D02*
X194714500Y-99020000D01*
X194714500Y-99020000D02*
X196850000Y-101155500D01*
X179414000Y-99020000D02*
X191914000Y-99020000D01*
X170558485Y-98893000D02*
X179287000Y-98893000D01*
X179287000Y-98893000D02*
X179414000Y-99020000D01*
X158058485Y-98893000D02*
X170558485Y-98893000D01*
X157867985Y-99083500D02*
X158058485Y-98893000D01*
X149859891Y-99083500D02*
X157867985Y-99083500D01*
X137359891Y-99083500D02*
X149859891Y-99083500D01*
X137296391Y-99020000D02*
X137359891Y-99083500D01*
X128688000Y-99020000D02*
X137296391Y-99020000D01*
X116188000Y-99020000D02*
X128688000Y-99020000D01*
%TD*%
M02*
